{"glyphs":{"0":{"ha":1319,"x_min":0,"x_max":0,"o":"m 1249 746 b 1247 753 1247 746 1247 749 b 1240 817 1249 761 1243 814 b 1239 792 1235 822 1235 813 b 1236 653 1244 761 1243 689 b 1128 367 1221 564 1183 467 l 1107 329 b 985 153 1085 289 1028 207 b 993 171 957 117 961 128 b 1221 629 1113 331 1192 490 b 1222 847 1235 697 1235 794 b 1225 853 1221 853 1222 854 b 1228 854 1226 851 1228 851 b 1225 857 1228 856 1226 857 b 1221 863 1224 857 1222 860 b 1222 865 1219 865 1219 867 b 1222 869 1225 864 1225 865 b 1204 919 1219 874 1213 896 b 1099 1089 1176 999 1140 1058 b 971 1133 1064 1114 1008 1133 b 935 1154 954 1133 954 1135 b 901 1179 918 1172 911 1176 b 668 1054 853 1188 774 1146 b 457 851 583 981 506 906 b 328 690 418 808 403 789 b 210 506 292 643 232 549 b 208 492 201 489 201 489 b 214 497 213 494 214 497 b 218 508 213 499 214 504 b 225 521 221 514 225 519 b 231 528 225 524 228 526 b 233 532 233 531 235 532 b 236 538 232 532 233 535 l 257 569 b 275 593 267 583 275 594 b 276 593 276 592 276 593 b 282 606 275 594 278 600 b 286 618 285 611 288 617 b 288 621 285 619 286 621 b 299 633 289 621 294 626 b 310 649 303 640 307 647 b 310 651 311 650 311 651 b 314 657 308 651 310 654 b 335 683 324 668 335 682 b 360 717 335 685 346 700 b 404 774 374 735 394 760 b 426 799 414 786 424 799 b 431 804 429 800 431 803 b 440 818 431 806 435 813 b 782 1129 560 949 697 1074 b 885 1169 824 1157 851 1167 b 922 1163 908 1171 913 1169 l 933 1154 l 914 1156 b 874 1153 901 1157 886 1156 b 781 1110 849 1146 803 1125 b 761 1097 771 1103 763 1097 b 749 1088 761 1097 756 1093 l 703 1049 b 453 806 624 982 513 875 b 253 529 383 725 304 614 b 110 142 169 392 119 257 b 104 119 108 125 106 117 b 110 40 100 126 104 82 b 147 -68 117 -1 128 -36 b 250 -157 174 -112 203 -136 b 290 -176 264 -162 282 -172 b 361 -208 311 -190 338 -203 b 506 -203 390 -215 463 -212 b 764 -89 593 -185 690 -142 b 1156 386 919 22 1054 186 b 1249 678 1213 499 1236 572 b 1249 746 1253 711 1253 749 z m 867 238 b 707 82 835 203 733 103 b 664 47 690 69 672 54 b 558 -29 646 32 594 -6 b 392 -107 508 -62 440 -94 b 283 -114 367 -112 296 -118 b 260 -1 269 -110 257 -51 b 358 296 264 76 292 160 b 494 522 394 368 460 476 l 525 565 b 554 603 539 582 551 600 b 589 646 557 607 572 626 b 639 706 614 678 624 689 b 742 818 674 746 703 776 l 767 846 b 771 849 768 847 769 849 b 774 853 772 847 774 850 b 776 856 774 856 775 857 b 782 860 778 854 781 857 b 826 904 783 864 790 871 b 835 918 833 910 836 915 b 822 914 832 924 831 922 b 810 906 817 908 811 904 b 807 904 807 907 806 907 b 804 901 808 903 808 901 b 800 896 801 901 800 899 b 794 890 800 893 797 890 b 789 888 792 890 789 889 b 788 885 789 885 789 883 b 767 867 788 886 778 878 b 743 847 756 857 744 847 b 742 844 740 847 740 846 b 740 840 743 843 742 840 b 728 832 739 840 733 838 b 717 824 724 828 718 824 b 710 810 714 824 708 814 b 707 810 710 808 708 808 b 699 800 703 811 696 803 b 697 799 700 799 700 797 b 653 758 694 799 675 781 b 640 747 615 719 615 719 b 879 974 700 817 813 922 l 897 988 l 926 1010 l 957 1033 b 1019 1035 967 1042 992 1042 b 1119 988 1046 1028 1104 1000 b 1132 708 1161 951 1167 826 b 1074 565 1118 661 1101 621 b 982 408 1040 499 1026 474 b 772 172 940 346 858 254 b 714 114 740 142 714 117 b 708 110 713 111 711 110 b 701 104 706 110 703 107 b 694 100 700 101 697 100 b 692 96 692 100 690 99 b 700 99 693 93 696 94 b 708 107 703 103 707 107 b 719 114 710 107 714 110 b 754 146 724 118 740 132 b 972 378 824 204 910 297 b 1004 418 989 400 1004 418 b 867 238 1011 418 910 286 z m 1160 914 b 1164 785 1168 883 1169 828 b 1097 585 1153 711 1138 665 b 1067 529 1083 557 1069 533 b 1082 567 1060 521 1063 526 b 1161 872 1138 674 1165 783 b 1157 922 1160 894 1158 917 b 1160 914 1156 928 1158 924 z m 260 -108 b 244 -83 256 -111 250 -101 b 235 -18 239 -68 236 -50 b 258 129 233 35 239 69 b 303 242 271 171 300 244 b 290 207 303 242 299 226 b 254 -87 242 86 231 -10 b 260 -108 258 -99 261 -108 z m 972 1126 b 1100 1079 1010 1126 1074 1103 b 1101 1074 1115 1067 1115 1063 b 982 1118 1079 1093 1022 1114 b 972 1126 958 1121 953 1126 z m 853 928 b 894 961 867 940 889 958 b 896 965 896 963 897 964 b 883 958 894 967 889 964 b 865 946 868 944 867 943 b 863 943 865 947 864 946 b 856 939 861 940 857 938 b 854 938 853 940 853 940 b 847 932 856 936 851 933 b 838 922 842 929 838 925 b 853 928 838 915 840 917 z m 131 296 b 131 300 132 296 132 297 b 131 308 129 303 129 306 b 139 329 133 310 136 319 l 149 354 b 147 365 151 361 150 369 b 128 300 143 361 126 303 b 131 296 128 297 129 296 z m 157 376 b 167 400 157 379 161 390 b 174 418 171 408 174 417 b 163 407 171 421 165 415 b 154 385 163 401 158 392 b 149 369 151 376 149 371 b 157 376 149 365 156 372 z m 346 332 b 400 425 358 356 397 425 l 393 411 l 364 361 b 346 332 340 317 335 307 z m 321 282 b 338 311 329 300 338 313 b 321 276 338 308 329 293 b 304 247 313 258 304 246 b 321 282 304 250 313 265 z m 907 972 b 915 982 913 975 915 979 b 914 982 915 985 915 985 l 906 976 b 899 971 901 975 899 972 b 907 972 899 968 903 969 z m 1236 821 b 1236 828 1238 821 1238 824 b 1231 835 1235 831 1233 835 b 1232 828 1229 835 1229 831 b 1236 821 1233 824 1236 821 z m 175 422 b 178 425 176 422 178 424 b 179 433 178 426 179 429 b 179 438 181 436 179 439 b 176 432 178 436 176 433 b 174 426 176 432 175 428 b 175 422 172 424 172 422 z m 585 683 b 597 686 590 690 597 692 b 594 686 597 685 596 685 b 586 682 593 688 589 685 b 585 683 579 676 579 676 z m 604 707 l 615 717 l 606 706 l 594 694 b 604 707 592 694 594 697 z m 678 83 b 674 76 675 79 674 76 b 682 83 675 76 678 79 b 686 90 685 86 688 90 b 678 83 685 90 682 86 z m 935 994 b 939 1000 938 997 939 1000 b 931 994 938 1000 935 997 b 926 988 928 990 925 988 b 935 994 928 988 931 990 z m 421 463 b 426 468 422 465 425 468 b 424 463 426 468 426 465 b 418 456 422 458 419 456 b 421 463 418 456 418 458 z m 404 435 b 410 442 406 439 408 442 b 407 435 410 442 410 439 b 403 429 406 432 403 429 b 404 435 401 429 401 432 z m 553 646 b 554 644 558 650 558 649 b 549 638 551 640 549 638 b 553 646 546 638 547 640 z m 960 122 l 954 117 b 958 124 951 117 953 119 b 960 122 964 128 964 128 z m 529 615 b 531 614 535 619 535 619 l 525 608 b 529 615 522 608 524 611 z m 199 481 b 203 485 203 482 204 483 b 197 482 201 486 199 485 b 199 481 194 479 194 479 z "},"1":{"ha":796,"x_min":0,"x_max":0,"o":"m 411 928 l 393 910 b 381 896 385 901 379 894 l 383 896 l 385 897 b 364 871 388 897 381 888 b 342 854 351 858 342 851 b 339 856 342 856 340 857 b 339 850 336 854 336 853 b 332 835 343 849 342 844 b 254 733 311 814 265 754 b 226 665 242 713 226 675 b 236 683 226 660 228 661 b 239 679 242 699 243 696 b 263 631 232 656 236 646 b 290 607 274 622 288 611 b 301 600 294 601 299 599 b 311 599 304 601 308 600 b 346 638 314 596 322 606 b 549 863 400 708 457 774 b 658 963 603 915 618 929 b 713 1004 700 997 717 1010 l 667 932 b 614 853 642 896 618 860 l 585 811 b 540 744 553 768 538 744 b 538 740 542 744 540 743 b 533 735 535 739 532 736 b 531 729 535 732 533 731 b 526 724 528 728 526 726 b 524 719 528 722 526 721 b 518 714 521 718 518 715 b 514 706 518 713 517 708 b 374 504 500 689 433 592 b 172 185 317 418 194 224 l 143 133 b 35 -81 126 104 43 -61 b 10 -90 32 -87 28 -89 b -79 -111 -44 -97 -72 -103 b -92 -119 -83 -117 -89 -119 b -99 -124 -94 -119 -97 -121 b -96 -125 -100 -125 -99 -125 b -92 -131 -92 -124 -92 -125 b -87 -151 -93 -135 -90 -144 b -79 -175 -83 -158 -79 -169 b -74 -185 -78 -182 -75 -186 b -71 -187 -72 -183 -71 -185 b -74 -190 -71 -190 -72 -192 b -76 -192 -75 -190 -76 -190 b -64 -204 -76 -193 -71 -199 b 50 -208 -50 -214 -54 -214 b 206 -201 94 -206 164 -203 b 296 -196 247 -200 288 -197 b 325 -174 313 -192 335 -175 b 324 -129 319 -172 319 -157 b 313 -111 326 -118 326 -117 b 213 -97 297 -106 264 -101 l 179 -96 l 190 -81 l 204 -62 b 204 -60 206 -61 207 -60 b 207 -56 203 -60 204 -58 b 253 11 211 -50 210 -53 b 283 64 271 39 285 63 b 283 65 282 67 282 67 b 308 101 288 63 308 93 b 313 104 308 104 310 106 b 315 107 314 103 315 104 b 324 121 315 110 319 117 b 331 133 328 126 332 132 b 339 146 329 135 333 140 b 347 158 344 153 349 158 b 357 172 347 160 351 165 b 369 189 364 179 369 186 b 372 193 369 190 371 193 b 374 196 374 193 375 194 b 376 201 372 197 374 200 b 382 207 379 203 382 204 b 397 231 382 208 389 219 b 411 253 406 243 411 253 b 414 260 410 253 411 256 b 425 272 418 263 422 268 b 443 299 428 275 436 288 b 460 322 450 310 457 319 b 464 329 463 325 464 328 b 472 343 463 331 467 338 b 482 358 478 349 482 356 b 483 361 482 361 483 363 b 493 375 488 358 496 371 b 500 382 493 376 496 379 b 506 392 506 385 507 388 b 507 394 506 394 506 396 b 522 417 510 392 524 411 b 526 418 522 418 524 418 b 532 424 529 418 532 421 b 536 429 532 426 533 429 b 538 431 538 429 539 429 b 540 439 536 432 538 436 b 544 446 543 443 544 446 b 549 453 543 446 544 449 b 553 463 553 456 554 461 b 554 464 551 465 551 465 b 563 479 558 461 567 474 b 564 482 563 481 563 482 l 572 482 b 572 485 575 482 576 482 b 575 490 568 488 569 489 b 578 496 581 492 582 493 b 578 499 574 497 574 499 b 593 513 583 499 596 510 b 596 517 592 514 593 515 b 600 522 599 518 600 521 b 603 526 599 524 600 526 b 607 535 606 528 607 532 b 611 539 606 540 607 540 b 614 540 614 538 615 539 b 617 546 613 543 614 546 b 619 551 619 547 621 550 b 621 556 619 553 619 556 b 665 622 626 558 668 619 b 667 624 664 624 665 625 b 799 819 669 622 754 746 b 890 1021 842 889 881 974 b 881 1081 896 1046 893 1068 b 868 1106 876 1088 869 1097 b 828 1176 858 1132 839 1168 b 818 1189 822 1181 818 1186 b 814 1194 818 1192 817 1193 b 813 1190 813 1196 813 1194 b 800 1185 814 1186 813 1185 b 567 1056 765 1183 640 1114 b 451 958 513 1014 476 983 b 418 932 433 940 421 931 b 417 932 417 933 415 933 b 399 910 418 928 417 925 l 385 897 l 399 911 b 411 928 407 921 413 928 z m 510 674 b 397 513 504 674 472 626 b 294 349 306 372 308 376 b 231 240 288 335 258 286 b 100 10 174 150 142 93 l 61 -65 b 43 -86 53 -79 47 -86 b 42 -75 38 -86 38 -86 b 57 -47 44 -69 51 -56 l 94 26 l 144 121 b 165 158 157 140 165 157 b 176 176 165 158 171 167 b 193 204 183 186 190 199 b 200 215 196 210 199 215 b 235 271 200 217 217 242 b 389 513 315 399 358 467 b 551 747 438 586 546 742 b 542 732 554 750 550 743 l 526 706 b 713 989 517 678 621 835 b 739 1024 724 1007 736 1022 b 671 911 746 1028 754 1040 b 510 674 585 778 514 674 z m 871 989 b 824 888 858 957 828 890 b 818 875 824 886 821 881 b 811 864 815 869 813 864 b 807 861 808 864 807 863 b 744 758 807 857 783 818 b 708 701 724 729 708 703 b 704 699 708 700 707 699 b 701 694 703 699 701 696 b 696 686 701 693 699 689 b 693 676 693 683 692 679 b 693 675 694 675 694 674 b 682 665 692 678 686 672 b 675 658 678 658 675 656 l 715 722 b 876 1047 817 878 871 986 b 883 1065 879 1074 879 1075 b 871 989 890 1050 886 1026 z m 94 -189 b 79 -186 86 -189 79 -187 b 76 -183 79 -185 78 -183 b 74 -186 74 -183 74 -185 b 28 -192 76 -189 61 -190 b 0 -193 13 -192 0 -192 b -19 -194 0 -194 -8 -194 b -42 -197 -29 -194 -40 -196 b -50 -196 -44 -199 -47 -197 b -47 -189 -56 -189 -54 -186 b -40 -189 -42 -192 -40 -192 b -37 -189 -40 -186 -39 -186 b -32 -190 -35 -192 -33 -193 b -18 -187 -31 -187 -25 -186 b -8 -190 -12 -187 -8 -189 b -7 -193 -10 -192 -8 -193 b -4 -189 -6 -193 -4 -192 b 8 -187 -4 -187 1 -186 b 18 -186 14 -187 18 -187 b 39 -187 15 -183 35 -185 b 46 -185 43 -192 46 -190 b 53 -183 46 -181 47 -181 b 61 -183 56 -185 60 -185 b 94 -183 64 -181 96 -179 b 101 -181 92 -189 97 -186 b 107 -182 104 -176 106 -176 b 94 -189 108 -189 108 -190 z m -76 -112 b -65 -107 -75 -110 -69 -108 b -8 -100 -56 -107 -49 -106 b 29 -99 21 -94 28 -94 b 18 -103 29 -101 26 -103 b -28 -108 11 -103 -10 -106 l -68 -115 b -76 -112 -75 -117 -78 -117 z m 144 -182 b 143 -182 143 -179 143 -179 b 133 -181 143 -189 133 -187 b 135 -178 133 -178 133 -176 b 144 -176 136 -178 140 -178 b 153 -178 151 -174 153 -174 b 160 -179 153 -182 154 -182 b 169 -182 168 -175 169 -175 b 144 -182 169 -187 147 -189 z m 458 974 b 492 1004 474 986 489 1001 b 490 1006 496 1013 496 1013 b 482 999 488 1001 483 999 b 472 992 481 999 476 996 l 457 976 b 439 958 451 972 443 964 b 458 974 433 954 443 960 z m 508 676 b 518 686 508 672 511 675 b 524 700 522 693 525 699 b 508 676 522 701 508 681 z m 121 -187 b 113 -185 118 -189 115 -187 b 113 -178 110 -182 110 -179 b 115 -179 115 -176 117 -176 b 118 -183 114 -181 115 -183 b 121 -187 122 -185 124 -186 z m 176 -186 b 172 -182 174 -186 172 -183 b 176 -176 172 -179 174 -176 b 179 -182 178 -176 179 -179 b 176 -186 179 -183 178 -186 z m -60 -197 b -65 -197 -61 -199 -64 -199 b -57 -192 -67 -193 -61 -187 b -60 -197 -57 -192 -57 -194 z m 38 -96 b 44 -97 40 -94 43 -94 b 40 -100 46 -99 43 -100 b 38 -96 32 -100 31 -99 z m 186 -176 b 189 -182 188 -176 189 -179 b 186 -186 189 -183 188 -186 b 183 -182 185 -186 183 -183 b 186 -176 183 -179 185 -176 z m 272 -90 b 281 -90 278 -94 278 -94 b 275 -87 281 -89 279 -87 b 272 -90 269 -87 268 -87 z m 289 -93 b 296 -93 296 -97 296 -97 b 290 -90 296 -92 293 -90 b 289 -93 285 -90 285 -90 z m 238 -176 b 244 -179 240 -176 243 -178 b 239 -179 247 -183 246 -183 b 238 -176 236 -178 236 -176 z m 231 649 b 232 656 232 650 232 653 b 229 653 231 658 229 657 b 231 649 229 650 231 647 z "},"2":{"ha":1172,"x_min":0,"x_max":0,"o":"m 1113 853 l 1108 883 b 1088 957 1106 907 1093 951 b 1085 961 1085 960 1083 961 b 1079 978 1086 961 1083 969 b 1060 1024 1074 986 1065 1007 b 1026 1093 1047 1058 1043 1067 b 969 1146 1010 1117 999 1126 b 768 1188 917 1182 854 1194 b 419 1053 663 1178 535 1129 b 197 836 329 993 261 926 b 171 800 183 815 171 800 b 235 906 167 804 208 872 b 492 1115 307 994 390 1063 b 768 1204 579 1161 710 1203 b 786 1208 774 1204 782 1206 b 771 1208 790 1210 785 1210 b 738 1206 760 1207 744 1206 b 724 1204 732 1206 725 1206 b 706 1200 724 1203 715 1200 b 683 1197 697 1199 686 1197 b 375 1054 583 1175 463 1119 b 165 814 289 990 199 886 b 135 696 153 785 135 719 b 140 669 135 681 136 675 b 146 672 150 660 154 661 b 142 701 140 681 139 685 b 149 693 144 724 149 718 b 196 642 150 667 163 651 b 226 625 206 638 219 631 b 247 622 240 614 244 614 b 253 622 249 626 250 626 b 265 628 256 617 265 621 b 268 633 265 631 267 633 b 278 644 271 633 274 638 b 286 656 281 650 285 656 b 289 660 288 656 289 658 b 297 674 289 663 293 669 b 301 690 307 683 307 688 b 306 692 299 692 301 692 b 315 697 311 692 314 693 b 313 701 315 700 315 703 b 314 711 310 699 310 707 b 315 710 315 713 315 713 b 319 703 314 707 317 704 b 321 704 322 703 322 703 b 324 713 319 706 321 710 b 324 715 325 715 325 717 b 315 717 322 714 318 714 b 315 718 311 719 311 719 b 326 719 318 717 324 718 b 331 718 332 722 332 722 b 333 721 329 717 331 717 b 338 731 336 724 339 729 b 342 735 336 733 339 735 b 346 738 344 735 347 736 b 350 742 346 740 347 742 b 356 746 353 742 356 744 b 364 763 357 753 357 754 b 367 775 367 768 368 774 b 368 779 367 778 367 779 b 372 774 371 779 372 776 b 375 771 372 771 374 769 b 376 776 378 772 378 774 b 379 778 376 778 376 779 b 386 786 382 778 385 781 b 389 789 388 790 388 792 b 393 790 389 786 390 786 b 396 800 396 794 397 799 b 397 801 394 803 396 803 b 429 835 401 797 429 826 b 432 838 429 843 429 843 b 435 839 435 831 435 831 b 439 842 435 846 436 846 b 442 843 442 838 442 838 b 444 847 442 847 443 849 b 453 856 447 846 456 853 b 456 858 453 857 454 858 b 467 867 458 858 464 863 b 476 874 471 871 474 874 b 478 875 478 872 478 874 b 481 878 478 878 479 878 b 490 885 482 876 486 879 b 493 890 493 889 494 892 b 493 901 489 888 489 897 b 493 900 494 903 494 901 b 496 896 492 897 493 896 b 519 917 503 896 522 914 b 521 917 518 918 518 918 b 547 939 526 914 553 936 b 551 940 544 942 546 942 b 560 943 556 939 558 940 b 565 946 561 946 564 947 b 567 950 568 944 568 946 b 569 953 565 954 565 956 b 582 964 574 949 586 960 b 583 964 581 965 582 965 b 601 971 585 963 593 967 b 611 985 613 979 614 982 b 613 985 607 989 607 989 b 624 986 617 982 619 982 b 633 992 628 989 632 992 b 640 999 635 992 639 994 b 647 1003 643 1003 646 1004 b 660 1010 653 1000 661 1006 b 661 1011 658 1011 658 1011 b 674 1014 664 1008 675 1011 b 678 1021 672 1015 675 1019 b 681 1021 682 1026 682 1026 b 689 1019 679 1017 679 1015 b 701 1029 694 1022 700 1026 b 708 1035 703 1032 707 1035 b 708 1032 711 1035 711 1033 b 708 1028 703 1029 703 1028 b 717 1035 711 1028 715 1031 b 725 1042 719 1039 722 1042 b 722 1036 728 1042 726 1039 b 722 1033 717 1032 717 1032 b 733 1042 726 1035 732 1039 b 743 1044 738 1049 746 1051 b 744 1042 742 1043 743 1042 b 757 1049 750 1042 761 1049 b 756 1051 756 1049 756 1050 b 763 1051 757 1054 760 1054 b 768 1051 765 1049 768 1049 b 772 1056 768 1053 769 1056 b 776 1054 776 1057 776 1057 b 785 1056 774 1050 779 1051 b 786 1056 786 1058 788 1058 b 793 1054 785 1054 788 1053 b 799 1058 797 1056 800 1057 b 806 1060 797 1061 800 1061 b 814 1061 810 1058 814 1060 b 829 1063 814 1063 821 1064 b 843 1064 839 1061 844 1063 b 932 1060 840 1069 908 1065 b 968 1047 942 1057 958 1051 b 990 993 989 1038 990 1033 b 850 682 990 896 938 779 b 493 390 778 603 640 490 b 215 197 417 338 285 247 b 24 29 129 136 65 79 b -17 -42 4 6 -17 -32 b -25 -61 -17 -43 -21 -53 b -12 -114 -39 -86 -36 -97 b 31 -140 -1 -122 18 -133 b 68 -167 43 -147 60 -158 b 108 -190 82 -181 90 -186 b 221 -194 111 -192 163 -194 b 332 -196 279 -196 329 -196 b 343 -193 335 -194 340 -193 b 347 -194 347 -192 349 -192 b 354 -196 346 -196 349 -197 b 458 -190 374 -194 415 -192 b 675 -178 608 -186 672 -182 b 678 -176 676 -175 678 -175 b 686 -181 678 -179 682 -181 b 693 -179 690 -181 693 -179 b 697 -172 692 -178 694 -175 b 699 -169 700 -169 701 -168 b 690 -169 697 -171 693 -171 b 689 -171 689 -168 688 -169 b 686 -175 690 -174 689 -175 b 682 -171 683 -175 682 -172 b 685 -165 682 -168 682 -165 b 694 -153 686 -165 690 -160 b 697 -117 701 -142 701 -136 b 694 -107 696 -112 694 -108 b 667 -89 694 -104 682 -96 b 519 -56 635 -72 583 -61 b 296 -53 469 -50 342 -50 l 264 -56 l 278 -47 b 407 -33 297 -33 322 -31 b 667 -81 540 -37 631 -53 b 686 -90 675 -87 683 -92 b 685 -89 688 -90 688 -89 b 671 -81 682 -89 675 -85 b 596 -46 657 -65 638 -56 b 392 -25 540 -32 478 -25 b 319 -22 351 -24 319 -24 b 351 -3 319 -19 347 -3 b 356 0 353 -3 356 -1 b 375 14 357 1 365 8 b 396 29 386 21 394 28 b 399 31 397 31 399 32 b 422 43 399 29 410 35 b 443 63 435 51 444 60 b 446 64 442 64 443 64 b 457 67 449 63 454 64 b 463 71 460 68 463 71 b 485 85 464 71 474 78 l 519 107 b 618 175 535 117 539 119 l 676 218 l 718 250 b 1060 619 879 372 1008 513 b 1101 740 1078 657 1094 708 b 1113 853 1108 776 1114 836 z m 647 476 b 347 251 557 400 546 392 l 263 192 b 108 79 215 160 118 89 b 97 71 103 75 99 71 b 89 64 97 71 93 68 l 49 26 b 6 -17 31 10 11 -10 b 14 1 -11 -40 -4 -24 b 138 125 35 32 90 88 b 486 372 185 163 329 264 b 732 558 585 439 647 486 b 790 606 783 600 790 607 b 647 476 790 601 701 521 z m 1065 660 b 1054 635 1058 647 1054 636 b 1042 613 1054 633 1049 624 b 1031 590 1035 600 1029 590 b 1028 586 1031 589 1029 588 l 1008 561 b 988 535 1000 549 990 536 b 985 525 985 532 983 528 b 981 521 986 522 985 521 b 976 515 978 521 976 519 b 974 511 976 513 975 510 b 969 507 971 511 969 510 b 964 500 971 504 968 501 b 957 493 960 500 957 496 b 953 485 957 489 956 486 b 953 486 950 483 950 483 b 944 482 954 489 950 488 b 936 468 939 476 935 471 b 935 468 938 467 936 467 b 919 450 931 469 921 458 b 914 444 918 447 917 444 b 914 446 910 443 910 443 b 915 450 917 449 917 450 b 901 433 914 450 907 442 b 886 418 896 424 889 417 b 856 388 882 418 863 400 b 847 382 853 385 850 382 b 842 378 846 383 843 381 b 835 374 840 375 838 374 b 832 368 832 374 831 371 b 831 361 833 365 832 363 b 829 364 828 360 828 361 b 826 367 831 367 831 367 b 822 358 825 365 822 361 b 818 351 824 353 821 351 b 807 344 815 351 810 349 b 796 338 803 340 799 338 b 793 332 794 338 793 336 b 792 328 793 329 793 328 b 783 326 790 329 788 328 b 846 390 779 324 807 353 b 913 464 896 440 914 460 b 914 468 913 467 913 469 b 999 568 919 464 969 522 b 1054 678 1015 594 1043 649 b 1090 857 1075 733 1090 807 b 1082 943 1090 879 1085 931 b 1082 949 1081 946 1081 949 b 1092 929 1083 949 1088 940 b 1065 660 1114 853 1104 743 z m 750 549 l 779 581 b 831 636 796 597 819 622 b 921 756 856 665 921 751 b 925 761 921 757 922 760 b 940 785 929 764 936 774 b 947 792 942 789 946 792 b 950 797 950 792 950 794 b 953 804 949 800 950 803 b 954 810 957 806 957 807 b 958 828 951 813 953 817 b 997 983 982 875 994 924 b 1003 1022 999 1025 999 1029 b 1003 917 1010 1011 1008 951 b 983 863 999 901 992 878 b 972 832 976 847 971 833 b 971 831 974 829 974 829 b 968 828 967 832 967 832 b 965 824 969 824 968 824 b 960 821 963 825 960 824 b 957 815 960 818 958 815 b 954 814 954 815 954 814 b 963 815 956 813 960 814 b 954 794 965 818 963 808 b 835 631 926 742 888 688 b 781 576 822 615 797 592 z m -15 -79 b -17 -106 -15 -93 -17 -106 b -22 -101 -18 -106 -21 -104 b -21 -65 -29 -96 -28 -79 l -14 -54 z m 269 653 l 260 640 b 263 649 257 638 258 640 b 272 663 267 656 271 663 b 269 653 278 663 276 660 z m 729 529 b 739 542 726 529 728 532 l 750 551 l 739 540 b 729 529 735 535 729 529 z m 457 863 b 454 865 454 863 453 864 b 458 868 454 868 457 868 b 461 865 460 868 461 868 b 457 863 461 864 460 863 z m 160 753 b 156 750 157 750 156 749 b 160 758 156 753 157 756 b 163 761 161 761 163 763 b 160 753 163 758 161 756 z m 285 674 b 281 676 282 674 281 675 b 289 675 282 679 289 678 b 285 674 289 674 286 674 z "},"3":{"ha":881,"x_min":0,"x_max":0,"o":"m 938 1083 b 919 1118 932 1089 925 1104 b 828 1203 897 1171 871 1196 b 482 1089 750 1217 613 1171 b 235 876 386 1029 306 960 b 217 860 203 838 203 838 b 419 1061 256 919 343 1006 b 543 1139 463 1092 521 1129 b 554 1147 549 1142 554 1146 b 551 1149 554 1149 553 1150 b 535 1140 550 1149 543 1144 b 264 933 454 1103 333 1010 b 164 774 213 875 183 828 b 157 725 151 735 150 733 b 161 722 158 724 160 722 b 160 740 160 724 158 732 l 163 756 l 163 740 b 207 694 164 715 165 713 b 228 692 219 688 221 688 b 236 696 232 694 235 696 b 263 728 239 693 265 724 b 264 729 261 729 263 731 b 267 732 265 729 267 731 b 264 735 268 735 267 735 b 271 743 261 733 265 738 b 281 754 275 747 281 753 b 282 757 281 757 282 757 b 278 744 283 756 282 750 l 272 736 l 281 744 b 289 760 288 750 289 756 b 292 769 289 764 290 768 b 294 764 294 771 296 769 b 293 757 292 760 292 757 b 300 764 296 757 297 760 b 307 772 301 767 304 771 b 311 778 310 772 311 775 b 304 776 310 781 308 779 b 304 778 303 774 301 774 b 311 782 306 779 308 782 b 321 788 314 782 318 785 b 324 797 326 792 326 794 b 326 799 321 800 321 800 b 331 801 331 796 332 797 b 333 806 329 804 331 806 b 342 813 336 806 340 808 b 346 819 342 815 344 819 b 367 839 353 822 368 836 b 368 840 365 839 367 840 b 372 847 371 840 372 843 b 376 851 374 851 375 853 b 389 860 379 850 385 854 b 399 865 394 864 399 867 b 403 871 399 864 400 865 b 411 878 406 875 408 878 b 417 883 413 878 417 879 b 421 888 417 888 418 889 b 428 893 425 886 426 889 b 439 900 428 900 431 901 b 439 906 439 900 440 903 b 444 910 439 908 440 910 b 456 917 449 910 454 914 b 471 933 458 921 465 928 l 488 946 b 492 947 489 949 492 950 b 506 960 492 946 499 951 b 522 974 514 968 521 974 b 529 976 529 972 531 974 b 533 981 528 978 531 981 b 542 986 536 981 540 983 b 551 993 544 990 549 993 b 560 999 554 993 558 996 b 565 1003 560 1001 563 1003 b 568 1007 568 1003 569 1004 b 569 1008 568 1010 568 1010 b 583 1013 572 1007 578 1008 b 615 1033 594 1022 613 1033 b 629 1042 617 1033 622 1036 b 639 1047 633 1046 638 1049 b 640 1050 640 1046 640 1047 b 643 1051 642 1053 643 1053 b 654 1057 644 1050 650 1053 b 668 1064 658 1060 664 1064 b 681 1068 672 1064 678 1067 b 693 1075 683 1071 689 1074 b 700 1079 697 1076 700 1078 b 710 1083 701 1082 706 1083 b 718 1086 714 1083 718 1085 b 726 1090 718 1088 722 1090 b 735 1093 731 1090 735 1092 b 747 1097 736 1094 742 1097 b 760 1100 753 1099 758 1100 l 764 1100 b 767 1103 765 1100 767 1101 b 771 1104 767 1104 768 1106 b 781 1107 774 1103 778 1104 b 790 1108 783 1108 788 1110 b 797 1108 793 1107 796 1107 b 847 1108 801 1113 847 1111 b 825 1043 849 1101 836 1065 b 690 863 806 1003 746 922 b 461 660 632 797 546 722 b 254 531 404 619 275 538 l 238 524 l 256 539 b 322 586 265 547 296 569 b 463 683 379 624 444 669 b 508 718 479 697 503 715 b 524 731 513 721 519 725 l 558 757 b 582 778 571 767 581 776 b 571 772 582 779 576 776 l 547 754 l 471 697 b 444 678 468 694 456 685 b 381 635 432 671 404 651 l 304 586 b 218 517 269 561 218 522 b 229 515 217 515 222 514 b 242 517 236 517 242 517 b 221 501 240 515 232 508 b 207 482 200 486 196 479 b 219 476 213 483 215 482 b 268 447 222 469 263 446 b 275 438 269 447 272 443 b 350 436 286 419 296 419 b 510 421 406 454 450 449 l 519 417 l 513 385 b 390 172 503 314 457 236 b 186 18 335 121 239 49 b -15 -49 111 -24 22 -54 b -32 -44 -22 -47 -31 -46 b -39 -42 -33 -43 -36 -42 b -44 14 -46 -42 -47 -18 b -42 56 -43 32 -42 51 b -58 76 -44 65 -51 76 b -61 79 -61 76 -62 78 b -60 82 -60 81 -60 82 b -85 36 -62 82 -72 63 b -97 -12 -92 18 -96 4 b -65 -86 -100 -46 -93 -64 b -37 -107 -54 -96 -40 -104 b -12 -129 -33 -110 -21 -119 b 81 -181 13 -157 46 -175 b 185 -181 92 -183 165 -183 b 200 -176 194 -181 201 -178 b 201 -175 199 -174 199 -174 b 208 -174 204 -176 207 -176 b 211 -172 210 -171 211 -171 b 219 -175 211 -175 215 -175 b 226 -171 225 -174 228 -172 b 233 -169 226 -169 229 -168 b 242 -165 239 -171 242 -169 b 247 -160 243 -162 244 -160 b 246 -164 249 -160 249 -162 b 251 -165 244 -167 247 -167 b 306 -142 268 -161 303 -146 b 314 -139 308 -140 311 -139 b 318 -137 315 -140 318 -139 b 319 -135 318 -135 319 -133 b 331 -129 326 -135 332 -133 b 332 -128 329 -128 329 -126 b 436 -68 336 -131 401 -93 b 622 178 536 4 590 76 b 628 319 638 224 639 282 b 625 332 625 325 625 331 b 622 335 626 333 625 335 b 619 339 621 335 619 338 b 615 350 619 342 618 347 b 599 399 611 354 606 375 b 543 501 585 456 572 481 b 539 519 531 513 526 522 b 547 524 543 518 546 519 b 551 531 547 528 550 531 b 553 528 553 531 554 529 b 553 525 551 526 551 525 b 563 538 553 525 557 531 b 568 543 567 544 569 547 b 575 543 565 536 572 536 b 586 547 576 546 582 547 b 592 550 590 547 593 549 b 596 558 592 553 593 556 b 599 558 601 561 603 561 b 600 554 597 557 599 554 b 606 563 603 554 604 558 b 608 565 606 568 606 568 b 618 564 610 561 613 561 b 625 572 622 567 625 569 b 622 572 626 575 625 575 b 618 572 619 568 619 568 b 626 576 618 575 621 576 b 653 594 640 576 654 586 b 658 599 653 599 653 600 b 663 600 663 597 664 597 b 665 603 661 603 664 604 b 683 615 672 600 686 610 b 686 617 682 617 685 618 b 704 632 693 614 708 628 b 707 633 704 633 706 635 b 715 636 708 632 713 633 b 718 640 717 640 718 642 b 726 644 718 639 722 640 b 735 654 732 649 735 653 b 738 657 733 657 735 657 b 742 663 740 656 740 658 b 743 665 742 667 742 668 b 764 681 746 660 767 675 b 765 683 763 683 763 685 b 775 692 769 681 776 689 b 778 693 774 693 775 694 b 782 696 779 693 782 694 b 785 700 781 699 782 700 b 800 718 792 700 803 713 b 803 719 800 719 800 721 b 814 726 803 718 810 721 l 831 742 b 839 751 835 746 839 750 b 860 779 839 753 849 765 b 879 808 872 793 879 806 b 881 810 878 810 879 811 b 888 817 882 808 886 811 l 896 831 b 939 914 906 842 928 888 b 938 1083 964 978 964 1049 z m 343 113 b 161 -26 290 61 204 -6 b 51 -65 125 -44 82 -60 b 13 -71 38 -68 19 -71 b -29 -58 0 -69 -28 -62 b 1 -56 -31 -57 -15 -56 b 68 -44 31 -56 39 -54 b 325 106 154 -15 239 33 b 343 113 368 142 374 144 z m 550 86 b 599 196 571 118 585 151 b 613 310 607 215 614 278 l 613 331 l 619 308 b 619 199 629 275 629 236 b 551 67 604 149 581 100 b 544 51 546 61 544 54 b 542 50 546 50 544 49 b 539 50 540 51 539 51 b 529 39 539 49 535 43 b 524 28 525 33 522 29 b 522 26 525 26 524 26 b 494 -3 518 29 492 3 b 493 -3 494 -4 494 -4 b 482 -7 492 -1 488 -3 b 476 -8 479 -10 476 -10 b 483 -1 476 -7 481 -3 b 550 86 494 8 531 54 z m 522 385 b 532 372 531 421 535 413 b 515 314 529 346 525 335 b 399 150 492 258 454 206 b 353 106 382 132 361 113 b 379 139 338 93 338 93 b 471 250 424 186 469 243 b 486 283 471 254 478 268 b 522 385 503 314 517 351 z m 946 985 b 928 918 943 953 940 944 b 842 785 908 871 888 838 b 835 783 806 743 803 742 b 915 918 867 822 896 872 b 935 997 928 950 931 954 b 936 1051 936 1021 938 1046 b 946 1038 935 1067 939 1057 b 946 985 949 1025 949 1013 z m 711 867 b 697 860 664 818 658 815 b 744 913 717 879 736 903 b 794 982 757 928 793 979 b 810 1006 794 982 801 993 b 853 1097 828 1031 850 1079 b 857 1110 853 1106 854 1110 b 865 1104 861 1110 864 1107 b 840 1032 867 1099 853 1057 b 711 867 819 993 769 926 z m -83 -57 b -93 -8 -89 -57 -93 -29 l -90 14 l -90 -10 b -86 -46 -90 -22 -87 -39 b -83 -57 -85 -51 -83 -57 z m 249 713 b 244 707 246 710 244 707 b 240 701 246 706 243 703 b 243 711 233 694 233 703 b 249 719 246 714 249 718 b 251 719 247 721 249 721 b 249 713 254 717 253 715 z m 571 1154 b 569 1157 576 1158 576 1158 b 558 1153 565 1156 561 1154 b 571 1154 556 1147 563 1149 z m 472 -18 b 467 -15 464 -22 461 -21 b 474 -12 468 -12 472 -11 b 472 -18 476 -14 475 -15 z m 594 788 b 600 794 597 790 601 794 b 592 788 599 794 594 790 b 586 781 588 783 586 781 b 594 788 588 781 592 783 z m 482 263 b 475 256 481 263 478 258 b 472 249 472 251 472 249 b 478 256 474 249 476 251 b 482 263 482 258 482 263 z "},"4":{"ha":1047,"x_min":0,"x_max":0,"o":"m 1215 1036 b 1207 1039 1214 1036 1211 1038 b 1204 1035 1203 1040 1203 1040 b 1203 1032 1206 1032 1204 1031 b 1196 1026 1201 1032 1199 1031 b 1197 1022 1192 1019 1193 1018 b 1204 1022 1201 1026 1203 1026 b 1204 1021 1207 1021 1206 1019 b 1199 1018 1201 1022 1200 1021 b 1194 1014 1197 1015 1196 1013 b 1183 1006 1192 1017 1183 1010 b 1189 1007 1183 1004 1186 1004 b 1190 1006 1194 1011 1194 1011 b 1182 1001 1188 1003 1185 1001 b 1176 996 1181 1003 1178 1000 b 1161 974 1175 992 1168 982 b 1147 953 1154 965 1149 956 b 1143 947 1146 950 1144 947 b 1142 943 1140 947 1140 946 b 1140 940 1143 942 1142 940 b 1122 919 1139 940 1131 931 b 1106 900 1115 910 1107 900 b 1106 896 1104 900 1104 897 b 1104 890 1107 893 1106 890 b 1093 878 1101 890 1097 885 b 1079 860 1089 871 1082 863 l 1064 840 b 1051 822 1060 832 1054 824 l 1026 790 b 1004 761 1015 775 1004 761 l 983 733 b 946 686 964 707 958 700 b 939 681 940 681 938 678 l 1054 838 b 1193 1035 1119 926 1179 1011 b 1204 1121 1218 1078 1219 1090 b 1194 1146 1199 1132 1194 1143 b 1171 1164 1193 1153 1181 1163 b 1061 1090 1157 1167 1107 1133 b 1074 1104 1044 1074 1049 1079 b 1165 1174 1114 1146 1156 1178 b 1165 1178 1171 1172 1171 1172 b 1117 1157 1157 1185 1147 1181 b 869 889 1075 1125 947 986 b 564 492 699 675 619 572 l 524 436 b 460 426 521 433 494 429 l 342 415 b 292 410 326 413 304 411 l 208 400 b 197 404 197 397 196 399 b 203 415 197 408 200 414 b 207 422 207 417 208 419 b 208 424 206 424 207 425 b 233 449 213 422 236 447 b 236 451 232 450 233 451 b 289 506 240 451 290 501 b 293 507 289 507 290 507 b 296 510 296 507 297 508 b 299 514 296 513 297 514 b 347 553 301 513 322 529 b 374 575 354 560 365 569 b 553 726 407 604 489 674 b 693 849 621 783 672 828 l 742 894 b 781 936 764 915 781 933 b 776 938 781 940 779 940 b 769 936 774 935 771 935 b 768 933 768 938 768 936 b 763 931 768 932 765 931 b 758 928 760 931 758 929 b 753 918 760 926 757 922 l 747 913 l 750 919 b 751 928 753 922 753 926 b 754 931 750 929 751 931 b 757 936 756 931 757 933 b 761 936 757 940 758 940 b 764 940 764 933 764 933 b 767 944 764 944 765 946 b 774 940 767 942 771 940 b 774 946 778 940 778 940 b 778 944 771 949 774 949 l 786 936 l 799 950 b 807 964 806 957 808 964 b 810 969 806 964 807 967 b 818 972 814 974 817 974 b 821 974 819 969 821 971 b 817 983 821 976 818 981 b 804 979 813 986 810 985 b 797 968 801 975 797 971 b 793 965 797 967 796 965 b 792 963 792 967 790 965 b 797 960 793 960 796 958 b 800 958 800 960 801 960 b 794 956 799 957 796 956 b 788 953 793 956 790 954 b 778 956 783 951 781 951 b 781 963 774 960 774 961 b 788 975 788 964 789 968 b 790 975 788 976 789 976 b 808 992 794 972 811 989 b 811 993 807 993 808 993 b 825 1008 818 993 828 1004 b 826 1008 824 1010 824 1010 b 876 1061 829 1007 868 1047 b 846 1142 882 1072 861 1131 b 753 1115 831 1153 803 1144 b 635 1040 728 1101 640 1044 l 614 1025 b 597 1008 603 1018 596 1011 b 596 1008 599 1007 597 1007 b 561 986 592 1010 561 990 b 565 985 561 985 563 983 b 567 983 568 986 568 986 b 561 982 565 982 563 981 b 546 971 558 983 553 978 b 536 964 539 964 535 961 b 533 964 539 968 539 968 b 531 956 531 961 529 958 b 529 954 532 954 531 953 b 453 899 524 958 515 951 b 131 597 322 792 192 668 b 114 579 122 586 114 578 b 117 585 113 581 114 583 l 131 603 b 168 646 143 618 158 636 l 215 699 l 224 708 l 213 699 b 124 600 183 674 151 639 b 110 574 107 578 101 568 b 111 571 113 575 113 574 b 106 569 110 569 107 568 b 67 508 103 571 93 556 b 51 365 22 429 18 385 b 69 353 60 361 67 356 l 92 336 b 122 308 100 331 115 318 b 275 274 151 276 176 269 b 349 276 311 274 344 276 b 418 281 367 279 418 282 b 396 243 418 279 408 263 b 300 82 361 188 318 118 b 268 22 290 65 276 38 b 253 -12 260 7 253 -10 b 250 -17 253 -15 251 -17 b 243 -28 249 -17 244 -22 l 233 -50 b 231 -62 231 -56 229 -61 b 228 -82 231 -64 231 -74 b 229 -101 226 -93 226 -99 b 232 -118 231 -103 232 -111 b 242 -136 232 -126 235 -132 b 256 -143 246 -140 253 -143 l 278 -153 b 321 -154 294 -162 307 -164 b 332 -150 324 -153 329 -150 b 346 -142 333 -150 340 -147 b 629 215 368 -125 497 38 b 713 317 708 322 701 315 b 824 331 726 319 803 328 b 913 351 868 335 915 346 b 922 361 911 353 915 357 b 932 383 933 368 933 368 b 925 408 931 393 928 404 b 835 424 919 419 911 421 b 785 429 799 425 785 426 b 868 432 786 435 846 436 b 899 426 878 429 892 426 l 913 425 l 900 428 b 879 435 894 429 885 432 b 832 440 874 438 853 440 l 794 443 l 844 511 l 907 597 b 921 618 913 608 919 617 b 981 706 925 621 982 703 b 983 707 981 707 982 707 b 1024 758 986 707 1024 756 b 1035 772 1024 760 1029 765 b 1044 788 1042 779 1046 786 b 1049 793 1044 789 1046 792 b 1060 806 1053 796 1057 801 b 1088 844 1065 817 1083 840 b 1092 851 1090 846 1092 849 b 1097 861 1092 854 1094 858 b 1115 885 1100 864 1107 875 b 1165 954 1138 917 1160 949 b 1169 964 1168 957 1169 961 b 1174 967 1169 965 1171 967 b 1176 974 1175 967 1176 969 b 1179 979 1176 978 1178 981 b 1196 1001 1181 976 1185 982 b 1210 1025 1200 1007 1206 1018 b 1215 1036 1213 1032 1215 1036 z m 439 264 b 421 236 433 257 425 244 b 408 222 415 228 410 222 b 407 219 406 222 406 221 b 401 208 408 217 406 213 b 396 200 399 206 396 201 b 375 167 396 199 386 183 b 353 131 363 149 353 132 b 331 101 349 121 332 100 b 329 97 329 103 329 101 b 324 88 329 94 326 90 b 321 78 321 85 319 81 b 319 78 322 76 321 76 b 315 72 317 79 315 76 b 313 65 315 69 314 65 b 310 63 310 65 310 64 b 307 56 311 61 310 58 b 304 49 304 54 303 50 b 300 44 304 47 303 46 b 296 36 297 43 296 40 b 290 28 296 33 293 29 b 288 22 288 26 286 25 b 285 17 289 21 288 18 b 278 6 282 17 278 11 b 271 -6 276 1 274 -4 b 265 -11 268 -7 265 -10 b 269 -11 265 -14 267 -14 b 272 -10 271 -7 272 -7 b 267 -17 272 -12 269 -15 b 256 -29 260 -18 256 -24 b 261 -25 256 -31 258 -29 b 260 -31 264 -21 264 -22 b 251 -39 256 -39 253 -42 b 249 -37 250 -37 249 -36 b 247 -46 249 -39 247 -43 b 249 -49 246 -50 246 -51 b 250 -51 251 -47 251 -49 b 244 -56 249 -56 247 -56 b 243 -57 243 -54 242 -54 b 240 -71 244 -58 243 -65 l 236 -82 l 238 -67 b 243 -43 238 -57 240 -47 b 244 -35 244 -40 246 -36 b 247 -28 243 -33 244 -31 b 254 -15 250 -25 253 -19 b 258 -4 256 -10 257 -6 l 267 10 l 281 36 l 318 100 b 436 283 356 165 429 279 b 444 282 440 286 443 286 b 439 264 447 279 444 274 z m 508 414 b 439 403 504 411 485 407 l 317 392 l 233 383 l 193 379 b 182 385 179 378 179 378 b 233 399 188 394 188 394 b 292 403 256 400 282 403 l 406 414 b 507 424 457 418 503 422 b 508 414 517 425 517 421 z m 701 649 l 671 607 b 651 581 663 597 654 585 l 628 550 l 578 481 b 542 435 561 456 544 435 b 538 436 540 435 538 436 b 711 674 538 442 701 667 b 769 747 713 675 738 708 b 1000 1026 903 917 953 978 b 996 1019 1024 1050 1024 1050 b 883 886 954 974 911 921 b 701 649 849 843 721 675 z m 631 819 l 657 843 l 703 886 b 744 914 733 914 744 921 b 729 903 744 910 732 900 b 728 901 728 904 728 903 b 722 896 728 899 725 896 b 713 886 718 894 714 890 b 704 878 711 882 707 879 b 700 874 701 878 700 876 b 699 871 701 872 700 871 b 690 863 694 874 688 865 b 686 863 692 861 690 861 b 681 860 683 864 681 863 b 658 840 681 853 664 839 b 654 836 657 840 654 839 b 638 818 654 832 642 819 b 628 811 636 818 632 815 b 618 807 621 803 618 801 b 631 819 618 808 624 814 z m 878 1050 b 875 1049 876 1051 875 1050 b 868 1042 875 1047 872 1044 b 863 1032 864 1039 861 1035 b 863 1031 864 1031 864 1029 b 853 1022 858 1035 850 1026 b 853 1021 854 1019 854 1019 b 832 1006 850 1022 842 1015 b 819 983 815 989 814 989 b 826 986 828 975 828 975 b 828 994 825 992 826 996 b 829 990 829 993 831 992 b 831 985 828 989 829 986 b 833 986 832 983 833 983 b 839 997 833 988 835 992 b 843 1010 842 1003 843 1008 b 849 1015 842 1011 844 1014 b 867 1028 858 1017 867 1024 b 875 1038 867 1029 871 1033 b 890 1071 882 1044 890 1063 b 883 1065 890 1074 888 1071 b 879 1053 881 1060 878 1054 b 878 1050 881 1051 879 1050 z m 861 839 b 828 800 844 818 829 800 b 899 892 826 800 857 840 b 1008 1019 932 933 1000 1014 b 983 989 1013 1022 1000 1008 b 861 839 944 943 901 892 z m 51 372 b 43 379 51 372 47 375 b 43 442 32 390 32 419 b 47 446 49 454 49 454 b 47 386 43 413 43 399 b 51 372 50 378 51 372 z m 96 533 l 72 496 b 65 489 60 474 54 468 b 104 547 72 503 103 547 b 96 533 106 547 101 542 z m 1224 1057 b 1222 1064 1222 1057 1221 1060 b 1217 1058 1222 1068 1221 1065 b 1211 1043 1213 1051 1211 1044 b 1221 1047 1214 1038 1221 1042 b 1224 1054 1219 1049 1221 1051 b 1224 1057 1226 1056 1226 1057 z m 535 417 b 522 415 531 411 521 410 b 536 424 524 421 533 426 b 535 417 538 422 538 419 z m 1040 1054 b 1026 1039 1040 1053 1035 1047 l 1013 1025 l 1025 1040 b 1040 1054 1032 1049 1039 1054 z m 1229 1082 b 1226 1085 1229 1090 1229 1090 b 1224 1075 1225 1081 1224 1076 b 1226 1074 1224 1074 1225 1074 b 1229 1082 1228 1074 1229 1078 z m 160 613 b 150 604 154 608 150 604 b 156 613 149 604 151 608 b 165 621 160 617 164 621 b 160 613 167 621 164 617 z m 574 1013 b 581 1017 575 1015 578 1017 b 585 1019 582 1017 585 1018 b 578 1019 585 1022 582 1022 b 572 1013 574 1018 571 1014 b 574 1013 572 1010 572 1010 z m 807 1156 b 810 1158 814 1157 814 1158 b 800 1157 806 1160 801 1158 b 807 1156 799 1154 800 1154 z m 140 592 b 133 585 138 588 135 585 b 138 592 132 585 135 588 b 146 597 140 594 144 597 b 140 592 146 597 144 594 z m 660 1076 b 668 1082 663 1076 665 1079 b 667 1083 672 1088 672 1088 l 658 1078 b 660 1076 657 1076 658 1076 z m 915 644 b 914 647 910 639 910 639 l 919 653 b 915 644 921 651 919 649 z m 847 1007 b 850 1003 847 1004 849 1003 b 854 1004 853 1003 854 1004 b 850 1008 854 1006 853 1007 b 847 1007 849 1010 847 1008 z m 825 793 b 818 788 822 790 819 788 b 824 794 815 788 818 790 b 825 793 828 799 829 799 z m 749 1132 b 747 1133 751 1138 751 1138 b 740 1128 743 1131 740 1128 b 749 1132 740 1125 743 1126 z m 113 557 b 107 551 111 554 108 551 b 111 558 104 551 106 554 b 113 557 117 563 117 563 z m 790 947 b 792 946 796 951 796 951 b 785 940 789 943 786 940 b 790 947 782 940 785 943 z m 814 779 b 807 775 810 774 807 772 b 813 781 807 776 810 778 b 814 779 818 785 818 785 z m 613 799 b 618 794 615 797 618 796 b 610 797 618 793 611 794 b 613 799 608 799 610 800 z m 779 956 l 782 953 b 785 956 783 953 785 954 b 782 958 786 958 785 958 b 779 956 779 958 779 958 z m 126 574 l 121 568 b 125 575 118 568 119 571 b 126 574 131 579 131 579 z m 164 383 b 160 382 161 378 160 376 b 163 386 160 383 161 386 b 164 383 164 388 165 386 z m 592 782 b 594 775 594 779 594 776 b 590 779 593 775 592 776 b 592 782 588 785 589 785 z m 600 790 b 601 790 606 794 606 794 b 596 783 599 786 597 783 b 600 790 593 783 594 786 z m 581 774 b 582 774 586 778 586 778 b 576 767 579 769 576 767 b 581 774 574 767 575 769 z m 565 760 b 567 761 565 763 565 764 b 567 754 568 758 568 756 b 565 760 565 754 565 756 z "},"5":{"ha":1006,"x_min":0,"x_max":0,"o":"m 1246 1115 b 1128 1188 1215 1156 1188 1172 b 950 1210 1083 1200 1038 1206 b 589 1196 825 1215 611 1207 b 586 1197 583 1192 583 1192 b 589 1204 589 1200 590 1203 b 611 1224 592 1203 611 1219 b 589 1210 611 1229 603 1225 b 567 1193 579 1200 569 1193 b 560 1190 564 1193 561 1192 b 532 1186 557 1188 544 1186 b 522 1182 529 1186 525 1185 b 506 1178 519 1181 513 1178 b 421 1151 492 1176 435 1158 b 410 1149 415 1149 411 1147 b 408 1147 408 1150 408 1149 b 413 1140 408 1146 410 1142 b 410 1138 415 1136 415 1136 b 404 1136 407 1139 404 1139 b 399 1132 404 1135 401 1132 b 386 1118 394 1131 389 1125 b 386 1076 381 1108 381 1099 b 386 1038 389 1064 389 1042 b 388 1032 386 1035 386 1032 b 388 1026 390 1029 390 1028 b 390 1021 383 1024 385 1022 b 396 1014 396 1019 397 1017 b 418 1004 394 1008 407 1003 b 426 996 429 1007 433 1003 b 404 963 417 985 404 967 b 400 957 404 958 403 957 b 365 903 396 957 365 910 b 361 900 365 901 363 900 b 357 893 360 900 357 897 b 350 882 356 890 353 885 b 343 869 347 881 344 875 b 349 872 340 863 342 863 b 364 893 354 878 360 888 b 372 907 367 900 371 906 b 406 957 374 908 389 931 b 454 1010 435 1000 446 1013 b 406 932 456 1008 433 974 b 158 485 242 688 158 538 b 186 436 158 463 165 451 b 222 406 196 429 213 415 l 242 386 l 281 388 b 392 404 315 388 328 389 b 682 428 540 440 613 446 b 753 396 710 421 750 403 b 713 310 754 390 732 342 b 583 171 693 276 631 210 b 561 153 574 164 567 157 l 564 150 b 594 167 568 147 574 150 l 619 186 l 592 160 b 444 43 543 113 496 75 b 335 -15 421 28 358 -4 b 228 -47 311 -25 260 -42 b 24 -18 151 -64 43 -49 b 0 -15 15 -4 3 -4 b 11 -53 -1 -22 1 -32 b 50 -108 22 -76 29 -86 b 215 -189 92 -151 146 -178 b 304 -192 235 -192 263 -193 b 463 -164 372 -190 399 -186 b 561 -117 497 -151 561 -121 b 564 -114 561 -115 563 -114 b 597 -93 567 -115 597 -96 b 601 -90 597 -92 599 -90 b 621 -78 603 -90 611 -85 b 828 221 719 1 799 117 b 829 346 838 256 838 326 b 824 401 825 356 824 368 b 818 467 824 426 821 453 b 810 510 815 479 811 499 b 707 610 800 565 768 597 b 556 604 671 617 599 615 b 518 596 538 601 522 597 b 503 592 515 596 508 593 b 490 588 497 589 492 588 b 474 585 482 589 474 588 b 490 585 474 583 482 583 b 515 590 499 588 510 589 b 563 599 521 590 542 594 b 710 600 610 607 679 608 b 792 539 750 589 781 567 b 781 540 799 522 799 522 b 618 590 746 576 686 593 b 481 565 585 588 517 576 b 457 560 471 563 460 560 l 332 517 b 383 592 322 511 332 525 b 579 850 499 742 528 781 b 681 996 636 926 681 990 b 683 1000 681 999 682 1000 b 690 1008 685 1000 688 1004 b 711 1039 697 1028 704 1038 b 917 1057 718 1042 803 1049 b 1069 1058 949 1058 1015 1060 b 1226 1040 1174 1057 1208 1053 b 1242 1040 1238 1031 1242 1032 b 1250 1065 1242 1044 1246 1056 b 1246 1115 1261 1088 1261 1096 z m 811 267 b 818 283 813 275 815 283 b 808 210 822 288 817 240 b 594 -67 782 117 688 -4 b 567 -83 571 -82 567 -85 b 586 -68 567 -82 575 -75 l 638 -22 b 811 267 725 63 800 186 z m 667 1188 b 649 1189 657 1186 650 1186 b 660 1193 647 1192 651 1193 b 681 1194 667 1193 676 1194 b 1013 1196 738 1200 1013 1201 b 892 1194 1013 1194 958 1194 b 726 1192 826 1194 751 1193 b 667 1188 701 1190 675 1189 z m 981 1076 b 840 1071 928 1075 865 1072 l 760 1064 b 722 1061 740 1063 724 1061 b 722 1063 719 1060 719 1060 b 743 1067 724 1064 733 1067 b 760 1069 753 1067 760 1068 b 789 1072 760 1071 774 1072 b 822 1076 807 1072 819 1074 b 826 1078 825 1079 826 1079 b 838 1075 824 1075 828 1074 b 1035 1079 889 1079 967 1081 b 981 1076 1065 1079 1050 1078 z m 1238 1111 b 1210 1138 1229 1121 1217 1133 b 1103 1181 1190 1151 1139 1172 b 1069 1192 1086 1186 1071 1190 b 1074 1192 1068 1193 1071 1193 b 1101 1186 1078 1190 1090 1188 b 1217 1140 1146 1176 1200 1156 b 1240 1115 1221 1138 1231 1126 b 1254 1094 1249 1104 1256 1096 b 1238 1111 1254 1093 1246 1101 z m 517 1169 b 474 1158 514 1169 494 1164 l 429 1144 b 435 1149 426 1143 428 1144 b 519 1171 454 1158 515 1175 b 517 1169 521 1171 519 1169 z m 554 144 b 551 144 554 143 553 143 b 546 140 549 144 546 143 b 540 136 544 138 542 136 b 524 122 536 136 524 125 b 531 121 524 121 528 121 b 538 126 535 122 538 125 b 542 129 538 128 539 129 b 549 135 544 129 547 132 b 553 138 550 138 551 139 b 563 150 557 135 565 146 l 561 151 b 554 144 557 149 554 146 z m 460 69 b 468 76 464 72 468 75 b 478 82 468 78 472 81 b 497 101 488 86 507 106 b 451 68 489 99 451 71 b 460 69 451 67 454 68 z m 515 111 b 521 115 518 113 521 115 b 521 117 522 114 522 115 b 504 108 518 119 504 113 b 515 111 504 104 510 106 z m 675 1026 b 664 1013 672 1021 667 1014 b 667 1021 663 1010 663 1014 b 678 1035 671 1028 676 1035 b 675 1026 679 1036 679 1032 z m 446 578 b 451 576 442 575 443 575 b 468 582 457 578 465 579 b 446 578 474 585 457 582 z m 278 764 b 288 778 282 764 289 774 b 281 772 286 779 283 778 b 278 764 278 768 276 764 z m 326 836 b 329 844 329 839 331 843 b 321 833 326 849 321 840 b 326 836 321 831 322 831 z m 310 817 b 318 831 317 817 321 825 b 315 825 315 835 314 833 b 311 819 315 824 314 822 b 310 817 308 818 308 817 z m 331 850 b 338 863 336 850 342 860 b 335 860 336 863 335 861 b 331 853 335 857 333 853 b 331 850 328 851 328 850 z m 289 783 b 294 790 290 783 293 788 b 297 797 297 794 297 797 b 292 790 296 797 293 794 b 289 783 289 788 289 783 z m 726 381 b 731 385 729 381 731 383 b 726 386 731 388 729 388 b 724 381 725 386 724 383 b 726 381 724 379 725 379 z m 303 797 b 303 800 304 797 304 799 b 306 804 301 803 303 804 b 307 806 307 804 308 804 b 300 800 304 808 297 804 z m 685 304 b 683 307 686 307 686 308 b 681 301 682 306 681 303 b 685 304 681 297 683 297 z m 439 61 b 438 64 440 64 439 65 b 435 58 436 63 435 61 b 439 61 435 54 436 56 z m 549 1176 b 544 1178 543 1176 542 1178 b 556 1178 549 1179 553 1179 b 549 1176 557 1178 554 1176 z m 531 1174 b 526 1175 526 1174 525 1174 b 535 1175 529 1176 532 1176 b 531 1174 538 1174 535 1174 z m 575 1179 b 574 1182 571 1179 571 1181 l 579 1182 b 575 1179 581 1181 579 1179 z m 1019 1192 b 1025 1192 1021 1193 1024 1193 b 1021 1190 1026 1190 1025 1189 b 1019 1192 1017 1190 1017 1190 z m 589 1183 b 586 1185 585 1183 585 1183 b 593 1185 589 1186 592 1186 b 589 1183 594 1183 592 1183 z "},"6":{"ha":936,"x_min":0,"x_max":0,"o":"m 1178 1079 b 1163 1110 1174 1082 1168 1096 b 1088 1200 1149 1153 1119 1186 b 988 1206 1067 1208 1018 1211 b 511 932 869 1186 675 1075 b 296 708 435 865 368 797 b 61 335 181 568 111 457 b 6 85 35 263 6 132 b 7 57 7 75 7 63 b 44 -43 8 31 25 -15 b 86 -87 51 -56 71 -75 b 132 -129 101 -99 121 -118 b 222 -182 156 -154 190 -175 b 358 -182 250 -187 319 -187 b 597 -64 446 -167 524 -129 b 750 135 674 3 724 68 b 769 210 763 164 764 172 b 756 313 774 260 771 279 b 744 347 750 324 744 339 b 681 475 738 386 707 446 b 539 531 649 511 597 531 b 472 524 526 531 496 528 b 421 518 450 521 425 518 l 414 519 l 426 535 b 622 738 468 583 571 690 b 782 869 663 775 738 836 l 792 876 l 781 872 b 771 867 774 871 769 868 b 763 861 772 865 767 863 b 729 838 754 857 744 851 b 719 832 724 833 719 831 b 714 829 719 833 718 832 b 710 832 707 822 703 825 b 701 831 717 839 710 838 b 699 824 699 828 696 824 b 699 817 700 822 700 821 b 696 818 694 813 694 813 b 690 822 696 821 693 822 b 685 817 688 821 685 818 b 688 815 683 815 685 814 b 692 813 690 817 690 815 b 689 810 693 808 692 808 b 681 806 686 810 683 808 b 674 801 679 803 676 801 b 614 756 669 803 653 790 b 561 707 583 729 560 707 b 544 692 561 707 554 700 b 478 622 535 683 506 651 b 425 567 450 593 426 568 l 400 538 b 376 511 389 522 378 511 b 433 582 371 511 383 528 b 621 767 492 649 557 713 b 740 860 679 817 744 868 b 740 856 739 856 739 854 b 744 863 743 857 744 860 b 790 894 746 868 786 897 b 792 896 792 893 793 894 b 806 904 790 900 801 908 b 807 906 807 903 807 904 b 835 925 807 911 832 928 b 836 926 836 924 838 924 b 843 935 836 928 839 932 b 860 946 847 938 854 943 b 879 954 868 953 872 954 b 881 957 881 953 881 954 b 894 965 879 960 892 968 b 896 965 894 964 894 964 b 933 988 893 968 929 990 b 936 990 935 988 936 988 b 942 994 936 993 939 994 b 951 1000 944 993 949 996 b 960 1004 954 1004 957 1006 b 963 1007 961 1004 963 1004 b 965 1008 963 1008 964 1010 b 969 1010 968 1007 969 1008 b 975 1010 971 1013 972 1013 b 978 1008 978 1007 979 1007 b 988 1018 978 1011 981 1015 b 1003 1028 994 1021 1001 1025 b 1006 1028 1004 1029 1007 1031 b 1011 1031 1006 1026 1007 1028 b 1022 1038 1013 1035 1018 1038 b 1031 1040 1026 1038 1031 1039 b 1035 1042 1031 1042 1032 1043 b 1038 1043 1036 1040 1038 1040 b 1044 1046 1038 1044 1040 1046 b 1069 1054 1049 1046 1061 1050 b 1092 1061 1081 1060 1090 1063 b 1100 1064 1094 1061 1099 1063 b 1113 1068 1104 1067 1108 1068 l 1133 1072 b 1164 1071 1143 1075 1153 1074 b 1178 1079 1182 1067 1186 1071 z m 476 415 b 654 382 560 415 608 406 b 696 329 692 361 696 357 b 618 171 696 282 674 236 b 486 57 582 131 538 92 b 447 26 440 26 442 26 b 453 29 450 26 453 28 b 458 32 454 32 456 32 b 471 39 461 32 467 36 b 479 44 475 43 479 44 b 504 60 481 43 492 50 b 529 76 517 68 528 76 b 606 146 532 76 590 129 b 618 156 622 164 626 167 b 547 79 607 140 567 96 b 461 14 526 60 479 25 b 442 1 450 8 443 3 b 438 -1 442 0 440 -1 b 432 -4 435 -1 432 -3 b 426 -7 432 -6 429 -7 b 413 -12 422 -7 415 -10 b 254 -72 385 -35 293 -68 b 225 -75 242 -74 229 -75 b 154 -65 210 -76 171 -71 b 135 -47 138 -60 131 -53 b 135 -44 138 -44 138 -44 b 128 -22 131 -47 129 -39 b 264 314 122 53 167 160 b 325 404 281 339 322 401 b 476 415 328 408 431 415 z m 1113 1174 b 944 1168 1076 1192 1014 1189 b 781 1094 919 1160 817 1114 b 671 1026 740 1074 669 1029 b 621 986 672 1025 649 1007 b 418 813 563 944 463 857 b 149 475 319 713 221 590 b 101 394 132 447 110 411 b 85 369 92 376 86 367 b 86 375 85 372 85 375 b 97 397 88 376 93 386 b 178 536 110 425 147 489 b 351 758 219 601 283 682 b 526 928 418 833 519 932 b 528 929 528 926 529 928 b 617 1004 525 933 558 961 b 974 1194 757 1107 879 1172 b 1114 1178 1028 1207 1092 1199 l 1122 1169 z m 114 -44 b 104 7 108 -44 103 -21 b 201 265 106 68 140 160 b 290 399 235 321 285 397 b 278 374 294 400 290 392 b 138 114 222 294 161 178 b 115 -24 122 74 113 10 b 114 -44 115 -35 115 -44 z m 401 504 b 414 510 403 507 408 508 b 476 518 419 510 449 514 b 667 478 568 531 628 518 b 669 472 679 464 682 460 b 601 504 660 483 628 497 b 471 508 560 515 531 515 b 401 504 408 500 394 500 z m 717 108 b 753 217 739 151 746 172 b 760 215 760 263 764 263 b 686 54 754 167 729 110 b 651 14 675 39 660 21 l 638 1 l 650 14 b 717 108 668 36 703 85 z m 596 981 b 583 967 586 972 581 967 b 589 969 586 967 588 968 b 603 979 589 971 596 975 b 617 989 608 982 615 988 b 596 981 621 996 614 993 z m 643 1011 b 622 996 632 1004 622 997 b 664 1022 622 993 642 1006 b 643 1011 678 1032 664 1025 z m 433 19 b 433 24 442 26 442 26 b 424 15 429 21 424 18 b 433 19 418 10 428 13 z m 767 879 b 756 867 761 875 756 869 b 757 868 754 863 756 863 b 767 875 758 871 764 874 b 776 882 769 876 774 879 b 767 879 778 885 775 885 z m 568 960 b 569 957 560 953 560 953 b 576 964 574 960 576 963 b 568 960 578 968 576 967 z m 672 807 b 678 807 672 804 675 804 b 682 813 682 810 683 813 b 672 807 681 815 674 811 z m 368 504 b 368 500 371 504 371 503 b 364 494 368 497 365 494 b 368 504 360 494 363 503 z m 801 888 b 794 882 797 885 794 882 b 801 883 793 881 797 882 b 808 889 806 886 808 888 b 801 888 808 890 806 889 z m 721 844 b 715 840 718 844 715 842 b 721 842 715 836 717 836 b 721 844 726 846 726 847 z m 193 -56 b 182 -56 190 -54 185 -54 b 188 -57 179 -56 181 -57 b 193 -56 194 -57 197 -56 z m 635 -4 b 628 -11 632 -8 629 -11 b 633 -4 625 -11 626 -8 b 635 -4 639 0 639 0 z m 83 357 b 79 361 82 356 81 357 b 81 363 79 365 79 365 b 83 357 83 360 85 357 z "},"7":{"ha":1047,"x_min":0,"x_max":0,"o":"m 1156 1147 b 1088 1182 1140 1164 1121 1174 b 944 1194 1049 1192 1019 1194 b 656 1157 847 1196 772 1186 b 472 1097 604 1144 515 1115 b 443 1086 457 1090 443 1086 b 651 1160 438 1092 601 1149 b 661 1165 657 1161 661 1164 b 635 1163 661 1168 647 1167 l 593 1150 b 453 1101 558 1142 488 1117 b 432 1093 443 1096 433 1093 b 425 1090 432 1094 428 1093 b 415 1088 422 1088 418 1086 b 413 1086 414 1088 413 1088 b 401 1076 414 1085 408 1081 b 382 1065 393 1074 385 1068 b 379 1065 378 1061 378 1061 b 393 1078 379 1068 386 1074 b 408 1088 410 1085 410 1085 b 347 1050 403 1092 364 1068 b 333 1033 338 1040 331 1033 b 336 1031 338 1035 339 1035 b 343 990 331 1017 332 1010 b 361 953 350 981 358 963 b 378 935 367 936 368 935 b 388 932 383 935 388 933 b 400 931 388 932 393 931 b 411 933 406 931 411 932 b 417 933 411 935 414 935 b 421 935 419 933 421 933 b 429 938 421 938 425 938 b 440 940 433 938 439 939 b 447 942 443 942 446 942 b 451 943 450 940 451 940 b 460 946 451 944 456 946 b 469 949 464 946 468 947 b 485 951 469 949 476 950 b 501 954 492 951 500 953 b 510 958 504 957 508 958 b 567 972 544 965 567 971 b 572 975 565 974 568 975 b 597 981 582 975 592 978 b 604 981 599 982 603 982 b 610 982 606 981 608 981 b 614 985 611 985 613 985 b 632 988 615 983 624 985 b 676 999 646 992 654 994 b 689 1003 682 999 688 1001 b 696 1006 692 1004 694 1006 l 700 1006 b 711 1007 701 1006 706 1007 b 740 1015 728 1010 739 1013 b 746 1017 740 1018 743 1018 b 765 1024 753 1014 768 1018 b 769 1024 764 1025 765 1025 b 783 1022 772 1021 778 1021 b 804 1028 789 1025 797 1026 b 815 1029 810 1028 815 1029 b 829 1031 815 1029 822 1031 b 847 1035 838 1032 844 1033 b 863 1038 850 1036 857 1038 b 888 1040 869 1039 881 1040 b 928 1043 893 1042 911 1043 b 961 1049 943 1044 958 1047 b 967 1050 964 1051 967 1051 b 1008 1047 967 1049 986 1047 b 1067 1042 1051 1046 1056 1046 b 1076 1039 1069 1040 1075 1039 b 1090 1036 1085 1040 1090 1039 b 1011 958 1090 1031 1014 956 b 1011 956 1010 960 1010 958 b 897 839 1013 951 979 918 b 617 564 835 778 707 654 b 442 394 525 472 446 396 b 671 633 429 388 485 446 b 840 807 764 728 840 806 b 843 808 840 808 842 810 b 863 826 844 808 853 815 b 868 838 875 840 876 843 b 610 586 854 829 822 797 b 417 396 507 483 421 399 b 388 389 413 393 400 390 b 318 376 353 386 318 381 b 382 381 318 374 329 375 b 404 382 393 382 404 383 b 346 369 408 379 397 376 b 115 321 247 356 153 336 b 99 319 96 313 93 313 b 131 332 103 324 117 329 b 144 336 132 333 139 335 b 156 340 150 338 156 339 b 165 342 156 342 160 343 b 169 344 172 340 172 342 b 178 350 165 347 167 347 b 194 354 186 351 193 353 b 193 357 194 357 194 357 b 122 338 186 357 124 339 b 119 336 122 336 121 335 b 92 317 115 339 90 322 b 85 307 92 314 89 310 b 82 271 74 300 74 294 b 89 242 86 261 89 247 b 97 222 89 233 92 228 b 204 229 107 213 107 213 l 263 239 l 275 240 l 246 208 b 1 -92 136 88 8 -68 b 1 -117 0 -96 0 -107 b 22 -156 3 -133 6 -137 b 43 -178 33 -167 43 -176 b 44 -181 43 -179 43 -181 b 65 -186 51 -182 64 -185 b 97 -176 67 -187 71 -186 b 106 -168 108 -172 114 -168 b 108 -161 103 -168 104 -165 b 457 174 164 -114 279 -3 b 568 274 544 260 568 281 b 500 204 568 272 538 242 b 432 138 463 167 432 136 b 368 76 432 138 403 110 b 199 -85 296 6 260 -29 b 126 -160 131 -147 122 -157 b 136 -154 128 -161 132 -158 b 144 -147 139 -151 143 -147 b 158 -136 147 -147 153 -143 b 171 -125 163 -129 168 -125 b 179 -118 172 -125 176 -122 b 201 -99 194 -103 201 -96 b 214 -89 201 -100 208 -96 b 232 -72 221 -82 229 -74 b 486 172 250 -62 489 168 b 486 174 485 175 485 175 b 510 196 490 171 511 192 b 513 197 508 197 510 197 b 515 200 514 197 515 199 b 518 204 515 203 517 204 b 558 240 519 203 538 219 l 596 276 l 653 279 b 846 278 732 282 796 282 b 925 253 908 272 919 269 b 931 254 925 251 928 251 b 935 261 935 257 936 260 b 940 279 935 263 936 271 b 933 329 950 303 949 313 b 906 353 925 338 913 349 b 789 385 886 364 842 376 b 729 393 763 388 736 393 l 715 396 l 764 446 l 907 594 l 949 639 b 1160 939 1065 764 1129 856 b 1165 983 1165 956 1167 964 b 1168 1032 1164 997 1165 1018 b 1156 1147 1179 1099 1176 1125 z m 1154 960 b 1117 868 1153 939 1136 899 b 925 633 1081 807 1024 738 l 882 589 b 701 407 858 563 717 422 b 693 411 681 388 672 390 b 701 425 699 417 703 424 b 703 426 700 426 701 428 b 769 490 706 425 735 454 b 949 681 921 647 894 621 b 1050 800 1010 749 1014 753 b 1149 960 1099 864 1125 904 l 1157 978 z m 204 133 l 93 10 b 36 -54 63 -26 38 -54 b 49 -39 36 -54 42 -47 l 99 22 b 301 244 157 93 296 244 b 204 133 306 244 292 228 z m 815 372 b 894 353 836 369 878 360 b 939 317 907 347 932 328 b 932 321 946 308 943 310 b 832 367 913 342 888 353 b 815 372 811 371 806 374 z m 15 -90 l 10 -117 l 7 -133 l 6 -118 b 10 -90 3 -107 4 -101 b 15 -90 17 -75 22 -75 z m 725 388 b 742 385 728 388 735 385 l 756 382 l 744 381 b 732 382 739 379 733 381 b 717 383 731 383 724 383 l 703 381 l 713 386 b 725 388 718 388 724 389 z m 776 379 l 796 376 b 767 378 799 374 776 375 b 776 379 761 379 764 381 z m 114 -161 b 111 -168 111 -164 110 -167 b 115 -168 113 -171 114 -169 b 122 -165 117 -165 119 -164 b 125 -165 124 -167 125 -167 b 114 -161 125 -158 119 -157 z m 674 1168 b 685 1172 679 1169 685 1171 b 679 1174 685 1175 682 1175 b 669 1172 676 1172 671 1172 b 664 1169 667 1172 664 1171 b 674 1168 664 1168 668 1167 z m 701 1176 b 714 1179 708 1176 714 1178 b 690 1176 714 1182 694 1179 b 701 1176 690 1175 694 1175 z m 435 382 b 425 378 432 379 428 378 b 426 382 421 378 421 379 b 435 382 435 389 440 389 z m 210 357 b 215 361 213 357 215 358 b 210 363 215 363 213 363 b 206 358 207 361 206 360 b 210 357 206 358 207 357 z m 308 371 b 314 374 310 371 313 372 b 313 378 314 376 314 378 b 307 374 310 378 308 376 b 308 371 306 372 306 371 z m 675 385 b 672 388 672 385 671 386 b 678 390 674 389 676 390 b 681 388 679 390 681 389 b 675 385 681 386 678 385 z m 349 1042 b 340 1036 346 1039 343 1036 l 339 1036 b 347 1043 339 1038 343 1040 b 349 1042 353 1047 353 1047 z m 297 371 b 301 372 300 371 301 372 b 294 374 300 374 297 374 b 297 371 292 372 293 371 z "},"8":{"ha":1067,"x_min":0,"x_max":0,"o":"m 1149 968 b 1140 1021 1146 978 1142 1001 b 1132 1074 1138 1039 1135 1063 l 1122 1114 b 1065 1189 1113 1153 1097 1172 b 946 1206 1036 1203 1004 1208 b 893 1201 918 1204 894 1203 b 949 1199 892 1200 917 1199 b 1061 1181 1008 1199 1032 1194 b 1103 1143 1078 1172 1096 1156 b 1094 1144 1108 1132 1108 1132 b 963 1186 1063 1174 1028 1185 b 686 1140 872 1190 783 1175 b 653 1129 668 1133 653 1128 b 783 1176 649 1132 757 1171 b 794 1181 789 1178 794 1179 b 763 1178 794 1185 793 1185 b 579 1094 704 1163 633 1131 b 533 1065 563 1085 543 1071 b 447 986 514 1051 494 1035 b 374 892 408 949 389 924 b 375 883 363 867 363 863 b 397 911 397 924 414 944 b 390 636 349 817 347 731 b 396 617 404 607 404 606 b 396 610 389 624 389 622 b 401 594 400 603 403 596 l 365 576 b 226 476 326 558 285 528 b 128 379 192 447 144 401 b 40 254 85 326 40 261 b 36 250 40 251 38 250 b 33 244 35 250 33 247 b 31 235 33 240 32 236 b 28 231 29 233 28 232 b 19 213 28 229 24 221 b 14 194 15 204 14 196 b 18 199 15 193 17 196 b 60 274 21 210 40 244 b 79 306 69 289 79 303 l 88 315 l 110 343 b 179 417 128 367 163 403 b 207 444 201 433 208 442 b 211 444 206 446 207 446 b 214 446 215 442 217 443 b 215 449 213 449 213 450 b 225 454 217 447 222 450 b 235 463 229 458 233 463 b 246 472 236 463 240 467 b 256 481 250 476 254 481 b 315 526 260 481 315 524 b 299 518 315 531 313 528 b 289 514 293 515 289 513 b 372 568 289 518 342 553 b 411 582 399 582 407 585 b 410 571 417 576 417 572 b 349 542 397 567 350 544 l 340 538 b 332 532 338 538 333 535 b 329 532 331 529 329 529 b 324 533 329 533 326 535 b 319 529 321 533 319 531 b 324 528 319 526 321 526 b 289 499 331 532 317 519 b 25 203 171 407 82 308 b 11 183 17 188 10 179 l 14 192 l 8 183 b 3 169 6 179 3 172 b -1 154 3 167 1 160 b -7 140 -4 150 -7 143 b -14 108 -7 138 -10 122 b -21 -6 -22 75 -26 18 b -3 -51 -18 -17 -11 -36 b 32 -94 8 -72 14 -81 b 68 -131 43 -103 60 -119 b 172 -194 92 -164 126 -185 b 329 -187 207 -201 285 -199 b 693 58 486 -150 642 -44 b 714 151 706 83 714 124 b 686 251 714 182 706 214 l 668 288 l 685 294 b 992 569 769 338 907 460 b 1143 853 1064 660 1122 771 b 1149 968 1153 890 1156 944 z m 828 625 b 646 454 725 521 704 501 l 608 422 b 592 424 603 414 596 415 b 567 461 590 428 579 444 b 540 501 554 478 543 496 b 533 511 539 508 536 513 b 521 536 532 511 526 521 b 485 581 507 571 501 579 b 471 596 471 583 458 596 b 486 589 475 596 482 593 b 494 586 492 585 494 583 b 468 603 494 590 475 603 b 451 649 460 603 456 613 b 463 750 447 683 450 714 b 492 815 469 772 488 813 l 506 833 b 525 860 511 843 521 854 b 592 926 536 874 592 928 b 621 949 592 924 619 946 b 625 951 621 950 624 951 b 639 960 628 951 633 956 b 879 1050 683 992 821 1044 b 990 1053 928 1054 956 1056 b 1069 1026 1019 1051 1069 1033 b 1043 944 1069 1017 1056 972 b 1008 876 1036 928 1021 897 b 900 717 988 840 914 732 b 896 708 896 713 894 708 b 915 728 899 707 907 715 b 936 754 925 739 933 751 b 940 760 939 756 940 760 b 946 768 940 761 943 765 b 1032 901 957 778 1017 871 b 1074 1007 1049 935 1068 982 b 1082 1008 1079 1029 1085 1031 b 1003 831 1078 969 1040 888 b 875 676 958 767 882 674 b 874 674 872 678 872 676 b 871 671 875 669 874 668 b 867 665 868 672 867 669 b 863 660 867 661 865 658 b 860 657 860 661 858 660 b 857 650 860 656 860 651 b 856 653 854 649 854 650 b 828 625 857 656 844 643 z m 383 8 b 389 10 385 7 388 8 b 393 14 390 13 392 14 b 497 81 401 13 461 51 b 589 174 529 106 575 153 b 590 168 604 196 606 193 b 426 11 561 114 507 64 b 183 -82 347 -42 265 -72 b 99 -79 146 -86 126 -86 l 86 -75 l 88 -60 b 136 63 93 -21 106 11 b 431 379 185 143 292 258 l 490 433 l 507 450 l 533 414 b 560 372 547 394 560 375 b 564 368 558 368 560 367 b 560 347 571 371 569 365 b 557 317 550 329 550 322 b 561 308 560 314 561 310 b 565 303 561 306 563 303 b 571 293 567 303 569 299 b 586 281 574 283 575 282 b 615 265 611 279 614 278 b 567 157 621 236 606 204 b 415 32 533 117 488 79 b 383 8 397 19 382 10 z m 1124 828 b 922 514 1092 733 1018 619 l 856 447 b 879 476 832 428 838 433 b 1018 647 936 535 979 588 b 1131 890 1075 732 1118 826 b 1136 911 1133 903 1136 911 b 1124 828 1142 911 1132 857 z m 431 694 b 442 757 431 722 432 732 b 533 897 460 813 481 844 b 607 958 560 924 583 943 b 644 981 640 981 654 989 b 640 974 640 978 639 975 b 638 971 642 972 640 971 b 501 849 619 971 532 893 b 440 676 458 790 440 740 l 440 636 b 435 649 439 636 438 642 b 431 694 432 656 431 674 z m 76 -40 b 68 -51 76 -53 71 -60 b 126 96 61 -33 92 42 b 201 190 142 119 192 183 b 183 165 204 193 196 182 b 85 -4 135 106 100 46 b 76 -40 81 -18 76 -35 z m 693 178 b 694 190 692 196 692 197 b 699 149 697 186 699 168 b 669 54 699 110 693 90 b 651 29 661 42 654 31 b 660 44 649 28 653 35 b 693 178 683 81 697 136 z m 754 529 b 660 444 731 506 688 468 b 606 403 631 422 607 403 b 636 432 603 403 608 408 b 776 553 668 457 747 525 b 754 529 789 564 779 554 z m -37 65 b -37 85 -36 79 -36 86 b -43 53 -39 82 -42 68 b -14 -54 -46 7 -36 -29 b -12 -50 -1 -69 -1 -65 b -37 65 -32 -25 -43 22 z m 271 267 b 249 240 282 276 272 265 b 207 197 226 217 207 197 b 271 267 204 197 251 247 z m 838 1189 b 878 1197 867 1193 878 1196 b 840 1193 878 1201 860 1199 b 838 1189 828 1188 826 1188 z m 457 988 b 471 1001 464 996 471 1001 b 460 988 472 1001 467 996 b 446 975 453 981 446 975 b 457 988 444 975 450 981 z m 818 1185 b 822 1188 821 1185 824 1186 b 815 1190 821 1189 818 1190 b 811 1188 813 1190 811 1189 b 818 1185 811 1186 814 1185 z m 658 992 b 665 994 661 993 665 994 b 658 988 665 993 661 990 b 651 985 654 983 651 983 b 658 992 651 986 654 989 z m 803 1181 b 806 1185 806 1181 807 1182 b 800 1188 804 1186 803 1188 b 797 1185 799 1188 797 1186 b 803 1181 797 1182 800 1181 z m 72 -67 b 68 -67 71 -69 71 -69 b 72 -60 65 -61 68 -57 z m 350 811 b 351 819 351 813 353 817 b 347 815 350 821 349 819 b 350 811 346 810 347 808 z m 824 601 b 815 593 819 596 815 593 b 821 601 814 593 817 596 b 831 608 825 606 829 608 z m 347 340 b 354 346 350 343 354 346 b 350 340 356 346 354 343 b 343 333 347 336 343 333 b 347 340 342 333 344 336 z m 349 729 b 353 725 349 726 350 725 b 356 726 354 725 356 726 b 353 731 356 728 354 729 b 349 729 350 732 349 731 z m 106 -62 b 104 -65 104 -62 103 -64 b 108 -69 106 -68 107 -69 b 110 -65 108 -69 110 -68 b 106 -62 110 -64 108 -62 z m 890 699 b 894 703 892 699 894 700 b 893 706 894 704 893 706 b 889 703 892 706 890 704 b 890 699 888 700 889 699 z m 360 854 b 358 857 361 857 361 858 b 356 851 357 856 356 853 b 360 854 356 847 358 847 z m 371 4 b 374 3 368 1 368 1 b 378 7 376 4 378 6 b 371 4 376 8 374 7 z m 644 19 b 638 15 640 14 638 13 b 644 21 638 17 640 18 b 644 19 649 25 649 25 z m 347 778 b 347 788 349 781 349 785 b 346 783 347 790 346 789 b 347 778 346 778 347 775 z m 354 831 b 354 839 356 833 356 838 b 353 835 353 842 353 840 b 354 831 353 831 353 829 z m 408 597 b 404 601 407 596 406 599 b 406 603 401 606 403 607 b 408 597 408 601 408 599 z "},"9":{"ha":851,"x_min":0,"x_max":0,"o":"m 1003 1050 b 985 1079 996 1056 990 1064 b 958 1126 974 1113 967 1126 b 957 1133 953 1126 953 1126 b 946 1144 961 1142 956 1147 b 842 1074 936 1142 871 1097 b 817 1058 829 1063 818 1057 l 799 1072 b 383 1075 708 1133 531 1135 b 60 808 253 1022 125 917 b 14 708 44 782 21 732 b 17 542 -4 654 -3 571 b 21 532 19 538 21 533 b 1 554 21 528 10 540 b -8 567 -4 563 -8 568 b 13 533 -8 561 6 540 l 46 508 b 96 468 61 499 83 479 b 186 429 131 436 142 431 b 251 438 221 428 225 428 b 282 446 267 443 281 447 b 285 449 283 444 285 446 b 288 449 285 453 285 453 b 290 447 289 444 290 444 b 317 463 290 451 307 461 b 331 469 321 463 326 467 b 321 447 342 479 339 474 b 210 260 283 392 238 314 b 124 3 163 165 132 76 b 124 18 122 -4 122 3 b 200 249 126 71 151 150 b 225 304 214 276 225 301 l 232 313 b 238 324 235 317 238 321 b 240 328 238 326 239 328 b 251 344 242 328 246 336 b 261 376 261 363 267 381 b 257 371 260 375 257 374 b 239 340 257 368 256 365 b 221 308 235 335 226 321 b 206 279 215 296 208 283 b 151 161 194 258 164 194 b 122 -100 114 65 106 -17 b 149 -158 129 -129 143 -161 b 150 -161 151 -157 151 -158 b 201 -208 144 -176 175 -204 b 217 -214 208 -210 215 -212 b 231 -212 219 -218 226 -217 b 231 -206 233 -208 233 -207 b 217 -167 225 -201 218 -181 b 314 68 215 -119 263 -6 b 324 85 319 75 324 83 b 326 90 324 88 325 89 b 351 124 328 90 339 106 b 464 278 390 181 410 208 b 642 503 519 353 606 461 l 690 560 b 717 592 703 576 715 590 b 747 629 718 592 732 610 l 801 696 b 832 732 804 697 817 714 b 922 850 889 806 918 843 b 929 860 925 856 928 860 b 958 906 932 863 958 903 b 965 915 958 907 963 911 b 971 928 969 921 971 925 b 972 931 969 929 969 931 b 993 968 974 931 983 947 b 1013 1024 1010 1000 1013 1008 b 1003 1050 1013 1042 1011 1043 z m 493 710 b 486 714 490 713 488 714 b 481 696 485 714 479 701 b 476 696 481 694 479 694 b 471 693 475 697 472 696 b 467 689 471 690 468 689 b 460 685 465 690 463 688 b 451 678 457 681 453 678 b 447 675 449 678 447 676 b 403 643 447 672 428 658 l 354 611 b 349 607 353 610 350 607 b 329 597 347 607 339 603 b 219 543 308 583 235 547 b 215 542 218 542 217 542 b 210 540 214 540 211 540 b 207 538 208 540 207 539 b 203 536 207 536 206 535 b 197 533 200 536 197 536 b 193 532 197 532 196 532 b 186 531 190 533 188 533 b 178 528 185 529 182 528 b 164 526 175 528 169 528 b 122 524 142 522 126 521 b 157 632 113 531 132 590 b 600 938 238 765 407 883 b 715 960 628 946 713 961 b 646 888 715 958 685 926 b 558 796 607 849 568 807 l 532 767 b 506 736 526 760 514 747 b 494 711 493 719 492 715 b 493 710 497 707 497 707 z m 700 906 b 608 808 669 874 628 831 b 546 750 588 788 560 761 l 514 725 b 497 718 507 717 497 713 b 500 721 497 719 499 721 b 521 744 506 721 524 742 b 521 747 519 747 519 747 b 536 758 522 746 529 750 b 669 897 564 789 615 842 b 740 960 715 944 731 957 b 754 963 747 963 754 964 b 700 906 756 963 731 936 z m 1001 1024 b 800 735 997 988 922 879 b 764 694 781 713 765 694 b 790 728 763 694 785 724 b 894 858 793 731 875 832 b 994 1017 939 917 983 988 b 1001 1024 1003 1038 1003 1038 z m 101 528 b 103 572 96 528 97 550 b 174 700 113 608 150 678 b 163 682 178 706 174 697 b 104 538 131 633 104 569 b 101 528 104 532 103 528 z m 831 1053 b 838 1053 832 1056 835 1056 b 863 1065 840 1050 847 1054 b 879 1082 874 1074 881 1082 b 857 1069 878 1083 867 1078 b 840 1060 847 1061 839 1057 b 949 1135 847 1069 944 1138 b 913 1106 951 1132 942 1124 b 883 1085 894 1096 883 1086 b 867 1064 885 1082 876 1074 b 838 1044 836 1039 835 1038 b 833 1050 839 1047 838 1050 b 831 1053 831 1050 829 1051 z m 301 429 b 314 454 321 454 328 471 b 281 406 299 436 281 411 b 301 429 281 399 279 399 z m 146 -154 b 122 -53 139 -154 121 -81 b 126 -68 122 -39 122 -42 b 144 -147 131 -100 139 -137 b 146 -154 147 -151 147 -154 z m 213 -193 b 207 -181 213 -193 210 -189 b 207 -143 204 -171 204 -161 l 211 -118 l 208 -143 b 211 -181 208 -157 208 -174 b 213 -193 213 -186 214 -192 z m 217 -103 b 213 -117 215 -110 213 -117 b 218 -93 208 -119 215 -96 b 217 -103 219 -90 219 -96 z m 275 394 l 278 403 l 272 394 b 268 383 269 390 268 385 b 275 394 267 378 274 386 z m 246 374 b 249 382 249 376 250 381 b 240 369 247 383 242 375 b 246 374 240 368 243 369 z m 188 719 b 197 728 192 724 196 728 b 190 719 199 728 196 724 b 182 711 186 714 182 711 b 188 719 181 711 183 714 z m 218 -83 b 221 -74 218 -81 219 -76 b 224 -72 222 -71 224 -71 b 218 -83 224 -78 218 -89 z m 743 667 l 738 661 b 742 668 735 661 736 664 b 743 667 747 672 747 672 z m 760 686 l 754 681 b 758 688 751 681 753 683 b 760 686 764 692 764 692 z "},"\u0000":{"ha":0,"x_min":0,"x_max":0,"o":""},"\r":{"ha":417,"x_min":0,"x_max":0,"o":""}," ":{"ha":417,"x_min":0,"x_max":0,"o":""},"e":{"ha":575,"x_min":0,"x_max":0,"o":"m 646 408 b 556 347 638 425 626 418 b 347 175 482 276 414 218 b 197 94 303 144 226 104 b 175 82 181 89 168 82 b 231 103 179 82 225 100 b 236 106 232 104 235 106 b 275 125 238 106 254 114 b 404 207 317 146 369 179 b 426 222 417 217 426 224 b 314 139 426 218 358 168 b 131 67 246 93 176 67 b 106 78 111 67 110 68 b 142 221 94 101 111 163 b 219 282 171 276 168 275 b 338 313 274 289 299 294 b 439 372 375 329 394 340 b 531 456 479 403 507 428 b 547 478 539 467 547 476 b 579 529 553 482 574 517 b 585 556 582 538 585 549 b 588 568 585 563 586 568 b 592 533 593 568 596 546 b 593 531 588 524 589 524 b 590 575 601 542 600 563 b 568 614 585 581 575 599 b 483 710 550 653 507 701 b 374 703 461 718 408 715 b 228 629 339 692 264 653 b 56 461 176 596 97 518 b -17 318 19 410 -8 353 l -25 282 b -28 257 -29 268 -31 258 b -22 272 -26 254 -24 260 b -17 296 -21 283 -18 294 b -14 301 -15 297 -14 300 b -10 314 -14 303 -12 308 b -6 326 -7 319 -6 325 b 67 457 -6 335 47 431 b 233 619 103 507 190 592 b 390 697 279 651 354 688 b 488 700 429 707 471 708 b 500 692 494 696 500 693 b 469 693 500 692 486 692 b 326 653 426 694 390 685 b 104 482 231 607 169 560 b -21 249 39 406 -8 318 b -26 242 -22 244 -24 242 b -22 161 -32 243 -29 197 b 67 44 -11 108 19 67 b 106 24 81 39 97 29 b 133 10 113 19 125 13 b 246 17 154 1 208 6 b 379 85 288 31 369 72 l 397 99 b 418 113 407 104 415 111 b 436 129 419 115 428 124 b 467 157 444 136 458 147 b 493 178 476 165 488 175 l 500 185 b 519 207 499 185 507 194 b 611 308 565 253 607 300 b 618 317 613 313 617 317 b 638 346 619 317 628 329 b 646 408 654 376 657 389 z m 286 424 b 300 429 299 433 304 436 b 301 426 299 428 300 426 b 306 438 307 426 310 438 b 326 456 299 438 321 456 b 329 449 329 456 331 453 b 333 449 326 443 326 443 b 343 456 336 453 340 456 b 346 461 344 456 346 458 b 350 467 346 464 349 467 b 353 474 353 467 354 469 b 356 478 351 478 353 479 b 361 482 358 478 361 479 b 369 483 361 489 367 490 b 372 483 371 481 371 481 b 375 486 372 486 374 488 b 376 492 376 486 378 488 b 381 497 375 497 376 499 b 385 499 386 494 388 496 b 388 501 382 503 383 503 b 392 503 392 500 393 501 b 401 514 392 504 394 510 b 417 517 413 522 421 524 b 419 515 415 514 417 514 b 422 522 422 517 422 521 b 453 542 419 529 447 544 b 454 543 456 539 456 540 b 464 547 453 546 457 549 b 467 550 465 547 467 549 b 472 556 467 551 469 554 b 471 547 478 557 476 556 b 349 443 454 525 390 469 l 315 421 b 292 414 310 417 299 414 b 276 410 285 414 278 411 b 274 410 274 407 274 407 b 286 424 274 413 279 418 z m 446 504 b 306 399 442 490 357 428 b 268 381 293 392 275 383 l 253 375 l 261 382 b 299 404 267 386 282 396 b 417 483 342 429 382 456 b 446 504 435 499 447 507 z m 94 94 b 96 71 94 81 96 71 b 90 75 94 71 93 72 b 93 151 83 82 85 121 b 158 276 107 197 154 289 b 156 268 160 274 158 269 b 153 265 153 267 151 265 b 149 258 154 265 153 261 b 101 150 138 246 110 183 b 94 94 96 128 93 110 z m 338 468 b 344 467 346 476 353 475 b 335 458 340 463 336 458 b 338 468 331 458 331 461 z m 401 503 b 411 515 404 503 414 514 b 404 510 411 515 407 514 b 401 503 400 506 399 503 z m 321 439 b 317 443 321 442 319 443 b 315 436 315 442 314 439 b 321 439 318 432 321 432 z m 257 397 b 258 396 263 401 264 401 b 253 389 256 392 253 389 b 257 397 250 389 251 392 z "},"f":{"ha":622,"x_min":0,"x_max":0,"o":"m 588 269 b 586 267 585 269 585 268 l 586 263 b 613 278 596 265 610 275 b 619 281 613 279 617 281 b 638 290 622 281 631 285 b 651 300 643 296 650 300 b 721 349 656 300 711 339 b 740 407 740 369 744 383 b 729 428 738 422 735 428 b 721 424 726 428 722 426 b 650 378 718 419 675 390 l 619 361 b 513 307 608 354 517 307 b 494 300 511 307 503 304 b 422 272 481 293 444 279 b 415 269 421 272 418 271 b 222 228 389 258 264 232 l 174 224 b 146 226 158 222 149 224 b 147 235 140 231 142 239 b 160 247 150 235 156 239 b 165 263 167 256 168 261 b 171 268 164 264 165 267 b 174 274 178 269 178 271 b 175 278 168 276 169 278 b 181 283 178 278 181 281 b 185 286 181 286 182 288 b 185 290 188 285 188 286 b 183 294 181 294 181 296 b 188 296 186 293 188 293 b 193 297 188 299 190 299 b 192 301 196 296 194 297 b 190 306 189 306 188 307 b 196 307 193 304 196 304 b 200 308 196 308 197 310 b 201 310 203 307 203 307 b 204 317 200 313 201 315 b 206 324 208 318 210 319 b 197 321 200 331 194 329 b 194 315 199 317 199 315 b 183 307 192 317 188 313 l 154 265 b 133 229 143 249 133 233 b 126 224 133 226 129 224 b 131 244 117 222 117 224 b 242 415 171 304 225 386 b 307 547 265 453 299 519 b 311 640 317 574 318 615 b 251 731 301 681 271 725 b 246 739 246 732 244 735 b 235 747 247 747 240 753 b 235 743 232 743 232 743 b 239 739 238 743 239 740 b 222 719 239 732 226 718 b 217 704 219 721 218 714 b 147 571 214 681 194 644 b -43 310 111 515 -33 315 b -74 317 -46 308 -60 311 b -146 321 -104 325 -125 328 b -151 324 -157 318 -157 318 b -135 329 -147 326 -140 329 b -133 331 -126 329 -126 331 b -160 318 -144 333 -160 326 b -165 308 -160 314 -162 310 b -137 263 -176 304 -169 293 b -106 228 -119 244 -106 229 b -136 183 -106 228 -119 207 b -351 -206 -244 36 -318 -97 b -372 -321 -361 -239 -372 -299 b -347 -397 -372 -349 -360 -385 b -285 -431 -336 -408 -308 -424 l -256 -447 b -233 -460 -249 -453 -237 -458 b -186 -449 -221 -461 -192 -456 b -176 -444 -183 -446 -179 -444 b -169 -439 -174 -444 -171 -442 b -162 -433 -168 -436 -165 -433 b -147 -419 -160 -433 -153 -428 b -135 -410 -142 -412 -136 -408 b -129 -403 -133 -410 -131 -407 b -118 -394 -126 -399 -122 -394 b -115 -390 -115 -396 -114 -393 b -112 -387 -117 -386 -115 -385 b -111 -383 -110 -389 -110 -387 b -108 -381 -112 -379 -112 -378 b -106 -381 -106 -382 -104 -382 b -104 -371 -107 -378 -107 -375 b -104 -368 -100 -367 -100 -367 b -108 -368 -107 -369 -108 -369 b -104 -364 -108 -365 -107 -364 b -93 -357 -101 -364 -96 -361 b -94 -354 -89 -351 -89 -351 b -87 -346 -97 -356 -94 -353 b -75 -326 -81 -340 -75 -332 b -72 -321 -75 -322 -74 -319 b -68 -315 -69 -322 -68 -321 b -65 -310 -68 -311 -67 -310 b -57 -306 -62 -311 -60 -310 b -57 -297 -54 -300 -54 -297 b -47 -282 -61 -297 -60 -294 b -43 -274 -44 -279 -43 -275 b -36 -265 -43 -272 -40 -268 b -35 -262 -33 -262 -32 -261 b -36 -260 -37 -264 -37 -262 b -32 -256 -36 -257 -33 -254 b -22 -235 -29 -257 -25 -250 b -15 -222 -21 -231 -18 -224 b -10 -215 -12 -219 -10 -217 b 3 -186 -8 -212 -4 -200 b 43 -85 25 -140 28 -133 b 74 86 64 -19 75 38 b 83 67 71 146 79 131 b 85 74 83 53 85 54 b 82 115 85 89 83 107 b 83 135 81 125 81 132 b 82 143 86 136 85 140 b 117 150 75 151 82 153 b 296 160 196 146 258 149 b 343 168 310 164 339 169 b 346 171 344 168 346 169 b 354 175 346 174 349 175 b 365 175 358 175 364 174 l 369 175 b 378 181 371 175 374 178 b 392 185 381 183 388 186 b 400 186 397 183 400 185 b 406 189 400 189 403 189 b 421 192 408 188 415 189 b 431 194 425 194 431 196 b 438 200 431 193 433 196 b 443 204 442 206 444 207 b 449 200 442 199 443 199 b 454 206 451 200 454 203 b 458 208 454 208 456 210 b 463 213 461 208 463 210 b 467 213 463 215 464 215 b 478 214 471 208 474 210 b 485 217 482 217 485 218 b 492 219 485 215 488 217 b 510 226 497 226 499 226 b 518 232 514 226 518 229 b 522 239 518 235 519 238 b 524 238 525 240 525 240 b 536 239 519 232 524 232 b 547 243 542 242 547 243 b 561 249 547 242 554 244 b 576 260 569 253 576 257 b 579 261 576 261 578 263 b 583 263 581 260 582 261 b 582 267 583 263 582 264 b 590 272 579 269 586 275 b 588 269 592 271 590 269 z m 7 54 b 0 21 4 43 0 29 b -106 -211 -8 -35 -54 -133 b -232 -353 -151 -279 -226 -364 b -246 -361 -236 -349 -240 -351 b -254 -369 -249 -365 -251 -369 b -224 -283 -261 -372 -244 -328 b -203 -236 -211 -260 -203 -239 b -200 -233 -203 -233 -201 -232 b -167 -181 -197 -233 -167 -186 b -164 -176 -167 -179 -167 -176 b -107 -85 -158 -174 -104 -89 b -106 -82 -108 -83 -107 -82 b -101 -81 -104 -83 -101 -82 b -99 -75 -101 -78 -100 -76 b -11 46 -94 -72 -28 19 b -1 60 -10 49 -6 56 b 6 69 1 63 6 68 b 8 72 6 71 7 72 b 7 54 10 72 10 64 z m 307 514 b 282 463 306 506 290 476 b 269 442 276 454 271 446 l 257 421 b 247 404 251 413 247 406 b 228 374 247 403 239 389 b 211 342 217 358 210 344 b 218 338 213 338 215 336 b 219 346 219 339 221 343 b 222 350 218 349 219 350 b 225 356 225 349 226 351 b 228 360 225 360 226 361 b 232 363 231 358 232 360 b 240 371 232 367 236 369 b 243 376 246 372 246 374 b 244 381 240 378 240 379 b 250 388 247 382 250 385 b 256 396 249 389 251 393 b 258 400 260 400 261 401 b 260 406 254 399 256 401 b 265 419 264 411 267 417 b 268 422 265 424 265 424 b 271 424 272 421 272 421 b 274 431 269 425 271 428 b 290 457 276 432 283 444 l 306 486 b 335 572 315 501 331 551 b 325 639 339 599 335 629 b 324 629 317 647 317 644 b 318 544 333 610 332 583 b 307 514 313 529 308 515 z m 24 361 b -26 296 -3 325 -25 296 b 28 376 -29 296 -28 299 b 190 622 93 465 153 557 b 213 651 224 679 231 690 b 24 361 182 592 114 488 z m -186 -243 b -187 -246 -187 -243 -189 -244 b -193 -251 -186 -249 -189 -250 b -197 -261 -197 -253 -199 -256 b -201 -267 -196 -268 -197 -269 b -206 -268 -206 -265 -207 -267 b -211 -279 -204 -271 -207 -275 b -215 -294 -215 -283 -217 -289 b -218 -300 -214 -300 -215 -301 b -222 -307 -221 -299 -222 -300 b -228 -318 -222 -312 -225 -317 b -231 -325 -231 -319 -232 -322 b -233 -331 -229 -328 -231 -331 b -233 -335 -237 -331 -237 -332 b -235 -340 -229 -337 -229 -337 b -240 -346 -237 -342 -240 -344 b -236 -349 -240 -347 -239 -349 b -219 -321 -233 -347 -226 -335 b -199 -278 -214 -307 -204 -287 b -192 -261 -193 -268 -190 -261 b -187 -256 -193 -261 -190 -258 b -186 -243 -181 -249 -181 -243 z m -43 -28 b -57 -36 -50 -22 -56 -26 b -64 -47 -57 -39 -61 -44 b -67 -53 -68 -50 -69 -53 b -68 -60 -65 -53 -67 -56 b -75 -67 -71 -64 -74 -67 b -86 -71 -82 -65 -86 -67 b -110 -108 -86 -75 -106 -104 b -108 -111 -112 -110 -111 -111 b -101 -106 -104 -111 -101 -108 b -97 -100 -101 -103 -100 -100 b -94 -96 -96 -100 -94 -99 b -89 -90 -96 -93 -93 -90 b -86 -92 -85 -89 -83 -90 b -90 -97 -89 -92 -90 -94 b -79 -89 -90 -101 -83 -97 b -83 -83 -75 -82 -76 -81 b -89 -82 -89 -85 -90 -85 b -81 -78 -87 -79 -83 -78 b -68 -65 -78 -78 -72 -72 b -56 -54 -64 -57 -58 -53 b -54 -54 -54 -56 -53 -56 b -51 -46 -56 -53 -54 -49 b -49 -43 -47 -43 -47 -42 b -51 -40 -51 -44 -53 -43 b -46 -36 -50 -36 -47 -35 b -43 -28 -42 -39 -39 -32 z m -149 -287 b -215 -362 -168 -315 -194 -346 b -237 -378 -226 -371 -236 -378 b -222 -358 -243 -378 -235 -367 b -151 -286 -208 -349 -178 -318 l -137 -271 z m -337 -400 b -346 -390 -339 -400 -342 -396 b -364 -317 -358 -376 -365 -347 l -364 -289 l -358 -326 b -346 -383 -356 -351 -350 -372 b -337 -400 -340 -392 -337 -400 z m -114 -125 b -131 -137 -119 -125 -125 -129 b -136 -151 -135 -143 -136 -150 b -121 -150 -133 -156 -124 -156 b -122 -149 -119 -149 -119 -147 b -129 -147 -125 -150 -128 -150 b -124 -144 -131 -146 -128 -144 b -118 -135 -114 -144 -110 -137 b -117 -133 -124 -135 -124 -133 b -114 -125 -106 -133 -103 -125 z m -129 -160 b -136 -158 -132 -161 -135 -161 b -143 -162 -140 -151 -146 -154 b -144 -168 -142 -168 -142 -169 b -151 -169 -147 -167 -150 -168 b -150 -172 -153 -172 -153 -174 b -144 -182 -146 -169 -143 -174 b -142 -182 -146 -183 -144 -183 b -140 -174 -140 -181 -139 -178 b -139 -171 -142 -171 -142 -169 b -136 -167 -136 -172 -135 -171 b -135 -164 -139 -162 -137 -161 b -128 -161 -133 -165 -131 -164 b -129 -160 -126 -160 -128 -158 z m -10 35 b -10 33 -11 35 -12 35 b -14 24 -8 32 -10 28 b -18 19 -19 19 -21 18 b -17 13 -12 22 -11 15 b -21 6 -19 11 -21 7 b -17 7 -21 3 -19 3 b -14 8 -15 10 -14 11 b -10 8 -14 7 -11 7 b -10 18 -7 10 -7 13 b -8 25 -12 24 -12 25 b -10 35 -1 25 -3 33 z m -332 -192 b -343 -214 -337 -207 -343 -217 b -322 -162 -343 -208 -324 -161 b -332 -192 -322 -164 -326 -176 z m -281 -82 b -290 -96 -285 -89 -289 -96 b -285 -82 -292 -96 -289 -89 b -275 -67 -281 -74 -276 -67 b -281 -82 -274 -67 -276 -74 z m -160 -197 b -164 -206 -160 -203 -162 -206 b -165 -210 -167 -206 -167 -208 b -156 -196 -161 -217 -153 -203 b -160 -197 -157 -190 -158 -192 z m -119 -119 b -111 -122 -119 -121 -117 -122 b -100 -118 -106 -122 -100 -119 b -119 -119 -97 -114 -115 -115 z m 204 331 b 211 328 206 325 207 325 b 211 336 214 332 214 333 b 204 331 206 342 201 338 z m -253 -386 b -258 -385 -258 -389 -258 -389 b -253 -376 -258 -382 -257 -378 b -247 -378 -250 -376 -247 -376 b -253 -386 -247 -379 -250 -383 z m -314 -147 b -321 -157 -318 -154 -321 -158 b -314 -140 -321 -154 -318 -147 b -307 -131 -310 -133 -307 -129 b -314 -147 -307 -133 -310 -140 z m -39 -12 b -44 -21 -43 -15 -44 -18 b -32 -11 -42 -24 -32 -17 b -39 -12 -32 -10 -35 -10 z m -175 94 b -165 106 -171 100 -165 106 b -171 94 -164 106 -167 100 b -181 83 -175 89 -179 83 b -175 94 -182 83 -179 89 z m -172 -215 b -176 -218 -176 -214 -178 -215 b -168 -221 -175 -219 -171 -221 b -172 -215 -161 -221 -165 -217 z m -176 -224 b -179 -225 -181 -221 -182 -221 b -174 -232 -179 -229 -176 -232 b -176 -224 -169 -232 -169 -229 z m 75 -10 b 71 -14 72 -8 71 -10 b 76 -15 71 -19 74 -21 b 75 -10 78 -14 76 -11 z m -151 -179 b -157 -182 -153 -182 -156 -183 b -158 -183 -160 -181 -160 -181 b -149 -179 -156 -189 -149 -186 b -151 -179 -150 -176 -150 -176 z m 601 278 b 594 275 597 275 594 275 b 601 281 594 276 597 279 b 610 283 606 283 610 285 b 601 278 610 282 606 279 z m -244 -12 l -239 -4 b -240 -12 -237 -4 -239 -8 b -246 -19 -243 -17 -246 -19 b -244 -12 -247 -19 -246 -17 z m -181 -233 b -183 -235 -183 -233 -185 -233 b -178 -239 -182 -237 -181 -239 b -181 -233 -172 -239 -174 -236 z m -112 178 b -118 171 -114 174 -118 171 b -114 179 -121 171 -119 174 b -112 178 -107 183 -107 183 z m -106 208 b -104 207 -100 213 -100 213 b -112 201 -110 201 -112 199 b -106 208 -112 203 -110 206 z m -93 -104 b -97 -107 -96 -104 -97 -106 b -96 -111 -97 -110 -97 -111 b -92 -107 -94 -111 -93 -110 b -93 -104 -90 -106 -92 -104 z m -79 -74 b -81 -71 -82 -74 -82 -72 b -78 -67 -79 -68 -78 -67 b -75 -71 -76 -67 -75 -68 b -79 -74 -75 -72 -78 -74 z m -117 193 b -115 192 -111 199 -111 199 b -124 188 -121 186 -124 185 b -117 193 -124 188 -121 190 z m -124 164 b -122 163 -118 169 -118 169 b -131 158 -128 157 -131 156 b -124 164 -131 158 -128 161 z m -143 139 b -142 138 -136 143 -136 143 b -147 131 -144 133 -147 131 b -143 139 -150 131 -149 133 z m -112 329 b -106 331 -106 329 -103 331 b -118 331 -110 332 -115 332 b -112 329 -122 331 -119 329 z m -93 207 b -87 213 -90 211 -87 214 b -92 206 -86 213 -89 208 b -93 207 -99 199 -99 199 z m -101 192 l -107 186 b -103 193 -110 186 -108 189 b -101 192 -96 199 -96 199 z m 76 18 b 79 17 75 14 75 13 b 81 24 81 19 82 22 b 76 18 81 24 78 22 z m 629 294 b 626 296 624 292 624 293 b 633 299 629 299 632 300 b 629 294 635 297 632 296 z m -87 269 b -81 268 -85 269 -82 269 b -85 267 -79 268 -82 267 b -87 269 -89 267 -90 268 z "},"g":{"ha":940,"x_min":0,"x_max":0,"o":"m 1006 344 b 1000 371 1004 357 1003 369 b 917 381 993 378 943 383 b 728 342 851 374 778 357 b 700 335 714 336 701 333 b 708 364 699 336 703 349 b 715 578 739 451 743 533 b 697 628 710 586 701 608 b 668 692 688 664 681 678 b 646 700 661 700 658 701 b 596 681 628 697 596 685 b 578 660 596 676 582 660 b 585 669 575 660 579 664 b 590 679 590 675 593 679 b 560 646 586 678 560 650 b 568 653 561 644 564 647 b 575 657 572 657 575 660 b 568 647 575 656 572 651 b 542 656 563 642 561 643 b 426 683 501 681 485 685 b 332 667 376 682 375 682 b 125 544 247 635 178 594 b 97 524 111 532 99 522 b 96 521 96 525 94 524 b 89 508 97 519 94 514 b 63 478 83 504 71 489 l 44 453 b -17 303 28 438 -12 342 b -15 235 -19 275 -19 239 b -14 251 -12 232 -12 238 b -12 289 -15 263 -14 279 b -7 268 -10 306 -10 304 b 1 214 -6 247 -1 224 b 69 157 11 190 36 169 b 110 140 86 151 104 143 b 347 247 163 111 256 153 b 464 390 383 285 407 313 b 571 526 517 463 568 528 b 482 358 572 524 503 392 b 413 242 442 297 410 242 b 410 236 414 242 413 239 b 408 231 407 233 407 231 b 424 251 410 231 415 240 b 438 272 431 263 436 272 b 406 214 439 272 411 221 b 404 207 403 211 403 208 b 396 194 404 206 401 200 b 394 206 382 178 382 183 b 401 222 407 225 410 231 b 396 213 399 219 396 215 b 392 208 396 211 393 208 b 383 199 390 208 386 204 b 351 163 378 188 358 164 b 342 156 349 163 344 160 b 339 156 338 153 338 153 b 335 157 340 160 340 160 b 325 146 331 154 326 150 b 317 142 324 143 319 142 b 313 142 314 143 311 143 b 310 136 314 139 313 138 b 306 138 306 133 304 135 b 297 131 308 140 304 138 b 279 119 290 124 282 118 b 276 118 276 121 275 119 b 268 110 278 117 274 113 b 246 96 263 107 253 101 b 235 90 240 90 235 88 b 229 86 235 92 232 90 b 196 61 228 83 213 72 b 156 33 179 51 161 39 l 142 24 l 135 19 b 89 -12 131 14 96 -10 b 82 -19 83 -14 82 -17 b 75 -25 83 -21 81 -24 b 67 -29 69 -26 67 -28 b 32 -54 71 -32 36 -56 b 31 -54 29 -53 29 -53 b 7 -79 32 -56 21 -67 b -165 -258 -37 -114 -122 -204 b -206 -331 -176 -272 -201 -317 b -197 -400 -211 -351 -208 -386 b -112 -447 -189 -412 -131 -444 b -103 -450 -108 -447 -104 -449 b -75 -450 -101 -451 -89 -451 b 153 -358 -17 -447 67 -414 b 278 -254 196 -329 224 -306 b 297 -236 288 -243 297 -235 b 344 -189 299 -236 319 -215 b 388 -136 379 -154 390 -139 b 392 -135 385 -133 386 -133 b 399 -133 396 -136 399 -135 b 417 -110 399 -131 407 -121 l 444 -78 b 453 -62 450 -72 453 -64 b 456 -60 451 -60 453 -58 b 472 -42 457 -60 465 -53 b 488 -24 479 -32 486 -24 b 490 -19 489 -24 490 -22 b 494 -11 490 -18 492 -14 l 507 4 b 546 63 522 22 546 58 b 551 68 546 64 549 67 b 557 74 554 69 557 72 b 560 82 557 76 558 79 b 586 124 569 92 586 119 b 589 129 586 126 588 129 b 635 204 593 132 614 165 b 674 244 653 236 653 236 b 693 257 686 250 694 256 b 694 258 692 260 693 260 b 776 289 700 256 774 282 b 781 289 779 292 781 292 b 793 289 781 286 783 286 b 804 296 800 290 804 294 b 808 297 803 297 804 297 b 821 300 813 297 817 297 b 840 306 824 301 832 304 b 857 311 849 307 856 308 b 868 314 858 313 863 314 b 911 322 874 314 893 318 b 1001 324 946 329 988 329 b 1006 344 1008 321 1008 322 z m 472 540 b 388 431 453 517 397 446 b 364 400 382 422 371 408 b 356 389 356 392 353 388 b 344 374 358 390 353 383 b 328 358 329 354 322 349 b 289 322 329 361 313 344 b 168 226 239 274 201 243 b 150 214 156 219 147 214 b 225 257 160 214 200 238 b 288 313 239 268 267 293 b 325 349 307 333 324 349 b 219 244 328 346 242 261 b 139 200 189 222 160 206 l 115 192 b 111 194 111 190 110 192 b 128 204 111 197 119 201 b 143 210 136 206 143 208 b 131 210 143 211 138 211 b 111 222 111 203 110 204 b 139 290 113 238 132 285 b 146 301 140 292 144 296 b 339 488 171 350 304 478 b 347 493 344 489 347 492 b 369 504 347 497 367 506 b 374 507 371 504 372 506 b 407 525 376 511 404 525 b 410 528 408 524 410 525 b 417 532 410 529 414 532 b 426 536 421 532 425 533 b 432 538 428 538 431 539 b 436 539 435 536 436 538 b 444 543 436 542 439 543 b 456 547 449 543 454 544 b 467 551 458 549 463 551 l 479 556 b 472 540 486 561 483 554 z m 215 -87 b -86 -369 126 -204 -3 -326 b -137 -387 -117 -386 -143 -394 l -133 -372 b 117 -90 -126 -317 -22 -200 b 249 6 163 -53 246 7 b 81 -207 253 1 133 -151 b -87 -351 38 -253 -57 -335 b -90 -358 -90 -354 -92 -357 b -82 -354 -89 -360 -85 -358 b -71 -349 -78 -351 -72 -349 b 14 -282 -67 -349 -28 -318 b 243 -21 86 -222 158 -137 b 296 36 274 21 290 40 b 215 -87 297 35 238 -57 z m 442 250 l 414 204 b 418 222 408 199 413 217 b 419 228 419 225 421 228 b 424 235 418 228 421 231 b 438 256 428 239 433 249 l 461 294 b 568 500 481 326 544 450 b 597 547 590 547 592 549 b 600 551 599 547 600 549 b 607 563 600 554 603 560 b 442 250 621 574 507 358 z m 679 332 b 668 324 672 319 664 314 b 683 369 668 328 675 349 b 713 501 700 417 710 460 b 718 522 715 525 717 531 b 715 446 722 503 722 474 b 679 332 710 419 688 350 z m 92 201 b 93 236 86 201 88 214 b 117 293 97 254 113 289 l 128 310 b 150 339 140 331 150 344 b 143 328 150 338 147 332 b 129 306 140 324 133 314 b 121 290 126 299 122 292 b 96 211 117 286 96 221 b 92 201 96 206 93 201 z m 604 188 b 590 165 599 175 592 165 b 619 219 589 165 614 214 b 604 188 625 225 618 211 z m 56 450 b 36 417 54 446 44 432 b 24 396 28 401 22 392 b 56 451 28 408 51 449 b 56 450 60 454 60 454 z m 72 471 b 60 457 65 464 61 457 b 78 482 57 457 74 479 b 72 471 81 483 78 478 z m 117 542 b 125 551 121 546 125 550 b 117 549 125 553 121 551 b 110 539 113 544 110 540 b 117 542 110 536 113 538 z m -146 -378 b -149 -393 -147 -386 -149 -393 b -146 -369 -151 -397 -150 -378 b -146 -378 -144 -365 -144 -367 z m -101 -358 b -107 -364 -104 -360 -107 -362 b -101 -365 -107 -365 -104 -367 b -96 -360 -97 -364 -96 -361 b -101 -358 -96 -358 -97 -357 z m 90 499 b 99 506 93 503 97 506 b 93 499 99 506 97 503 b 85 490 90 494 86 490 b 90 499 83 490 86 494 z m 163 356 l 171 363 l 163 353 b 154 343 158 349 156 343 l 154 344 b 163 356 154 347 157 351 z m -128 -326 b -126 -329 -126 -325 -125 -326 b -132 -332 -129 -336 -132 -337 b -128 -326 -132 -329 -131 -326 z m 139 565 b 143 569 142 565 143 567 b 142 572 143 571 142 572 b 138 569 140 572 139 571 b 139 565 136 567 136 565 z m 129 554 b 133 558 131 554 132 556 b 132 561 135 560 135 561 b 128 557 129 561 128 560 b 129 554 128 556 129 554 z "},"h":{"ha":878,"x_min":0,"x_max":0,"o":"m 940 424 b 913 424 921 440 913 440 b 846 325 913 411 892 381 b 639 132 779 244 706 176 b 557 94 607 113 567 93 b 576 107 554 96 563 101 b 671 163 600 115 657 150 b 704 189 674 165 689 178 b 732 215 719 201 732 214 b 724 213 732 218 729 217 b 596 122 706 193 626 138 b 549 122 554 100 550 100 b 572 233 547 144 560 203 b 578 254 578 246 579 250 b 581 258 578 256 579 257 b 593 294 585 261 593 288 l 597 301 b 608 336 600 306 610 332 b 614 350 608 338 611 343 l 621 371 b 629 407 622 375 626 392 b 613 514 643 463 638 497 b 593 533 607 518 597 526 l 568 561 b 514 569 550 581 538 582 b 343 458 482 553 365 476 l 299 424 b 224 364 276 407 243 381 b 197 347 189 335 176 328 b 204 363 206 356 208 360 b 207 365 201 364 201 365 b 207 372 214 365 214 365 b 199 374 203 376 200 378 b 193 374 196 369 194 369 b 194 378 192 378 192 379 b 197 381 196 376 197 378 b 203 381 197 383 199 383 b 211 379 206 378 208 378 b 211 376 213 381 213 379 b 214 378 210 374 211 374 b 217 390 217 381 218 388 b 218 394 215 393 217 396 b 238 413 221 392 238 408 b 249 429 238 414 243 422 b 258 449 256 438 260 446 b 261 453 257 451 258 453 b 344 565 264 451 275 465 b 614 971 426 682 575 906 b 667 1149 679 1078 693 1124 b 647 1174 661 1154 653 1165 b 590 1179 632 1197 618 1199 b 569 1160 579 1172 569 1163 b 546 1124 569 1157 558 1140 b 486 1044 532 1107 506 1071 b 446 993 467 1018 449 996 b 503 1074 439 986 465 1024 b 540 1126 525 1101 542 1125 b 531 1118 539 1128 535 1124 l 518 1104 b 421 972 510 1096 456 1022 b 383 924 401 944 385 924 b 382 924 382 925 382 925 b 374 910 385 919 378 907 b 368 907 372 910 369 910 b 369 906 367 904 367 904 b 372 903 374 907 374 907 b 367 899 372 900 369 899 b 364 896 364 900 363 899 b 325 840 368 892 329 838 b 324 839 322 842 322 840 b 275 760 325 836 304 803 b -100 161 154 582 -61 240 b -112 142 -106 150 -111 142 b 3 350 -118 142 -51 261 b 297 801 75 468 269 765 b 314 836 315 825 319 833 b 313 835 313 838 311 838 b 293 806 314 832 311 826 b 289 799 290 803 289 800 b 283 793 289 796 288 793 b 278 785 281 792 278 788 b 275 779 278 782 276 779 l 251 749 b 219 703 240 732 226 711 b -74 240 151 606 -17 340 b -149 50 -128 142 -143 103 b -143 25 -151 26 -151 25 b -136 21 -139 25 -136 24 b -132 19 -136 18 -135 18 b -97 6 -128 21 -128 21 b -56 8 -78 -4 -69 -4 b 26 96 -29 29 29 92 b 28 97 25 97 26 99 b 35 97 31 96 33 96 b 40 100 36 100 39 101 b 44 101 42 99 44 100 b 78 132 44 107 74 133 b 79 135 79 131 81 132 b 132 183 78 139 128 186 b 135 185 135 182 135 183 b 143 197 133 193 136 197 b 156 206 146 197 153 200 b 176 224 160 210 168 218 l 213 257 b 475 456 275 315 469 461 b 456 396 475 456 467 428 b 429 301 444 364 432 322 b 425 181 421 263 419 176 b 431 172 426 182 429 178 b 467 88 440 128 453 100 b 474 75 471 82 475 78 b 478 75 472 74 475 74 b 483 72 481 76 483 75 b 486 71 483 69 485 69 b 492 69 489 71 492 71 b 515 61 493 67 504 64 b 564 47 526 58 549 53 b 643 51 593 38 610 39 b 746 117 672 61 732 100 b 750 119 749 119 750 121 b 814 181 751 117 813 176 b 833 201 814 182 824 192 b 876 257 864 233 879 253 b 878 258 875 258 876 260 b 915 297 882 256 894 269 b 915 301 921 303 921 304 b 921 311 913 300 915 304 b 953 383 938 333 953 369 b 956 393 953 390 953 394 b 956 406 961 389 961 400 b 956 407 951 410 951 410 b 940 424 963 404 961 406 z m 481 429 b 454 354 472 410 461 375 b 438 290 447 333 440 306 b 433 285 432 265 432 265 b 493 467 438 321 486 474 b 481 429 493 467 488 449 z m 608 404 b 617 465 614 424 617 444 b 622 488 617 494 618 496 b 624 451 626 479 626 472 b 601 374 619 429 601 367 b 608 404 601 375 604 389 z m 428 169 b 425 171 429 171 428 171 b 424 161 422 171 422 168 b 436 115 429 136 433 121 b 439 121 442 106 443 108 b 428 169 429 151 426 167 z m 553 1138 b 553 1147 567 1154 567 1161 b 542 1131 547 1142 542 1135 b 553 1138 542 1128 546 1131 z m 664 1125 b 668 1140 665 1136 665 1143 b 669 1128 669 1138 669 1132 b 667 1111 669 1122 668 1115 b 664 1125 665 1107 664 1113 z m 186 363 b 190 364 189 365 190 365 b 194 358 189 356 190 353 b 197 360 196 361 197 361 b 186 354 197 353 193 350 b 186 363 182 357 182 358 z m 331 860 b 342 871 332 860 336 865 b 349 882 347 876 350 882 b 338 871 347 882 342 876 b 331 860 333 865 331 860 z m 94 163 b 88 160 90 160 88 158 b 100 171 88 164 99 174 b 94 163 101 169 99 167 z m 764 244 b 750 233 763 244 756 240 l 738 221 l 751 232 b 764 244 760 238 765 243 z m 239 442 b 243 442 246 446 247 446 b 240 433 240 439 239 435 b 236 435 243 431 240 431 b 239 442 232 436 233 439 z m 224 406 b 225 415 225 408 225 413 b 226 421 224 418 224 421 b 229 415 228 421 229 418 b 224 406 229 411 226 407 z m 774 251 b 781 257 775 251 778 254 b 781 263 783 261 783 263 b 775 257 779 263 776 260 b 774 251 774 254 774 251 z m 119 186 b 113 182 118 183 115 182 b 114 188 111 182 111 185 b 119 186 119 193 122 192 z m 656 1088 b 660 1089 657 1090 660 1090 b 656 1079 660 1086 657 1082 b 651 1078 654 1076 651 1076 b 656 1088 651 1079 654 1083 z m 181 244 b 172 238 178 240 174 238 b 178 244 172 238 174 240 b 186 251 181 249 185 251 b 181 244 188 251 185 249 z m 258 471 b 258 464 260 469 260 467 b 254 468 256 463 254 463 b 258 471 254 472 256 474 z m 138 200 b 133 204 136 200 135 203 b 135 208 132 206 133 208 b 139 204 138 208 139 206 b 138 200 139 203 139 200 z m 439 985 b 440 983 444 989 444 989 b 432 978 435 978 432 975 b 439 985 432 979 435 982 z m 356 892 b 354 893 360 897 360 897 b 347 886 351 890 347 888 b 356 892 347 883 351 886 z m 432 235 b 426 240 431 235 428 236 b 429 242 425 244 425 246 b 432 235 432 239 432 236 z m 828 313 b 826 314 833 319 832 319 l 821 308 b 828 313 821 306 824 307 z m -144 31 b -146 38 -146 29 -146 32 b -144 42 -146 43 -144 46 b -144 31 -143 39 -143 33 z m 40 111 b 39 114 38 108 36 108 b 43 118 40 117 42 119 b 40 111 44 117 43 114 z m 538 104 b 536 111 536 101 535 104 b 538 115 536 117 536 119 z m 263 482 b 269 481 265 482 269 482 b 265 479 271 479 269 479 b 263 482 261 479 260 481 z m 533 126 b 532 131 532 124 532 126 b 533 136 532 136 532 138 b 533 126 535 133 535 129 z m 429 257 b 431 260 429 263 429 263 b 431 253 432 257 432 254 b 429 257 429 251 429 254 z "},"i":{"ha":571,"x_min":0,"x_max":0,"o":"m 663 390 b 653 404 661 390 657 397 b 639 417 649 413 644 417 b 532 329 632 417 599 390 b 274 156 492 294 357 203 b 72 83 200 113 114 82 b 67 86 61 85 60 85 b 232 139 117 92 179 113 b 365 219 279 165 365 215 b 361 219 365 221 363 222 b 83 94 232 140 156 106 b 44 101 51 89 43 90 b 43 108 46 106 44 108 b 39 100 40 108 39 104 b 36 90 39 94 38 90 b 32 100 33 90 32 94 b 51 164 32 110 44 151 b 53 156 58 176 58 172 b 44 135 49 149 46 139 b 40 118 44 129 42 122 b 53 126 36 106 47 114 b 53 139 56 135 56 139 b 53 142 50 139 50 139 b 81 197 56 143 81 190 b 86 207 82 197 83 203 b 88 217 88 211 89 215 b 89 218 86 218 86 219 b 106 238 92 217 99 225 b 121 260 113 249 119 260 b 122 263 122 260 122 261 b 126 271 121 264 122 268 b 132 279 131 274 133 278 b 133 281 131 281 132 281 b 138 286 136 281 138 283 b 143 294 138 290 140 293 b 150 304 146 296 149 300 b 164 325 151 308 158 318 l 182 347 l 192 360 l 197 369 b 204 376 199 374 201 376 b 207 381 206 376 207 378 b 219 397 207 382 213 390 b 240 424 236 414 240 419 b 247 431 240 425 244 428 b 256 442 251 435 256 439 b 258 444 256 444 257 446 b 263 444 261 443 263 443 b 275 463 263 446 268 454 b 292 481 282 471 289 479 l 307 501 b 321 521 315 511 321 519 l 329 532 l 342 546 b 383 621 376 590 383 604 b 374 619 383 632 378 632 l 369 608 l 369 618 b 342 675 369 632 357 658 b 325 693 335 682 326 690 b 313 700 324 696 318 700 b 243 661 300 703 279 692 b 93 485 217 639 144 554 b 46 426 47 424 39 413 b 47 436 49 431 49 435 b 49 438 46 439 46 439 b 63 450 51 436 57 442 l 99 500 b 124 538 113 518 124 535 b 125 540 124 540 125 542 b 153 576 129 538 154 571 b 154 576 153 578 153 578 b 172 597 158 574 174 593 b 175 597 171 599 172 599 b 176 599 178 596 178 596 b 178 603 175 601 175 603 b 213 636 179 603 194 617 b 293 710 258 685 276 701 b 301 719 304 715 306 717 b 199 633 288 725 257 700 l 156 583 b 151 574 151 579 150 575 b 147 571 153 572 150 571 b 143 567 144 571 142 569 b 142 563 144 565 144 563 b 138 557 140 563 138 561 b 135 553 138 554 136 553 b 119 538 133 554 126 547 l 85 493 b -61 163 -1 386 -60 253 b 4 60 -62 106 -47 83 b 49 39 21 53 40 43 b 78 28 57 33 69 29 b 278 79 126 21 190 36 b 382 139 328 103 385 136 b 386 143 381 140 382 142 b 408 157 390 144 400 151 b 431 171 415 164 425 169 b 439 178 435 174 439 176 b 442 182 439 181 440 182 b 451 186 444 182 449 185 b 479 208 464 197 467 199 b 493 219 488 213 493 218 b 503 228 493 221 497 225 b 522 242 508 231 518 236 b 560 269 540 257 557 269 b 561 274 563 269 563 272 b 569 282 560 275 564 279 b 579 289 576 285 579 288 b 585 294 578 292 581 293 b 592 301 589 296 592 299 b 597 307 592 304 594 307 b 603 313 600 307 603 310 b 607 318 603 315 606 318 b 657 371 614 318 654 363 b 663 381 658 376 660 381 b 665 386 664 381 665 382 b 663 390 665 389 664 390 z m 414 735 b 433 715 418 733 428 724 b 460 706 447 697 450 696 l 503 754 l 529 786 b 567 857 553 815 567 840 b 553 903 567 875 560 897 b 550 907 550 906 549 907 b 543 915 551 907 549 911 b 524 918 536 921 532 921 b 399 765 494 907 399 790 b 414 735 399 754 406 740 z m 482 722 b 468 706 474 714 468 707 b 479 708 468 700 474 701 b 486 711 481 711 485 713 b 489 713 488 710 489 711 b 503 731 489 714 496 722 b 578 849 568 800 583 825 b 572 844 575 857 575 857 b 560 818 571 838 565 826 b 482 722 550 803 507 750 z m -42 96 b -56 151 -49 104 -56 135 b -51 140 -56 164 -54 161 b -40 103 -49 125 -43 108 b -42 96 -33 90 -35 88 z m 57 185 b 65 194 60 186 63 190 b 68 196 67 200 68 201 b 63 185 68 193 65 188 b 60 178 60 182 58 178 b 60 175 61 176 61 175 b 57 185 56 175 54 182 z m 439 847 b 438 849 443 854 443 854 b 431 843 433 846 431 843 b 439 847 431 840 433 842 z m 371 226 b 374 225 368 224 368 222 b 378 229 376 226 379 228 b 371 226 376 231 374 229 z "},"j":{"ha":472,"x_min":0,"x_max":0,"o":"m 490 332 b 397 360 478 339 428 354 l 336 369 b 269 372 322 371 293 372 b 229 378 236 372 229 374 b 232 386 229 381 231 385 b 235 392 235 388 236 390 b 238 401 235 394 236 399 b 240 411 240 404 242 408 b 242 415 239 415 240 417 b 249 418 244 414 247 415 b 246 422 250 422 249 424 b 247 425 243 421 244 422 b 251 433 251 428 253 432 b 253 438 250 435 250 436 b 267 469 260 442 269 464 b 271 476 265 472 268 475 b 275 485 275 478 276 481 b 276 493 274 489 274 492 l 282 501 b 288 519 282 504 285 513 b 313 624 299 542 313 604 b 306 608 313 640 313 640 b 251 454 296 567 278 511 b 235 406 240 429 233 408 b 233 403 236 403 236 401 b 221 389 231 404 226 399 b 200 371 214 375 204 367 b 218 408 199 372 215 407 b 221 415 219 410 221 413 b 228 432 221 418 225 425 b 283 574 239 450 272 535 b 283 674 297 619 297 640 b 244 728 271 701 253 728 b 239 732 242 728 239 729 b 228 728 239 733 235 732 b 228 736 217 719 217 724 b 224 746 233 743 232 749 b 110 550 218 743 185 686 b -18 336 60 460 -11 343 b -35 331 -21 335 -28 332 b -93 314 -40 329 -67 322 b -583 64 -282 256 -440 175 b -683 -29 -626 29 -683 -24 b -700 -50 -683 -31 -690 -40 l -717 -69 b -728 -81 -717 -71 -721 -75 b -737 -94 -735 -86 -737 -92 b -737 -99 -736 -99 -736 -100 b -793 -215 -747 -93 -794 -193 b -786 -200 -793 -219 -790 -212 b -762 -144 -779 -175 -765 -142 b -768 -164 -761 -146 -764 -154 b -785 -267 -781 -199 -787 -239 b -726 -372 -782 -308 -769 -329 b -625 -435 -685 -412 -662 -426 b -422 -396 -562 -449 -504 -437 b -310 -324 -383 -376 -310 -329 b -307 -321 -310 -321 -308 -319 b -281 -300 -301 -322 -287 -311 b -275 -296 -276 -294 -274 -292 b -271 -297 -278 -303 -276 -303 l -256 -283 l -246 -275 l -256 -279 b -261 -269 -268 -283 -272 -279 b -258 -269 -254 -264 -254 -264 b -250 -271 -264 -278 -258 -278 b -242 -268 -247 -268 -243 -267 b -243 -264 -240 -269 -240 -268 b -243 -256 -247 -260 -247 -257 b -242 -257 -240 -254 -240 -254 b -240 -261 -243 -260 -243 -261 b -235 -257 -239 -261 -236 -260 b -229 -258 -233 -254 -231 -254 b -226 -256 -226 -261 -225 -261 b -222 -247 -226 -251 -225 -249 b -219 -250 -219 -246 -218 -247 b -208 -242 -225 -257 -219 -254 b -204 -235 -203 -236 -201 -232 b -200 -224 -215 -243 -211 -235 b -185 -215 -193 -218 -186 -214 b -183 -214 -182 -217 -182 -217 b -176 -203 -185 -212 -181 -207 b -167 -189 -171 -197 -167 -192 b -161 -186 -167 -186 -165 -185 b -157 -183 -158 -187 -156 -187 b -153 -179 -157 -181 -156 -179 b -149 -174 -151 -181 -149 -176 b -144 -168 -149 -169 -147 -167 b -142 -164 -143 -169 -142 -168 b -128 -149 -142 -161 -136 -154 b -104 -129 -121 -143 -110 -135 b -94 -114 -97 -124 -94 -118 b -90 -107 -96 -110 -94 -107 b -85 -103 -86 -107 -83 -106 b -83 -94 -86 -99 -85 -96 b -79 -96 -81 -93 -79 -94 b -75 -97 -79 -99 -78 -99 b -76 -92 -72 -96 -72 -94 b -71 -85 -79 -90 -78 -87 b -65 -65 -61 -81 -57 -69 b -68 -67 -68 -62 -68 -64 b -71 -78 -67 -69 -68 -75 b -75 -79 -74 -79 -75 -81 b -92 -97 -75 -76 -89 -92 b -100 -104 -93 -101 -96 -104 b -104 -106 -103 -104 -106 -104 b -110 -117 -103 -107 -106 -112 l -122 -131 b -131 -136 -125 -133 -129 -136 b -129 -131 -133 -136 -132 -133 b -29 -4 -115 -117 -60 -47 b 104 200 24 68 103 189 b 113 213 106 203 108 208 b 118 224 115 215 118 221 b 122 229 118 228 119 229 b 136 253 124 229 129 240 b 164 292 147 275 160 292 b 167 285 165 292 167 289 b 181 285 167 274 172 274 b 218 301 189 294 211 306 b 221 301 219 300 221 300 b 304 308 221 306 225 307 b 432 301 361 310 386 308 l 460 297 b 492 278 476 294 492 285 b 504 292 492 268 499 275 b 490 332 513 313 510 318 z m -83 194 b -389 -176 -199 25 -269 -61 b -583 -328 -474 -261 -524 -299 b -640 -349 -603 -336 -629 -346 b -701 -347 -664 -354 -689 -353 b -699 -339 -712 -343 -711 -337 b -689 -337 -693 -339 -689 -339 b -701 -335 -690 -336 -696 -335 b -715 -321 -711 -335 -712 -332 b -714 -287 -717 -314 -715 -299 b -594 -101 -703 -228 -671 -178 b -275 122 -507 -15 -410 53 b -107 200 -214 154 -112 200 b -272 -21 -100 200 -228 29 b -461 -217 -318 -75 -428 -187 b -486 -244 -476 -231 -487 -243 b -475 -237 -485 -246 -479 -243 b -454 -221 -465 -226 -457 -221 b -268 -31 -449 -221 -311 -79 b -226 10 -249 -8 -229 10 b -222 14 -224 10 -222 11 b -226 15 -222 17 -224 17 b -226 18 -229 14 -229 14 b -219 24 -224 22 -221 24 b -207 33 -217 21 -207 28 b -214 32 -207 35 -210 35 b -211 38 -217 29 -217 32 l -200 50 b -201 46 -200 51 -200 49 b -199 43 -204 39 -203 39 b -194 53 -194 46 -193 50 b -192 57 -196 56 -194 57 b -187 63 -189 56 -187 58 b -183 71 -187 65 -186 69 b -183 69 -182 72 -182 72 b -182 67 -186 65 -185 65 b -179 75 -179 68 -178 72 b -175 82 -179 79 -178 82 b -169 86 -171 82 -169 83 b -165 93 -171 89 -168 92 b -162 99 -162 94 -161 96 b -158 104 -162 100 -161 103 b -153 111 -156 106 -153 108 b -144 121 -153 114 -149 118 b -142 125 -140 125 -139 126 b -137 131 -144 124 -143 126 b -135 136 -133 135 -131 138 b -129 143 -137 135 -135 138 b -119 158 -124 149 -119 156 b -115 164 -119 161 -118 164 b -112 168 -114 164 -112 165 b -103 182 -112 171 -108 176 b -87 201 -97 186 -90 194 b -76 211 -83 207 -79 211 b -83 194 -74 211 -76 206 z m 306 867 b 307 872 307 867 308 869 b 308 885 306 875 307 881 b 313 878 313 890 313 889 b 336 847 313 864 318 858 b 365 829 343 844 356 836 b 424 836 392 810 400 811 b 497 960 463 879 500 942 b 486 961 494 972 490 972 l 483 953 l 481 963 b 476 975 478 968 476 974 b 429 1032 475 981 438 1025 b 414 1035 425 1033 418 1035 b 369 992 404 1032 367 996 b 365 988 371 989 369 988 b 368 1000 361 988 361 990 b 404 1042 376 1011 393 1031 b 397 1049 410 1049 406 1053 b 351 976 388 1042 349 983 b 340 958 353 968 347 958 b 335 956 338 958 335 957 b 333 949 333 953 333 950 b 317 915 333 947 326 932 b 306 867 303 886 297 867 z m -729 -292 b -679 -172 -725 -254 -708 -215 b -489 11 -635 -108 -565 -42 b -454 39 -472 24 -456 36 b -449 40 -451 42 -449 43 b -443 44 -449 39 -446 40 b -436 51 -440 49 -437 51 b -412 65 -433 50 -412 63 b -407 68 -412 67 -410 68 b -401 72 -404 68 -401 69 b -321 119 -399 75 -351 104 l -292 135 b -218 168 -282 140 -221 168 b -283 133 -218 167 -247 151 b -353 96 -321 114 -353 97 b -365 88 -354 93 -360 90 b -385 76 -369 85 -379 81 l -401 67 b -414 57 -404 65 -410 61 b -431 46 -417 54 -425 49 l -442 39 b -450 33 -443 39 -446 36 b -604 -92 -490 10 -561 -49 b -719 -267 -671 -158 -711 -219 b -729 -292 -729 -308 -731 -315 z m 165 274 b 158 271 160 278 158 278 b 153 258 158 267 157 261 b 150 253 150 257 149 254 b 131 219 151 251 138 231 b 129 214 128 218 128 215 b 126 211 129 213 129 211 b 122 208 124 211 122 210 b 118 194 124 200 122 193 b 115 185 115 197 114 192 b 111 183 115 183 114 183 b 104 178 110 185 106 182 b 97 165 103 172 99 167 b 96 157 94 165 94 161 b 94 154 97 154 96 153 b 81 139 93 156 86 149 b 72 117 72 126 69 121 b 69 113 75 113 75 113 b 63 108 64 114 63 113 b 58 101 64 104 61 101 b 56 93 53 101 51 97 b 68 99 58 90 58 90 b 74 106 72 101 75 106 b 85 122 72 106 76 113 l 101 147 b 115 171 104 156 113 168 l 128 193 b 143 218 133 204 140 215 b 146 226 146 221 147 225 b 147 229 144 228 146 229 b 163 263 150 229 165 260 b 167 267 163 263 164 265 b 165 274 169 268 168 271 z m 183 654 l 156 601 b 35 385 113 522 57 421 b 6 342 22 363 8 343 b 3 343 3 340 1 340 b 22 376 3 344 13 360 l 115 539 b 193 675 156 611 190 672 b 183 654 194 676 190 668 z m 4 13 b 3 18 3 14 3 15 b 1 21 4 19 4 21 b -4 13 0 21 -3 17 b -11 -4 -7 1 -7 1 b -21 -8 -14 -6 -18 -8 b -29 -24 -25 -8 -32 -21 b -33 -29 -28 -25 -29 -28 b -37 -35 -36 -31 -37 -32 b -40 -37 -36 -36 -37 -37 b -43 -47 -43 -37 -44 -40 b -40 -51 -42 -54 -40 -56 b -35 -44 -39 -47 -37 -44 b -32 -42 -33 -44 -32 -43 l -32 -33 b -28 -33 -32 -29 -31 -29 b -24 -33 -25 -39 -25 -39 b 1 1 -24 -29 -19 -22 b 4 13 6 7 7 11 z m 22 46 b 18 43 22 44 21 43 b 13 36 15 43 13 40 b 18 28 13 32 15 28 b 22 32 21 28 22 31 b 25 36 21 33 22 36 b 29 43 29 36 31 38 b 32 49 28 49 28 50 b 36 56 38 46 40 50 b 22 46 32 58 19 50 z m 46 86 b 42 79 46 83 43 79 b 39 74 39 78 38 75 b 53 76 44 65 53 68 b 57 81 53 81 54 83 b 60 83 60 79 60 81 b 46 86 57 90 46 93 z m -50 -49 b -51 -53 -53 -49 -53 -50 b -54 -56 -50 -54 -51 -56 b -58 -62 -58 -56 -60 -58 b -57 -72 -58 -65 -58 -69 b -53 -72 -57 -74 -56 -74 b -51 -67 -51 -71 -50 -68 b -51 -64 -53 -65 -53 -64 b -47 -56 -49 -64 -47 -60 b -50 -49 -47 -51 -49 -49 z m -747 -121 b -756 -133 -750 -128 -754 -133 b -749 -118 -758 -133 -757 -126 l -742 -110 z m 7 24 b 10 14 7 18 8 14 b 10 28 14 14 13 22 b 7 24 7 32 6 31 z m 44 58 b 38 64 44 60 40 63 b 29 64 33 68 31 68 b 31 63 26 63 28 61 b 36 61 32 64 35 64 b 43 57 38 60 40 57 b 44 58 44 57 46 58 z m 197 681 b 201 692 196 681 199 685 b 208 703 204 697 207 703 b 204 692 210 703 208 697 b 197 681 201 685 199 681 z m -135 -146 b -142 -151 -136 -149 -140 -151 b -140 -146 -144 -151 -143 -149 b -132 -140 -137 -143 -133 -140 b -135 -146 -131 -140 -132 -143 z m -497 -249 b -499 -254 -499 -250 -500 -251 b -493 -256 -497 -256 -494 -257 b -492 -250 -490 -254 -490 -251 b -497 -249 -493 -247 -494 -247 z m -508 -260 b -515 -264 -511 -261 -515 -262 b -503 -261 -515 -267 -504 -264 b -508 -260 -501 -260 -504 -258 z m -196 179 b -187 182 -193 181 -189 182 b -189 179 -185 182 -186 181 b -199 175 -192 176 -196 175 b -196 179 -200 175 -200 176 z m -522 -272 b -529 -278 -526 -274 -529 -276 b -522 -275 -529 -279 -526 -278 b -515 -269 -518 -274 -515 -271 b -522 -272 -515 -269 -518 -269 z m 357 985 b 358 981 360 985 360 983 b 354 976 357 979 356 976 b 353 981 354 976 353 979 b 357 985 353 983 354 985 z m -212 -243 b -217 -246 -214 -244 -215 -246 b -218 -243 -218 -246 -218 -244 b -214 -239 -218 -240 -217 -239 b -212 -243 -212 -239 -211 -240 z m -290 -297 b -289 -293 -290 -296 -290 -293 b -286 -296 -287 -292 -286 -293 b -290 -297 -286 -303 -286 -303 z m -725 -326 b -728 -321 -726 -328 -728 -325 b -725 -319 -726 -317 -726 -317 b -725 -326 -724 -322 -724 -325 z m -167 -178 b -168 -176 -171 -182 -171 -181 b -164 -171 -167 -172 -165 -169 b -167 -178 -162 -172 -164 -175 z "},"k":{"ha":719,"x_min":0,"x_max":0,"o":"m 849 399 b 844 421 844 401 843 408 b 840 442 844 431 843 439 b 836 450 838 444 836 447 b 815 435 836 453 826 446 b 756 394 803 425 776 407 b 711 369 733 383 714 372 b 656 338 701 361 658 336 b 653 335 654 338 653 336 b 649 333 653 332 651 332 b 644 332 647 335 644 333 b 639 328 644 329 643 328 b 635 322 636 328 635 325 b 629 318 636 319 635 318 b 601 306 619 319 601 311 b 597 304 601 303 599 303 b 596 303 594 306 593 306 b 603 300 597 300 600 300 b 607 306 606 301 607 304 b 606 310 606 307 606 310 b 604 299 613 310 611 301 b 592 299 599 294 596 294 b 588 299 586 303 586 303 b 579 292 593 292 588 286 b 574 290 572 294 572 294 b 571 288 576 288 575 286 b 567 285 567 290 565 289 b 564 283 569 279 569 279 b 560 282 558 288 557 288 b 553 272 561 279 558 275 b 551 274 544 268 544 268 b 542 274 561 282 557 282 b 531 264 535 271 529 265 b 478 235 531 260 485 235 b 418 210 475 235 444 221 b 403 200 413 207 406 203 b 396 197 399 197 396 196 b 390 196 396 199 393 199 b 385 193 388 193 385 192 b 376 190 385 194 382 193 b 281 161 365 183 326 171 b 117 157 218 146 119 144 b 164 161 117 160 135 161 b 215 164 192 161 214 163 b 176 167 217 165 199 167 b 129 169 153 167 132 168 b 238 279 121 175 174 229 b 276 314 260 297 278 313 b 279 317 275 315 276 317 b 303 331 282 317 293 322 l 333 351 b 350 363 340 356 347 360 b 356 367 351 365 354 367 b 363 369 357 365 361 367 b 371 375 365 372 369 375 b 419 400 372 375 394 386 b 547 469 488 439 500 446 b 614 514 593 494 611 506 b 589 506 618 524 614 522 b 554 486 575 496 560 488 b 533 478 549 485 539 482 b 521 472 528 475 522 472 b 447 438 519 472 458 443 b 443 429 444 436 442 432 b 439 429 444 426 443 426 b 429 428 435 433 432 432 b 419 422 426 425 422 422 b 410 418 417 422 413 421 b 390 407 407 414 399 410 l 374 397 b 358 386 374 396 367 392 b 347 375 351 382 346 376 b 343 374 347 374 346 372 b 339 371 338 375 338 375 b 338 369 342 368 340 368 b 244 307 333 372 268 329 b 228 294 238 300 229 294 b 131 199 225 294 138 210 l 119 183 b 107 178 113 174 107 171 b 144 231 107 183 132 217 b 150 238 151 236 154 239 b 154 243 147 236 149 239 b 158 250 161 249 161 250 b 158 254 153 250 153 251 b 167 256 161 256 165 257 b 168 260 168 254 169 256 b 171 264 165 264 167 265 b 181 274 176 261 185 269 b 182 276 179 275 179 276 b 193 281 190 275 194 276 b 210 297 190 288 203 299 b 214 301 213 297 214 299 b 222 306 214 304 217 306 b 232 310 228 306 232 307 b 226 311 232 311 229 313 b 225 311 224 310 224 310 b 232 315 226 313 231 315 b 236 319 235 315 236 317 b 240 321 235 322 238 322 b 246 324 243 321 246 321 b 251 328 246 325 249 328 b 258 333 254 328 257 331 b 264 338 260 336 263 338 b 274 342 265 336 269 338 b 285 347 276 346 282 349 b 288 351 289 346 289 347 b 288 356 286 356 286 357 b 299 361 289 354 294 357 b 308 365 303 364 307 367 b 318 372 310 365 314 368 b 329 379 322 378 326 381 b 339 386 331 379 336 382 b 353 393 343 390 349 393 b 367 400 357 393 363 396 b 375 406 371 404 375 407 b 378 408 376 404 378 406 b 381 411 378 411 379 413 b 393 419 383 407 396 415 b 394 422 393 422 393 424 b 404 424 396 421 400 421 b 414 428 410 426 414 428 b 440 442 426 432 440 439 b 444 443 440 443 442 444 b 447 444 447 440 447 442 b 458 450 444 449 449 450 b 472 456 465 450 471 453 b 478 460 474 457 475 460 b 504 471 479 460 492 464 b 529 481 518 476 529 481 b 549 489 531 481 539 485 b 561 500 560 494 564 497 b 563 504 558 501 558 503 b 567 503 567 506 568 506 b 567 500 565 500 565 500 l 582 507 b 594 517 589 510 594 514 b 599 519 594 519 596 521 b 600 554 604 517 606 524 b 575 615 596 582 586 606 b 536 624 569 621 561 622 b 489 621 519 625 497 624 b 374 575 467 615 407 592 b 349 564 360 568 349 563 b 481 769 349 567 429 692 b 644 1026 560 889 626 993 b 658 1078 658 1056 660 1060 b 650 1101 658 1092 656 1099 b 618 1138 642 1107 614 1138 b 614 1144 619 1138 618 1140 b 579 1163 606 1153 588 1163 b 518 1110 569 1163 540 1139 b 314 822 492 1078 406 957 b 246 724 276 767 246 724 b 408 971 246 729 365 910 b 438 1017 425 994 438 1014 b 446 1025 438 1018 442 1022 b 447 1029 450 1029 451 1031 b 308 836 439 1028 425 1008 b -26 285 163 619 71 467 b -61 222 -46 249 -61 221 b 82 492 -62 232 39 422 b 97 521 90 506 97 518 b 100 525 97 524 99 525 b 107 542 104 525 111 539 b 75 493 104 543 92 524 b 61 471 71 485 65 475 b 54 457 58 468 56 461 b 47 449 53 451 50 449 b 44 444 46 449 44 446 b 38 431 44 442 42 436 b -58 251 22 408 -35 303 b -124 82 -85 196 -115 114 b -133 21 -128 65 -132 38 b -128 -17 -136 -6 -135 -10 b -112 -26 -124 -21 -117 -25 b -85 -36 -107 -26 -96 -31 b -65 -42 -74 -42 -67 -44 b -60 -40 -64 -39 -61 -39 l -58 -40 b -33 -12 -53 -43 -31 -18 b -26 -6 -35 -8 -33 -6 b -15 1 -21 -4 -15 -1 b -18 4 -14 4 -15 6 l -17 6 b 10 33 -6 13 13 32 b 18 44 10 35 13 39 b 25 58 22 49 26 56 b 28 61 24 61 25 63 b 38 72 31 61 35 65 b 44 83 40 79 43 85 b 51 94 46 83 49 88 b 69 118 57 107 65 118 b 76 106 71 118 75 113 b 158 47 88 78 114 58 b 682 244 261 21 460 94 b 817 350 761 297 779 311 b 849 399 854 389 857 393 z m 408 581 b 569 613 475 613 539 625 b 583 603 576 608 583 604 b 569 603 583 600 578 600 b 413 576 539 611 469 600 b 408 581 375 561 374 563 z m 468 242 b 396 210 435 229 396 211 b 400 208 396 207 397 207 b 410 213 401 210 407 211 b 438 222 414 213 426 218 b 465 233 447 228 460 232 b 474 240 469 235 474 238 b 468 242 474 242 471 243 z m 810 356 b 794 343 807 351 800 346 b 786 335 789 340 785 336 b 771 318 788 333 781 326 b 756 307 763 311 756 306 b 779 331 756 310 775 329 b 782 335 781 331 782 333 b 790 346 782 336 786 342 b 799 351 796 350 799 353 b 807 356 799 350 803 351 b 810 356 814 361 815 361 z m 172 642 b 154 621 182 660 172 649 b 138 592 144 604 138 592 b 172 642 140 592 165 629 z m 114 544 b 115 551 115 546 117 550 b 119 556 115 553 117 554 b 122 564 122 557 124 560 b 125 568 121 568 121 569 b 129 571 126 567 129 567 b 115 563 129 579 126 578 b 108 543 110 554 107 546 b 114 544 111 540 113 540 z m 642 1081 b 646 1097 642 1090 644 1097 b 649 1086 647 1097 649 1092 b 646 1071 649 1081 647 1074 b 642 1081 643 1067 642 1071 z m 507 258 b 496 253 506 256 500 253 b 489 250 493 251 489 251 b 483 249 488 250 486 250 b 478 244 481 249 478 247 b 492 246 476 240 481 242 b 508 258 500 250 508 256 b 507 258 510 263 510 263 z m 103 158 b 100 164 101 158 100 161 b 103 169 100 168 101 169 b 107 164 106 169 107 168 b 103 158 107 161 106 158 z m 742 296 b 735 294 736 293 733 292 b 751 304 738 299 751 307 b 742 296 751 303 747 300 z m 842 386 b 833 379 838 382 833 379 b 836 386 832 379 833 382 b 844 393 839 390 843 393 b 842 386 846 393 844 390 z m -49 -28 b -36 -15 -43 -21 -37 -15 b -47 -29 -35 -17 -40 -22 l -58 -40 z m -6 18 b -11 19 -8 17 -11 18 b -6 24 -11 22 -8 24 b 0 22 -1 24 0 22 b -6 18 0 21 -1 19 z m 378 203 b 382 199 378 201 379 199 b 385 203 383 199 385 201 b 382 207 385 206 383 207 b 378 203 379 207 378 206 z m 228 64 b 226 69 226 64 225 67 l 229 75 b 232 69 231 75 232 72 b 228 64 232 67 229 64 z m 360 199 b 356 196 357 199 356 197 b 360 192 356 193 357 192 b 363 196 361 192 363 193 b 360 199 363 197 361 199 z m 19 67 b 13 60 17 63 14 60 b 18 68 10 60 11 63 b 19 67 24 72 24 72 z m 344 192 b 346 189 344 190 346 189 b 350 192 347 189 349 190 b 349 196 351 194 351 196 b 344 192 346 196 344 194 z m 368 199 b 371 196 367 197 368 196 b 374 199 372 196 374 197 b 372 203 374 201 374 203 b 368 199 372 203 369 201 z m 457 1038 b 453 1039 458 1040 457 1040 l 447 1036 b 457 1038 447 1033 454 1035 z m 643 231 b 640 233 638 229 638 229 b 647 235 643 235 646 236 b 643 231 649 235 646 232 z m 211 67 b 207 64 210 65 208 64 l 204 67 b 207 69 203 68 204 69 b 211 67 210 69 211 68 z m 519 263 b 514 260 515 261 514 260 b 522 261 514 257 521 258 b 519 263 524 264 522 264 z m 224 168 b 228 167 221 168 222 167 b 232 168 232 167 235 168 b 224 168 229 169 225 169 z "},"l":{"ha":432,"x_min":0,"x_max":0,"o":"m 672 1088 b 663 1079 667 1094 667 1094 b 656 1082 661 1076 660 1078 b 656 1088 653 1086 653 1089 b 660 1090 657 1086 660 1088 b 656 1099 660 1093 657 1097 b 651 1096 653 1100 651 1099 b 633 1110 651 1094 643 1100 b 610 1126 622 1118 613 1126 b 604 1129 607 1126 604 1128 b 593 1135 603 1131 599 1133 l 575 1139 b 540 1118 567 1140 561 1138 b 411 963 508 1088 476 1050 b -92 124 200 681 -8 333 b -104 108 -119 56 -125 49 b 232 729 -49 269 56 461 b 503 1106 325 869 468 1068 b 521 1126 511 1113 518 1122 b 515 1128 524 1133 524 1133 b 506 1119 510 1124 506 1121 b 486 1097 506 1118 497 1108 b 78 501 411 1015 207 718 b -139 -1 -49 290 -132 96 b -132 -62 -140 -33 -137 -65 b -131 -65 -131 -61 -129 -62 b -101 -85 -133 -74 -119 -82 b -81 -89 -90 -86 -82 -87 b -74 -83 -78 -92 -74 -89 b -67 -71 -74 -79 -69 -74 b -61 -64 -62 -68 -60 -64 b -58 -61 -62 -62 -61 -61 b -57 -56 -56 -61 -56 -58 b -54 -51 -58 -51 -57 -50 b -39 -26 -49 -53 -36 -32 b -37 -25 -40 -25 -40 -24 b -33 -25 -35 -28 -33 -26 b -14 -1 -33 -17 -19 1 b -14 6 -12 -1 -12 1 b -10 15 -15 10 -14 13 b -4 28 -6 17 -4 21 b 1 38 -4 35 -1 38 b 3 49 8 38 8 42 b 3 51 0 51 0 53 b 17 58 8 47 19 53 b 18 61 15 63 17 63 b 22 64 21 61 22 61 b 25 76 21 74 22 79 b 40 99 28 75 40 94 b 46 108 38 108 40 113 b 50 113 50 104 50 106 b 51 119 49 118 50 121 b 53 126 54 118 54 121 b 57 132 51 133 51 135 b 64 136 63 132 64 132 b 61 140 64 139 64 140 b 63 149 60 140 61 144 b 72 156 65 151 69 156 b 75 160 75 156 76 157 b 78 161 72 163 74 163 b 82 167 83 160 85 161 b 86 174 81 172 82 174 b 90 176 90 174 92 175 b 88 189 85 181 83 189 b 89 193 90 189 90 190 b 92 193 88 196 88 196 b 104 199 97 189 99 190 b 125 232 114 211 118 218 b 125 240 131 242 131 243 b 126 244 122 240 122 242 b 158 292 139 251 160 283 b 163 294 157 293 160 294 b 164 306 169 294 169 299 b 165 306 160 310 160 310 b 178 318 172 301 176 304 b 182 325 178 322 179 325 b 194 336 185 325 194 333 b 200 347 194 338 197 343 b 201 361 206 356 206 358 b 204 363 197 364 199 364 b 211 364 211 361 213 361 b 213 368 210 365 210 368 b 215 374 214 368 215 371 b 219 379 215 376 218 379 b 224 385 222 379 224 381 b 228 390 224 388 225 390 b 228 393 231 390 231 390 b 218 394 224 394 221 396 b 217 396 217 393 215 394 b 226 399 218 399 224 399 b 232 403 233 397 233 397 b 236 406 231 407 232 407 b 240 406 240 404 242 404 b 244 415 239 408 240 413 b 247 422 247 419 249 422 b 257 435 247 422 250 428 b 265 449 263 440 267 447 b 267 451 264 450 265 451 b 283 482 271 451 286 479 b 285 483 283 483 283 485 b 304 504 288 481 304 500 b 310 513 304 506 307 510 b 313 522 313 517 314 521 b 313 525 311 525 311 526 b 344 565 315 522 344 560 b 347 569 344 567 346 569 b 386 624 349 571 367 594 l 499 783 b 678 1071 632 974 678 1047 b 672 1088 678 1076 675 1083 z m 103 201 b 96 201 97 197 96 197 b 108 210 96 206 106 213 b 103 201 108 208 106 206 z m 539 1143 b 539 1147 547 1151 547 1153 b 529 1138 535 1144 531 1140 b 539 1143 526 1131 529 1132 z m 151 288 b 149 283 149 288 147 286 b 149 279 150 282 150 279 b 149 290 144 279 143 286 b 156 292 151 293 154 293 b 151 288 157 289 156 288 z m 207 374 b 201 372 204 372 201 372 b 207 379 201 374 204 376 b 213 379 210 382 213 382 b 207 374 213 378 210 375 z m 117 225 b 108 221 114 224 110 221 b 110 225 106 221 107 224 b 119 228 113 226 117 228 b 117 225 121 228 119 226 z m 133 254 b 126 251 132 251 129 250 b 128 253 124 251 124 251 b 129 258 129 254 131 257 b 131 260 128 261 129 261 b 133 254 133 258 135 256 z m 69 150 b 68 144 67 149 67 146 b 72 146 71 139 72 140 b 69 150 72 149 71 150 z "},"m":{"ha":1290,"x_min":0,"x_max":0,"o":"m 1385 408 b 1374 415 1383 408 1378 411 b 1349 426 1364 425 1353 431 b 1333 407 1347 425 1339 417 b 950 106 1303 365 1067 178 b 776 25 889 67 783 18 b 782 29 775 26 778 28 b 894 79 818 40 857 58 b 1126 239 956 113 1060 185 b 1089 215 1169 272 1154 263 b 872 74 1011 157 925 100 b 778 36 824 49 781 32 b 786 60 776 38 781 47 b 797 83 792 71 797 82 b 828 133 797 86 800 90 b 882 225 869 200 882 222 b 885 229 882 226 883 229 b 908 264 888 231 908 260 b 913 272 908 265 910 269 b 953 342 918 278 932 301 b 967 368 958 356 965 367 b 971 379 968 369 969 374 b 978 390 972 385 975 390 b 981 397 979 390 981 393 b 985 404 981 401 982 404 b 988 408 986 404 988 407 b 999 444 988 411 993 428 b 1010 493 1006 463 1010 483 b 989 542 1010 515 997 544 b 986 543 986 540 985 542 b 983 547 988 546 986 547 b 942 583 979 547 961 564 b 894 621 911 615 904 621 b 882 628 885 621 882 622 b 879 635 882 632 881 635 b 878 628 876 635 876 632 b 858 611 879 624 875 619 b 725 518 833 600 771 556 b 599 401 706 503 649 450 b 514 324 549 351 511 317 b 533 365 531 353 533 358 l 538 374 b 540 381 540 375 542 378 b 543 388 539 383 540 386 b 558 439 549 389 557 417 b 539 478 558 457 549 478 b 535 482 536 478 535 479 b 532 483 535 485 533 485 b 513 504 531 482 522 492 b 464 547 490 533 474 547 b 264 396 450 547 364 482 l 186 328 b 210 372 174 318 178 325 b 300 554 276 471 300 518 b 285 593 300 574 292 597 b 281 597 283 592 281 594 b 275 600 279 600 276 601 b 251 624 272 600 263 610 b 225 656 242 639 229 653 b 124 565 201 672 179 651 b 81 501 101 529 82 500 b 78 497 78 503 78 500 b 74 492 78 493 76 490 b 71 489 71 492 69 490 b 64 469 72 488 68 479 l 51 449 b 47 442 50 446 49 442 b 4 371 43 439 15 393 b -8 353 -1 361 -7 353 b -11 349 -10 353 -11 351 b -42 294 -11 347 -25 322 b -149 51 -103 193 -149 89 b -124 7 -149 24 -144 18 b -100 -8 -111 1 -101 -6 b -87 -12 -100 -11 -94 -12 b 93 150 -72 -12 -58 0 b 256 310 164 221 236 292 b 354 390 307 356 353 393 b 339 353 354 389 347 371 b 322 314 329 333 322 317 b 318 310 322 311 319 310 b 315 304 315 310 314 307 b 314 294 317 301 315 297 b 308 285 311 293 310 288 b 297 244 308 281 303 263 b 283 117 282 200 274 131 b 289 103 286 113 289 106 b 332 71 289 86 310 71 b 364 64 338 71 351 68 b 400 64 385 57 385 57 b 463 121 410 68 433 90 l 563 225 b 635 300 592 254 624 288 b 740 394 664 333 735 397 b 749 400 744 393 747 396 b 758 414 750 404 754 410 b 754 401 764 419 764 417 l 731 358 b 713 335 724 342 717 335 b 707 329 708 335 706 333 b 706 324 708 326 708 324 b 703 318 704 324 703 321 b 707 315 703 315 704 314 b 704 308 713 318 711 314 b 700 308 699 304 699 304 b 699 311 703 313 703 313 b 696 300 697 310 696 304 b 694 292 697 294 696 292 b 689 288 692 292 690 290 b 692 285 688 285 689 283 b 686 268 697 289 696 286 b 676 243 681 258 676 247 b 674 235 676 240 675 235 b 668 221 672 233 669 226 b 660 174 668 214 664 193 b 651 60 649 125 646 89 b 725 -12 658 11 668 3 b 767 -26 740 -17 758 -22 b 854 -17 786 -33 813 -31 b 974 39 888 -6 969 33 b 979 42 975 40 978 42 b 989 47 982 42 986 44 b 999 53 993 50 997 53 b 1158 167 1007 53 1118 133 b 1374 371 1290 278 1347 332 b 1385 408 1389 394 1393 408 z m 506 351 b 538 446 535 408 539 419 b 546 458 538 467 543 474 b 519 372 550 443 544 422 b 489 315 506 344 492 318 b 506 351 485 311 493 326 z m 982 460 b 988 504 988 475 989 486 b 996 518 986 531 989 536 b 994 488 999 510 999 501 b 981 446 993 476 986 458 b 982 460 969 424 969 426 z m 276 539 b 279 571 279 547 281 561 b 282 588 279 581 279 588 b 285 560 285 588 286 578 b 278 533 285 554 282 542 b 276 539 269 513 268 517 z m 674 14 b 657 58 664 24 660 35 b 663 51 656 75 656 75 b 676 15 667 38 672 21 b 674 14 686 3 685 1 z m 353 357 b 344 344 349 347 344 342 b 353 364 344 346 349 356 b 361 376 358 374 361 379 b 353 357 361 375 358 365 z m 58 439 b 46 421 53 431 49 422 b 60 446 40 415 53 439 b 58 439 64 450 63 447 z m 732 372 b 736 392 738 381 740 396 b 731 376 733 389 732 383 b 732 372 728 368 729 367 z m 718 350 b 714 344 715 350 714 347 b 721 346 714 336 717 338 b 721 356 724 350 724 353 b 718 354 718 357 717 357 b 718 350 721 351 719 350 z m 369 392 b 369 397 360 378 360 382 b 376 406 374 404 376 408 b 369 392 376 404 374 397 z m 626 442 b 636 450 628 442 632 444 b 643 460 642 456 644 460 b 633 450 643 460 638 456 b 626 442 628 444 625 442 z m 29 390 l 24 382 b 25 390 22 382 22 386 b 31 397 28 394 29 397 b 29 390 32 397 31 394 z m 336 321 b 333 318 335 317 333 317 b 336 328 333 321 335 325 b 340 329 339 331 340 332 b 336 321 340 328 339 324 z m 267 513 b 268 508 269 514 269 513 b 263 507 265 503 263 501 b 267 513 263 508 265 511 z m 553 217 b 547 210 550 213 547 210 b 551 218 543 210 546 214 b 553 217 557 222 557 222 z m 288 146 b 286 151 286 142 286 144 b 288 158 286 158 286 161 b 288 146 289 154 289 149 z m 299 207 b 296 213 297 207 296 208 b 299 215 296 217 297 218 b 299 207 300 213 300 208 z m 1168 272 b 1167 274 1172 278 1172 278 b 1161 267 1164 271 1161 267 b 1168 272 1161 264 1164 265 z m 292 172 b 289 178 290 171 289 172 b 292 182 289 182 290 185 z m 669 179 b 672 182 669 183 671 185 b 672 175 674 179 674 176 b 669 179 671 174 669 175 z m 674 194 b 676 196 674 199 675 199 b 675 189 676 193 676 190 b 674 194 675 188 674 190 z m 663 146 b 665 149 663 151 664 151 b 664 142 665 146 665 143 b 663 146 664 140 663 143 z m 301 222 b 300 226 301 221 300 224 b 303 229 300 232 301 232 b 301 222 303 226 303 224 z m 667 165 b 668 167 667 169 667 169 b 668 160 669 164 669 161 b 667 165 667 158 667 161 z m 294 193 b 293 197 293 192 293 194 b 294 200 293 201 293 203 b 294 193 296 197 296 194 z "},"n":{"ha":1011,"x_min":0,"x_max":0,"o":"m 1089 379 b 1079 385 1083 381 1079 383 b 1056 399 1079 389 1065 397 b 939 285 1046 401 1015 372 b 633 28 822 156 725 74 b 557 1 607 14 568 1 b 583 13 556 1 567 7 l 635 33 b 767 122 665 49 732 94 b 874 225 800 150 874 221 b 839 194 874 228 858 214 b 656 51 771 129 717 86 b 564 11 625 33 582 15 b 551 21 554 8 553 10 b 560 92 547 42 550 64 b 568 121 565 106 568 119 b 569 126 567 124 568 126 b 582 153 574 126 583 147 b 585 156 582 154 583 156 b 586 161 586 156 588 158 b 588 167 585 164 586 167 b 604 196 592 167 606 192 b 608 199 604 199 606 199 b 611 204 610 197 613 200 b 614 210 611 207 613 210 b 618 218 617 210 618 214 b 622 225 618 222 619 225 b 625 232 624 225 625 228 b 629 239 625 236 626 239 b 633 247 631 239 632 243 b 639 256 633 253 636 256 b 642 257 642 254 643 256 b 649 275 640 260 644 267 b 658 292 654 282 658 290 b 664 301 658 294 661 299 b 711 404 674 314 707 382 l 717 425 b 714 483 722 446 721 467 b 689 510 707 499 693 514 b 690 507 688 508 688 507 b 710 463 699 507 710 482 b 694 394 710 443 700 403 b 696 383 692 392 692 388 b 694 382 700 378 700 378 b 688 376 688 386 686 385 b 683 371 688 375 686 372 b 679 360 682 369 679 364 b 676 351 679 354 678 351 b 672 346 675 353 672 350 b 674 338 671 342 672 338 b 669 335 676 336 675 335 b 663 332 665 335 661 333 b 660 318 664 331 663 325 b 654 304 656 313 653 306 b 651 303 654 303 653 303 b 635 276 649 304 636 283 b 628 264 635 275 631 269 b 624 250 624 258 622 253 b 622 249 625 247 625 247 b 617 235 618 251 614 240 b 615 233 618 233 617 232 b 581 169 611 236 581 179 b 578 163 582 165 579 163 b 560 119 574 163 560 129 b 556 111 560 115 558 111 b 546 76 553 111 550 101 b 544 38 544 71 544 53 b 540 10 544 15 543 8 b 539 86 532 13 532 58 b 640 300 549 121 575 178 b 693 422 679 375 685 388 b 688 501 700 450 699 467 b 611 581 681 519 622 581 b 600 588 607 581 601 583 b 507 563 593 600 572 594 b 250 393 419 519 336 464 b 215 371 232 376 219 369 b 206 368 211 371 207 369 b 210 365 204 364 204 364 b 213 364 213 367 214 367 b 200 364 210 360 200 360 b 196 365 200 367 199 367 b 196 369 193 364 193 365 b 206 372 199 372 203 374 b 207 376 207 371 208 372 b 215 382 204 381 207 382 b 225 388 224 382 226 383 b 228 393 224 392 225 393 b 232 399 232 393 233 396 b 235 407 231 403 232 406 b 239 413 239 408 240 410 b 244 415 238 414 240 415 b 249 422 251 415 251 417 b 251 428 244 429 246 429 b 258 433 257 428 258 429 b 271 458 258 438 264 449 b 308 525 282 474 307 519 b 314 542 308 526 311 533 b 314 567 317 553 317 561 b 308 563 310 579 308 579 b 294 521 308 554 303 538 b 283 489 286 506 282 490 b 281 486 285 485 285 485 b 278 483 278 489 276 488 b 275 481 281 479 279 479 b 271 478 271 482 269 481 b 269 474 272 476 272 474 b 260 460 268 474 264 467 b 251 444 257 451 253 444 b 249 440 250 444 249 443 b 244 432 249 439 246 435 b 233 425 225 408 225 408 l 246 444 b 292 533 254 454 283 511 b 278 599 301 560 299 571 b 226 643 258 626 239 643 b 113 515 210 643 176 606 l 79 461 b 58 431 69 447 61 433 l 50 414 b 42 401 47 407 44 401 b 39 396 40 401 39 399 b 35 390 39 392 38 390 b 33 386 33 390 32 388 b 31 381 35 383 33 382 b 25 374 28 379 26 376 b 1 328 25 372 14 350 b -119 83 -35 267 -89 157 b -126 76 -122 75 -125 72 b -128 71 -128 78 -129 76 b -132 43 -126 65 -128 53 b -135 -10 -137 25 -140 -1 b -114 -22 -133 -11 -124 -18 b -86 -40 -103 -28 -90 -36 b -69 -44 -81 -44 -75 -46 b 8 33 -62 -43 -14 6 l 28 56 b 38 68 35 63 39 68 b 57 89 35 68 44 78 b 79 114 69 101 79 113 b 107 143 79 117 92 129 b 132 171 122 157 133 169 b 139 175 132 172 135 174 b 143 181 143 176 146 178 b 144 183 142 183 142 185 b 156 189 146 182 151 185 b 157 194 160 194 160 196 b 158 199 153 192 153 193 b 169 207 161 203 167 207 b 178 219 176 207 183 217 b 179 221 175 219 175 221 b 186 225 183 221 186 224 b 189 226 186 228 188 228 b 204 246 193 225 208 242 b 206 246 203 247 204 247 b 232 265 208 244 219 254 b 256 288 243 278 254 288 b 276 304 257 288 267 294 b 304 331 286 314 299 326 l 342 363 b 446 439 365 383 406 413 b 533 482 474 457 532 485 b 521 456 533 479 528 468 b 449 301 503 425 464 343 b 410 125 425 238 410 168 b 454 6 410 78 426 33 b 518 -26 471 -12 485 -18 b 557 -37 532 -29 549 -35 b 585 -46 564 -42 576 -44 b 642 -39 599 -49 622 -46 b 726 6 657 -35 717 -3 b 736 13 731 10 735 13 b 756 26 738 13 746 18 b 774 39 764 33 772 39 b 799 57 778 40 788 47 b 804 61 801 61 804 63 b 808 65 806 60 807 61 b 818 71 811 68 815 71 b 824 76 821 71 824 74 b 829 81 824 81 825 82 b 833 82 832 79 833 81 b 835 85 832 83 833 85 b 846 93 836 85 840 88 b 861 106 850 99 857 104 b 865 111 864 107 867 110 b 868 115 864 114 865 115 b 1064 321 882 115 1038 279 l 1086 356 l 1097 375 z m -100 143 b -92 167 -94 154 -90 165 b -89 169 -92 168 -92 169 b -86 172 -86 169 -85 171 b -83 181 -87 174 -86 178 b -67 214 -81 183 -74 199 b 213 649 3 371 185 656 b 217 651 217 647 218 649 b 182 636 213 661 201 657 b 85 506 157 611 119 560 b -50 271 43 439 -36 303 l -69 231 b -101 154 -93 179 -100 163 b -104 144 -103 150 -103 146 l -104 140 b -107 138 -104 139 -106 138 b -110 133 -110 138 -110 135 b -111 129 -108 132 -108 129 b -112 125 -114 129 -114 128 b -100 143 -111 122 -106 129 z m 244 372 b 199 338 196 331 182 321 b 389 490 226 369 329 450 b 583 588 458 535 563 588 b 553 569 596 588 583 581 b 244 372 467 538 350 464 z m 457 10 b 417 117 432 39 417 79 b 424 100 417 129 418 125 b 464 8 432 63 447 26 b 457 10 481 -11 475 -10 z m 472 314 b 446 244 465 299 453 267 b 431 210 438 222 432 207 b 485 344 431 224 481 349 b 472 314 486 344 481 331 z m 215 397 b 228 403 224 410 225 410 b 224 400 229 399 228 399 b 218 389 219 401 217 397 b 213 386 218 388 217 386 b 215 397 208 386 208 388 z m 190 343 b 179 338 189 344 183 342 l 169 329 l 178 340 b 188 353 183 346 188 351 b 190 347 189 353 190 350 b 190 343 192 343 192 342 z m 919 272 b 932 288 928 281 933 288 b 917 272 932 288 924 281 b 904 258 908 264 903 258 b 919 272 906 258 913 264 z m 532 451 b 533 460 531 451 532 456 b 539 467 536 464 539 467 b 538 460 540 467 539 464 z m -115 108 b -111 117 -112 111 -111 115 b -115 115 -111 119 -112 118 b -118 106 -117 113 -118 108 b -115 108 -118 104 -117 104 z m 882 231 b 885 236 883 232 885 235 b 882 238 885 239 883 239 b 878 232 879 236 878 233 b 882 231 878 229 879 229 z m 688 364 b 689 361 690 364 690 363 b 686 357 688 358 686 357 b 683 361 685 357 683 358 b 688 364 683 363 686 364 z "},"o":{"ha":783,"x_min":0,"x_max":0,"o":"m 894 389 b 890 396 893 390 890 393 b 871 428 890 404 878 426 b 853 421 868 429 860 426 b 533 267 760 351 642 293 b 488 256 511 263 490 257 b 496 272 486 256 489 263 b 575 394 525 310 561 365 b 579 582 613 469 614 551 b 558 614 575 585 567 600 b 504 674 543 647 528 663 b 274 601 449 700 343 667 b 242 586 263 592 256 588 b 194 568 229 585 214 579 b 136 526 165 551 161 547 b 118 515 114 507 107 504 b 228 599 157 561 207 599 b 235 603 232 599 235 600 b 210 600 235 607 231 607 b -78 168 115 568 -53 317 b -78 86 -85 128 -85 110 b -15 18 -71 63 -46 35 b 17 -6 -6 13 8 1 b 44 -26 25 -14 38 -22 b 125 -26 57 -31 97 -32 b 140 -25 131 -26 138 -25 b 146 -21 144 -25 146 -22 b 149 -19 144 -18 146 -18 b 244 29 157 -22 204 1 b 383 144 288 58 335 97 l 419 181 l 454 183 b 825 314 578 192 718 242 b 894 389 849 329 901 386 z m 453 388 b 375 290 428 350 388 300 b 381 299 372 288 374 292 b 419 353 392 311 414 343 b 404 335 425 363 417 353 b 361 285 397 326 378 303 b 326 250 343 265 328 250 b 349 279 321 250 328 260 b 333 269 369 299 357 292 b 303 256 317 256 314 254 b 251 282 289 258 251 278 b 247 292 251 283 250 289 b 247 326 246 296 246 311 b 297 440 249 361 264 396 b 515 581 356 517 447 576 b 529 572 529 582 529 581 b 453 388 528 524 500 458 z m 250 178 b 82 63 189 124 124 79 b 29 51 57 51 29 46 b 53 61 29 54 40 58 b 200 149 93 72 144 103 b 228 178 263 197 282 219 b 97 89 172 135 128 104 b 32 64 65 72 35 61 b 96 197 25 71 65 151 b 172 296 126 239 156 276 l 182 306 l 228 263 b 275 215 253 239 274 218 b 282 213 275 213 278 211 b 250 178 293 217 283 207 z m -29 285 b 28 390 -29 292 7 357 b 51 431 42 411 51 428 b 60 438 51 432 56 435 b 65 444 64 440 65 443 b 69 453 64 447 65 450 b 78 461 74 456 78 460 b 86 474 78 463 82 468 b 93 486 92 478 94 483 b 94 488 92 489 92 489 b 108 496 97 485 111 492 b 110 501 107 497 108 500 b 90 468 119 507 110 492 b 39 397 79 454 56 422 b -10 317 22 372 0 336 b -29 285 -21 297 -29 283 z m -57 57 b -68 78 -57 57 -62 65 b -75 139 -76 97 -78 100 b -69 188 -74 163 -71 183 b -67 179 -67 192 -65 190 b -67 88 -69 156 -69 100 b -60 67 -65 82 -62 72 b -57 57 -57 61 -56 57 z m 326 656 b 335 658 331 658 333 660 b 338 660 336 657 338 658 b 344 664 338 663 340 664 b 350 668 349 664 351 667 b 356 672 349 669 351 672 b 365 675 360 672 364 674 b 449 701 371 685 404 696 l 471 704 l 449 704 b 408 700 438 704 418 703 b 344 671 386 693 344 675 b 340 668 344 669 343 668 b 328 660 338 668 332 664 b 326 656 324 654 324 653 z m 574 428 b 590 504 583 460 588 478 l 593 535 l 593 511 b 586 460 593 496 590 476 b 575 426 582 444 578 429 b 574 428 572 422 572 422 z m 15 65 b 29 117 15 74 26 113 b 25 92 31 118 29 107 b 15 65 18 61 15 56 z m 233 329 b 238 365 233 346 236 363 b 240 365 243 374 243 374 b 235 329 239 363 236 346 l 232 300 z m 561 401 b 568 410 567 413 568 414 b 563 399 568 407 565 403 b 561 401 557 392 557 392 z m 39 128 b 33 126 36 122 33 121 b 38 132 33 128 35 131 b 39 128 39 133 40 132 z m 15 49 b 14 53 13 49 13 51 b 17 57 14 54 17 57 b 19 53 18 57 19 54 b 15 49 19 51 17 49 z m 478 697 b 483 700 482 697 485 699 b 476 700 482 701 479 701 b 478 697 474 699 474 697 z "},"p":{"ha":885,"x_min":0,"x_max":0,"o":"m 1015 464 b 981 488 1007 499 1004 501 b 960 481 974 483 964 481 b 951 478 954 481 951 479 b 899 443 954 472 903 440 b 896 442 896 444 894 444 b 872 429 900 436 878 425 b 871 428 869 431 869 429 b 707 340 875 421 774 368 l 675 328 l 678 343 b 681 399 679 351 681 376 b 657 479 681 440 675 458 b 640 513 654 483 646 499 b 594 579 629 540 607 572 b 483 569 571 592 528 588 b 304 454 439 550 342 489 b 279 443 292 443 279 438 b 301 481 279 446 296 476 b 306 493 303 483 306 489 b 310 500 306 496 307 500 b 313 507 311 500 313 503 b 315 515 313 511 314 514 b 339 568 321 517 335 551 b 339 593 340 578 340 589 b 333 583 336 599 335 596 b 238 404 329 554 258 424 l 228 396 l 236 408 b 311 554 265 458 303 531 b 317 604 321 578 322 600 b 313 614 314 606 313 610 b 263 686 313 631 278 681 b 243 683 254 690 251 689 b 224 669 238 679 229 672 b 217 671 214 664 214 664 b 236 692 219 675 228 683 b 238 706 250 704 250 711 b 38 421 224 701 168 621 l -85 232 b -275 -81 -172 100 -182 83 b -421 -386 -378 -258 -429 -367 b -417 -406 -419 -389 -418 -399 b -378 -435 -415 -422 -400 -433 b -362 -443 -376 -435 -369 -439 b -337 -449 -350 -450 -346 -451 b -321 -439 -332 -446 -324 -442 b -322 -439 -315 -433 -317 -433 b -325 -437 -329 -443 -329 -443 b -315 -431 -322 -433 -318 -431 b -303 -419 -314 -431 -307 -425 b -301 -412 -296 -410 -296 -408 b -297 -404 -306 -415 -304 -412 b -282 -393 -292 -396 -285 -392 b -276 -389 -279 -394 -276 -393 b -281 -385 -276 -385 -279 -383 b -281 -379 -283 -386 -282 -385 b -272 -372 -278 -375 -274 -372 b -256 -357 -267 -372 -256 -361 b -258 -356 -256 -354 -257 -354 b -253 -339 -265 -360 -261 -349 b -246 -328 -249 -335 -244 -329 b -242 -324 -247 -326 -244 -325 b -240 -328 -237 -321 -237 -322 b -240 -336 -243 -332 -243 -336 b -232 -318 -236 -336 -232 -325 b -218 -296 -233 -311 -224 -296 b -217 -299 -215 -296 -215 -297 b -215 -303 -218 -301 -218 -303 b -204 -286 -212 -303 -206 -292 b -201 -281 -204 -285 -203 -282 l -193 -272 b -193 -267 -187 -265 -187 -265 b -201 -264 -197 -268 -200 -267 b -200 -261 -203 -261 -201 -260 b -196 -257 -199 -261 -196 -260 b -190 -249 -196 -254 -194 -250 b -186 -243 -187 -247 -186 -244 b -181 -231 -187 -232 -185 -229 b -175 -228 -176 -232 -175 -231 b -171 -229 -175 -225 -174 -225 b -164 -232 -169 -232 -167 -233 b -164 -224 -158 -228 -158 -222 b -169 -215 -167 -224 -169 -221 b -160 -210 -171 -208 -169 -208 b -154 -206 -150 -211 -149 -210 b -153 -193 -162 -197 -161 -193 b -147 -196 -149 -193 -146 -194 b -144 -200 -149 -199 -147 -200 b -143 -192 -142 -200 -142 -197 b -137 -185 -144 -183 -144 -183 b -131 -182 -133 -185 -131 -185 b -135 -181 -131 -179 -132 -179 b -133 -178 -137 -181 -137 -181 b -133 -168 -129 -174 -128 -172 b -136 -160 -136 -165 -137 -161 b -132 -162 -135 -158 -132 -160 b -125 -167 -131 -165 -128 -167 b -125 -161 -119 -167 -119 -167 b -128 -154 -131 -156 -132 -151 b -119 -146 -125 -156 -122 -151 b -107 -140 -115 -136 -103 -131 b -104 -143 -107 -143 -107 -144 b -101 -136 -103 -142 -101 -139 b -97 -129 -101 -133 -99 -131 b -96 -124 -93 -128 -93 -126 b -97 -112 -101 -119 -101 -112 b -96 -108 -96 -112 -94 -111 b -96 -104 -97 -107 -97 -104 b -90 -112 -94 -104 -92 -108 b -89 -111 -86 -121 -86 -121 b -82 -101 -90 -101 -85 -93 b -57 -62 -81 -107 -57 -69 b -54 -58 -57 -58 -56 -57 b -22 -18 -51 -61 -37 -44 b -6 6 -14 -6 -7 6 b -3 8 -4 6 -3 7 b 6 21 -3 11 1 17 b 49 78 10 25 29 51 l 86 129 b 89 135 88 129 89 132 b 97 143 89 138 93 140 b 104 153 100 146 104 150 b 115 168 104 156 110 161 b 122 175 122 174 125 176 b 129 186 119 174 122 178 b 140 203 135 193 140 201 b 144 204 140 206 142 206 b 146 199 146 203 147 200 b 147 197 144 196 144 196 b 150 204 150 199 150 201 b 151 213 149 207 149 211 b 154 217 154 214 154 215 b 157 219 153 218 154 219 b 163 217 160 219 163 218 b 171 224 163 214 167 218 b 210 265 178 233 193 250 l 210 271 b 214 275 210 274 213 275 b 215 268 215 274 215 271 b 217 269 215 268 215 269 b 226 281 224 274 228 279 b 232 285 225 282 228 283 b 238 290 236 286 239 289 b 242 292 236 293 238 293 b 246 293 246 290 247 292 b 258 307 244 294 250 301 b 272 321 267 313 272 319 b 276 324 272 322 275 324 b 297 342 279 324 289 332 b 311 354 307 351 313 357 b 343 376 310 351 324 361 b 564 488 429 443 500 479 b 582 481 585 489 585 489 l 576 458 b 451 265 565 415 468 265 b 290 232 440 265 317 240 b 182 178 258 222 211 199 b 158 160 169 168 158 160 b 146 143 158 158 153 151 b 133 122 139 136 133 126 b 129 117 133 118 132 115 b 128 111 126 119 126 117 b 126 106 129 107 129 104 b 125 88 125 106 124 99 b 154 43 125 69 125 69 b 213 3 179 19 200 6 b 231 -1 214 3 222 0 b 271 -6 240 -4 258 -6 l 304 -6 b 342 1 307 -6 325 -3 b 611 196 447 26 546 97 l 635 232 l 664 242 b 863 335 732 265 792 294 b 1001 429 936 378 982 408 b 1015 464 1019 447 1019 447 z m 294 110 b 221 69 267 89 244 76 b 181 67 200 64 181 63 b 197 97 181 72 192 92 b 200 106 200 99 201 103 b 201 107 199 107 200 108 b 210 108 204 106 207 106 b 268 147 215 117 239 133 b 364 175 293 160 360 179 b 294 110 367 172 322 131 z m 132 532 l -25 289 b -132 128 -82 203 -129 131 b -86 203 -136 124 -135 126 b 186 617 18 367 183 617 b 132 532 188 617 163 578 z m 660 333 b 651 319 657 326 654 319 b 654 344 649 319 649 326 b 663 403 658 360 661 382 b 669 411 663 438 665 442 b 660 333 672 394 668 361 z m 364 158 b 344 147 325 124 314 117 b 379 176 360 164 375 178 b 364 158 382 176 375 169 z m -381 -306 b -400 -346 -386 -315 -394 -333 b -412 -374 -406 -360 -411 -372 b -387 -308 -417 -378 -401 -337 l -375 -289 b -381 -306 -374 -287 -376 -296 z m 588 199 b 582 197 567 169 563 168 b 601 219 592 211 600 221 b 588 199 601 219 596 210 z m 174 71 b 189 103 174 76 185 100 b 185 90 190 104 189 99 l 176 71 b 174 71 175 67 174 67 z m -204 -279 b -212 -279 -210 -285 -217 -286 l -208 -272 l -208 -267 b -203 -268 -207 -265 -206 -267 b -204 -279 -200 -272 -200 -274 z m -182 -250 b -185 -251 -183 -249 -185 -249 b -189 -253 -185 -254 -187 -254 b -193 -257 -192 -251 -193 -253 b -183 -257 -193 -264 -190 -264 b -182 -250 -181 -254 -179 -251 z m -185 -239 b -183 -239 -186 -240 -185 -240 b -178 -243 -179 -237 -178 -239 b -175 -244 -178 -249 -178 -249 b -171 -236 -172 -240 -171 -237 b -185 -239 -171 -233 -181 -235 z m -75 -92 b -82 -97 -78 -94 -81 -97 b -83 -92 -82 -97 -83 -94 b -76 -86 -83 -89 -81 -86 b -75 -92 -72 -86 -72 -87 z m 981 493 b 972 492 983 494 979 494 b 961 486 967 490 961 488 b 981 493 961 483 976 489 z m 939 468 b 946 475 943 469 946 474 b 939 474 946 476 943 475 b 932 465 935 471 932 467 b 939 468 932 464 935 465 z m -221 -304 b -226 -310 -224 -304 -225 -306 b -222 -312 -229 -318 -228 -319 b -221 -304 -219 -308 -219 -306 z m 558 161 b 547 151 553 156 549 151 b 554 161 547 151 550 156 b 565 169 560 165 564 169 b 558 161 565 169 563 165 z m -137 115 b -143 108 -140 111 -143 108 b -142 115 -144 108 -143 111 b -136 122 -139 119 -136 122 b -137 115 -135 122 -136 119 z m -247 -339 b -251 -343 -250 -339 -251 -340 b -247 -346 -251 -344 -250 -346 b -244 -343 -246 -346 -244 -344 b -247 -339 -244 -340 -246 -339 z m -287 -396 b -292 -401 -290 -397 -292 -400 b -286 -400 -292 -407 -289 -406 b -287 -396 -285 -396 -286 -394 z m 914 451 b 917 456 915 451 917 454 b 915 460 917 458 917 460 b 911 456 915 460 913 458 b 914 451 910 454 911 451 z m 924 460 b 928 463 926 460 928 461 b 926 467 928 465 928 467 b 922 463 925 467 924 465 b 924 460 921 461 922 460 z m -115 -150 b -114 -156 -115 -154 -115 -157 b -114 -149 -112 -154 -112 -150 b -115 -150 -114 -144 -115 -146 z m 215 268 b 211 265 214 267 213 265 z "},"q":{"ha":989,"x_min":0,"x_max":0,"o":"m 1111 396 b 1074 413 1106 431 1103 432 b 908 307 1039 386 965 340 l 793 238 b 497 93 679 169 601 132 b 449 79 468 83 450 78 b 610 258 447 81 488 126 b 831 542 778 442 831 510 b 814 569 831 556 824 569 b 806 581 811 569 808 574 b 794 597 803 586 797 593 b 788 607 790 600 788 604 b 776 621 788 608 782 615 l 764 633 l 753 626 b 600 501 740 619 699 586 b 415 351 535 446 432 363 b 396 336 408 347 400 340 b 229 211 381 321 268 238 b 57 128 164 168 101 139 b 65 136 25 121 32 126 b 156 176 94 144 160 172 b 139 169 156 176 147 174 b 40 136 97 150 40 131 b 51 157 40 138 44 147 b 61 176 57 167 61 175 b 72 190 63 178 67 185 l 92 214 b 222 343 113 240 192 319 b 265 376 231 349 249 364 b 521 535 379 465 449 510 l 550 544 l 567 536 l 582 526 l 589 536 b 585 567 600 547 599 557 b 563 593 579 571 569 583 b 503 650 543 624 526 639 b 447 661 483 660 476 661 b 218 572 378 661 313 635 b 121 499 175 543 126 507 b 88 465 119 496 104 481 b 74 456 60 439 58 438 b 186 567 96 483 157 544 b 388 676 258 625 326 661 b 478 674 411 682 463 681 b 481 676 497 665 499 667 b 376 681 461 688 413 689 b 243 618 338 672 292 651 b 196 586 219 603 197 589 l 175 569 b 46 436 144 546 71 468 b -60 185 -15 353 -60 249 b -47 131 -60 158 -54 135 b -46 136 -44 129 -44 131 b -51 208 -54 156 -57 179 b -44 242 -50 226 -46 240 b -46 224 -43 242 -43 235 b -43 129 -49 208 -47 165 b -4 93 -43 122 -33 114 b 53 64 29 69 36 65 b 118 75 72 63 99 67 b 131 78 125 76 131 79 b 135 82 132 78 133 79 b 144 88 136 85 140 88 b 239 138 154 88 210 117 b 267 153 253 146 265 154 b 240 118 267 153 256 136 b 35 -181 179 44 78 -104 b 18 -207 28 -196 19 -207 b 33 -176 14 -207 26 -183 b 32 -169 38 -171 38 -164 b -11 -249 26 -175 -11 -244 b -8 -251 -11 -250 -10 -251 b -6 -247 -6 -251 -4 -250 b -6 -243 -7 -246 -7 -244 b 4 -228 -3 -243 0 -236 b 14 -211 7 -219 11 -212 b -12 -272 15 -211 4 -239 b -44 -333 -29 -307 -43 -335 b -28 -297 -44 -333 -37 -317 b -17 -262 -10 -257 -10 -256 b -19 -271 -19 -265 -21 -269 b -22 -274 -19 -272 -21 -274 b -25 -276 -25 -274 -25 -275 b -26 -281 -24 -279 -24 -281 b -29 -283 -29 -281 -31 -282 b -39 -310 -28 -285 -32 -296 b -85 -474 -64 -360 -85 -433 b -79 -501 -85 -483 -82 -496 b -33 -536 -74 -514 -53 -531 l -11 -546 b 158 -460 19 -564 83 -532 b 311 -261 221 -400 274 -332 b 344 -61 353 -182 364 -121 l 339 -42 l 353 -25 l 368 -8 l 418 1 b 760 135 524 22 640 68 l 800 157 b 815 168 804 158 811 164 b 840 186 819 172 831 181 b 878 210 863 199 871 204 b 894 214 882 214 888 215 b 894 218 896 214 896 215 b 899 221 893 219 894 221 b 904 225 901 221 904 222 b 931 243 906 226 917 235 b 956 265 944 251 956 261 b 958 265 956 269 957 269 b 964 271 960 263 961 264 b 981 289 967 276 975 285 b 990 290 989 293 992 294 b 997 296 989 288 992 290 b 1011 303 1003 301 1008 304 b 1013 304 1014 301 1014 303 b 1022 315 1011 306 1017 311 b 1044 324 1035 322 1036 322 b 1046 326 1046 324 1047 325 b 1051 335 1044 328 1047 331 b 1060 339 1056 338 1060 339 b 1069 346 1061 338 1064 340 b 1075 350 1074 351 1076 353 b 1075 346 1074 347 1074 346 b 1081 356 1075 346 1078 350 b 1088 363 1082 361 1085 364 b 1090 363 1090 360 1092 361 b 1100 375 1089 365 1093 371 b 1111 396 1111 383 1113 386 z m 263 -142 b 221 -253 254 -179 242 -211 b 146 -374 201 -290 160 -358 l 117 -407 b 29 -487 93 -435 60 -465 b 7 -481 1 -506 -3 -506 b 197 -212 26 -432 86 -347 b 263 -142 258 -137 265 -131 z m 768 233 b 843 274 768 231 776 235 b 1067 411 956 339 1075 411 b 983 361 1064 411 1031 392 b 889 306 961 347 918 322 b 768 233 824 268 768 236 z m 343 -104 b 343 -131 344 -118 344 -131 b 339 -104 342 -131 340 -118 b 335 -68 338 -89 336 -74 l 332 -58 l 336 -68 b 343 -104 339 -72 342 -89 z m 728 210 b 739 213 728 208 733 210 b 749 221 744 217 750 219 b 728 210 747 222 728 213 z m -56 -372 b -56 -362 -60 -379 -60 -374 b -51 -361 -53 -358 -53 -357 b -56 -372 -51 -364 -54 -369 z m 760 231 b 754 225 757 229 754 226 b 761 226 754 219 756 221 b 760 231 765 232 765 232 z m 817 546 b 819 547 818 550 819 551 b 817 536 819 544 818 539 b 817 546 813 529 813 535 z m 14 361 b 8 353 13 357 10 353 b 11 361 7 353 8 357 b 17 368 13 364 15 368 b 14 361 17 368 17 364 z m 3 342 b -3 335 1 338 -1 335 b 0 342 -4 335 -3 338 b 6 350 1 346 4 350 b 3 342 6 350 6 346 z m 47 -149 b 49 -142 49 -144 50 -142 b 43 -149 49 -142 46 -144 b 42 -156 42 -153 40 -156 b 47 -149 43 -156 44 -153 z m -79 -485 b -81 -475 -79 -490 -81 -486 b -79 -465 -81 -464 -79 -460 b -79 -485 -78 -471 -78 -479 z m 58 -131 b 60 -124 60 -126 61 -124 b 54 -131 60 -124 57 -126 b 53 -137 53 -135 51 -137 b 58 -131 53 -137 56 -135 z m -49 -350 b -51 -351 -50 -353 -51 -354 b -49 -343 -51 -350 -50 -346 b -44 -342 -46 -340 -44 -339 b -49 -350 -44 -343 -46 -347 z m 339 -156 b 336 -150 338 -157 336 -154 b 339 -149 338 -146 338 -144 b 339 -156 340 -150 340 -154 z m -75 -444 b -78 -439 -76 -446 -78 -443 b -75 -437 -76 -435 -76 -435 b -75 -444 -74 -440 -74 -443 z m -72 -426 b -74 -421 -72 -428 -74 -425 b -71 -419 -74 -417 -72 -417 b -72 -426 -71 -422 -71 -425 z "},"r":{"ha":732,"x_min":0,"x_max":0,"o":"m 814 411 b 793 426 806 419 797 426 b 751 397 790 426 771 414 b 549 292 683 343 593 296 l 528 290 l 528 306 b 546 376 528 314 536 346 b 556 535 579 481 581 514 b 531 565 549 540 538 554 b 492 597 513 593 504 600 b 414 547 483 594 461 581 b 282 440 388 528 315 471 b 256 422 254 417 249 413 b 314 606 319 529 335 575 b 303 618 310 613 304 618 b 269 651 296 618 282 632 b 229 671 253 674 242 679 b 228 681 218 663 217 667 b 225 690 235 689 233 696 b 197 646 224 689 211 669 b 72 463 171 600 146 563 b -79 244 -3 360 -68 265 b -92 225 -85 233 -90 225 b -96 219 -94 225 -96 222 b -101 211 -96 217 -99 213 b -106 207 -106 208 -107 207 b -107 201 -103 207 -104 204 l -126 176 b -139 156 -129 174 -135 164 b -151 136 -143 146 -149 138 b -154 132 -153 135 -154 133 b -171 94 -154 131 -161 114 b -199 7 -189 56 -197 29 b -161 -26 -200 -8 -197 -10 b 3 89 -132 -40 -128 -36 b 275 346 128 210 211 289 b 432 475 324 390 415 465 l 443 481 l 435 454 b 435 339 426 421 426 367 b 490 274 442 315 465 288 l 518 256 b 607 246 542 239 569 236 b 726 306 631 251 690 282 b 817 379 758 328 817 375 b 822 389 817 382 819 386 b 814 411 826 394 825 397 z m 3 344 b -111 175 -71 238 -75 233 b -149 118 -131 144 -147 118 b -115 179 -151 118 -132 154 b -99 207 -107 193 -99 206 b -93 215 -99 208 -96 213 b -65 260 -82 228 -65 256 b -62 264 -65 263 -64 264 b -57 267 -61 263 -58 264 b 74 449 -56 271 60 431 b 3 344 83 460 60 425 z m 524 374 b 532 403 524 375 528 389 b 556 506 547 443 557 492 b 557 515 556 513 556 517 b 550 443 564 511 560 478 b 524 374 538 404 524 367 z m 307 600 b 310 578 310 596 311 588 b 303 579 307 550 301 550 b 307 600 303 601 303 606 z m 517 342 b 515 310 515 333 515 318 b 514 294 515 301 514 294 b 517 350 507 294 510 333 b 517 342 519 356 519 354 z m 197 617 b 189 603 193 608 189 603 b 194 617 188 603 190 608 b 203 632 199 625 203 632 b 197 617 204 632 201 625 z m 294 540 b 300 546 297 544 300 547 b 294 532 300 543 297 538 b 290 526 292 528 290 525 b 294 540 290 529 292 535 z m 183 592 l 178 583 b 179 592 176 583 178 588 b 185 599 182 596 185 599 b 183 592 186 599 185 596 z m 89 465 b 82 460 86 463 83 460 b 88 467 79 460 81 463 b 89 465 93 472 93 471 z m 489 606 b 493 610 490 606 492 607 b 492 613 494 611 493 613 b 488 610 489 613 488 611 b 489 606 488 607 488 606 z "},"s":{"ha":464,"x_min":0,"x_max":0,"o":"m 540 400 b 528 408 536 404 531 407 b 519 411 526 408 522 410 b 382 413 514 415 407 415 b 239 382 351 408 276 393 b 168 371 169 364 172 364 b 158 385 167 375 161 381 b 156 393 156 389 154 392 b 154 394 157 394 156 396 b 101 426 151 394 115 417 b 136 468 100 429 115 446 b 244 544 160 492 189 513 b 290 599 289 571 297 582 b 281 625 288 603 283 614 b 246 679 274 647 260 669 b 169 683 233 689 197 692 b 14 543 118 668 35 593 b 19 436 -4 501 -1 461 b 51 392 25 429 40 408 b 82 349 61 374 76 354 b 92 336 88 342 93 336 l 39 311 b -262 104 -94 254 -232 158 b -271 74 -267 96 -271 82 b -275 65 -271 58 -272 58 b -231 150 -282 86 -267 114 b -222 161 -212 168 -211 171 b -281 72 -261 133 -282 100 b -249 22 -279 56 -276 53 b -212 -19 -232 4 -215 -14 b -140 -58 -204 -33 -172 -50 b -86 -64 -125 -61 -103 -64 b -50 -62 -72 -64 -56 -62 b -42 -60 -44 -62 -40 -61 b -33 -58 -42 -57 -39 -57 b -26 -54 -26 -60 -25 -58 b -24 -54 -29 -50 -29 -50 b -18 -57 -21 -57 -18 -58 b -11 -53 -18 -54 -14 -53 b 10 -47 -4 -51 10 -49 b 24 -46 10 -47 17 -47 b 67 -31 39 -44 65 -35 b 74 -28 68 -28 71 -26 b 164 24 81 -31 122 -7 b 240 150 197 49 235 110 b 222 250 246 186 242 210 l 204 286 l 247 299 l 299 315 b 333 322 306 318 324 322 l 343 326 b 350 328 346 329 349 329 b 369 332 351 328 360 329 b 456 346 385 336 404 339 b 533 344 483 350 528 349 b 546 368 542 338 543 342 b 540 400 547 389 547 394 z m 107 228 b -35 94 79 186 33 144 b -42 96 -36 92 -39 93 b -40 97 -43 99 -42 99 b -32 103 -37 96 -33 99 b -25 108 -29 107 -26 110 b -15 113 -22 107 -18 110 b -12 122 -11 117 -10 121 b -19 119 -14 124 -17 122 b -100 64 -24 113 -78 74 b -139 50 -110 58 -126 53 b -190 44 -167 43 -190 40 b -150 97 -190 50 -169 76 b -6 194 -124 125 -75 157 b 92 242 33 215 86 240 b 107 247 92 242 99 244 b 121 251 114 250 121 253 b 107 228 122 251 115 240 z m 219 178 l 222 211 l 226 194 b 215 115 233 171 229 140 b 176 65 208 101 194 83 b 158 50 161 51 153 43 b 169 65 164 56 169 63 b 174 72 169 67 171 71 b 219 178 193 83 215 135 z m -206 44 b -144 117 -215 44 -169 97 b -147 110 -128 129 -128 129 b -165 86 -158 99 -167 88 b -167 85 -164 85 -164 83 b -197 51 -169 88 -189 68 b -206 44 -200 47 -204 44 z m 99 460 b 128 490 103 465 115 479 l 149 511 l 128 488 l 97 456 b 99 460 90 449 90 450 z m -103 147 b -69 167 -92 157 -69 169 b -92 153 -71 167 -79 160 b -103 147 -103 144 -108 143 z m 14 146 b 0 136 13 146 7 142 b -8 125 -6 129 -10 125 b 6 136 -7 125 0 129 b 14 146 13 142 17 146 z m 38 174 l 28 160 l 40 171 b 50 185 46 178 51 185 b 38 174 50 186 44 181 z m -44 185 b -33 189 -37 188 -33 190 b -44 181 -33 188 -37 185 b -56 178 -50 178 -56 176 b -44 185 -56 178 -50 182 z m 15 218 b 26 222 22 221 26 222 b 15 214 26 221 21 217 b 4 210 10 211 4 210 b 15 218 4 211 10 215 z m -119 136 b -118 135 -114 140 -114 140 b -125 128 -121 131 -124 128 b -119 136 -128 128 -126 131 z m 43 232 b 47 231 47 233 49 233 b 42 226 46 229 43 226 b 43 232 36 226 38 229 z m 89 442 b 83 439 86 435 83 433 b 88 444 83 442 85 443 b 89 442 89 446 90 444 z m 67 206 b 63 201 64 206 63 203 b 64 197 63 200 64 197 b 68 201 65 197 67 200 b 67 206 69 203 68 206 z m 58 239 b 61 238 61 240 63 240 b 56 235 61 236 58 235 b 58 239 50 235 51 238 z m 522 418 b 528 418 529 413 531 413 b 521 421 526 419 524 421 b 522 418 519 421 519 419 z m 508 422 b 513 424 513 422 515 422 b 503 424 510 425 506 425 b 508 422 501 422 503 422 z "},"t":{"ha":515,"x_min":0,"x_max":0,"o":"m 851 857 b 842 865 846 863 842 867 b 850 854 842 863 846 858 b 858 846 856 850 860 846 b 844 853 857 844 851 847 b 822 864 838 858 828 863 b 813 872 817 865 813 869 b 806 876 813 875 810 876 b 804 874 800 876 800 876 b 800 872 811 869 808 868 b 796 878 796 874 794 875 b 629 897 800 883 721 893 b 579 900 601 899 579 900 b 600 936 578 901 588 917 b 664 1076 651 1017 669 1054 b 654 1079 661 1088 654 1089 b 650 1063 654 1076 653 1068 b 646 1074 646 1053 646 1053 b 642 1100 646 1088 644 1097 b 628 1115 639 1104 633 1110 b 611 1139 624 1121 615 1131 b 556 1142 596 1163 579 1164 b 374 918 540 1128 421 981 b 354 899 367 908 357 899 b 354 906 350 899 350 900 b 353 906 360 911 360 911 b 199 888 342 897 328 896 b 63 868 108 882 83 879 b 49 857 43 858 36 853 b 51 854 54 858 54 858 b 50 819 46 849 44 828 b 54 796 51 815 54 806 b 68 769 56 783 58 778 b 136 760 81 760 81 760 b 221 763 167 760 204 761 b 250 765 236 765 250 765 b 194 679 251 765 226 726 b 40 419 117 563 83 507 b 3 347 19 378 3 346 b 61 478 3 351 46 450 l 99 547 b 106 560 101 553 106 560 l 106 565 b 108 568 106 568 107 569 b 111 571 110 567 111 568 b 132 610 111 574 121 590 b 151 643 143 628 151 643 b 140 629 150 643 146 636 b 115 589 136 621 124 603 l 93 551 l 76 522 b -7 347 58 493 10 390 b -36 83 -43 251 -54 146 b -4 35 -31 65 -11 35 b -11 49 -3 35 -6 40 b -33 100 -22 63 -35 89 b -25 83 -33 103 -31 96 b -7 49 -21 71 -12 56 b 0 33 -1 42 1 35 b 69 7 -4 29 31 17 b 199 13 121 -6 158 -4 b 535 286 292 49 419 153 b 601 381 575 333 590 354 b 606 408 611 404 613 408 b 597 415 603 408 600 411 b 582 428 594 419 588 425 l 571 433 l 542 401 b 285 149 449 297 356 206 b 263 131 274 139 264 131 b 199 83 257 125 214 93 b 122 47 175 69 136 50 b 131 54 115 46 119 49 b 200 93 161 67 200 89 b 190 90 200 96 196 94 b 76 47 160 68 85 40 b 74 83 75 49 74 65 b 85 146 75 110 76 124 b 433 701 119 249 238 433 b 513 790 497 788 499 789 b 654 797 538 794 594 796 b 710 801 685 797 710 800 b 689 803 710 803 700 804 b 669 804 678 803 669 803 b 710 808 669 807 686 808 b 717 811 714 808 717 810 b 726 811 717 814 721 813 b 735 810 731 810 735 808 b 761 811 735 813 747 813 b 786 813 776 810 786 811 b 790 811 786 815 788 814 b 794 811 793 807 793 807 b 797 813 794 815 794 815 b 811 808 799 811 804 808 l 826 808 b 831 799 828 807 831 804 b 849 810 833 788 839 790 b 851 857 864 838 864 846 z m 64 47 b 56 71 61 40 58 51 l 54 92 l 60 71 b 64 47 63 60 64 50 z m 826 868 b 832 865 828 869 831 868 b 838 864 833 864 836 863 b 824 874 840 867 831 874 b 821 869 821 874 819 872 b 826 868 822 868 825 867 z m 231 118 b 232 115 225 111 225 111 b 239 122 236 118 239 121 b 231 118 238 124 233 121 z m 251 135 b 244 128 247 132 244 128 b 253 132 244 125 247 126 b 251 135 257 139 257 139 z m 218 108 b 211 101 214 106 211 103 b 219 107 211 99 214 101 b 218 108 224 113 224 113 z m 369 924 b 368 925 374 929 374 929 b 361 918 364 922 361 919 b 369 924 361 915 364 918 z m 536 804 b 531 807 529 804 528 806 b 542 806 535 807 539 807 b 536 804 544 806 542 804 z m 101 44 b 108 44 103 46 107 46 b 103 42 110 43 107 42 b 101 44 99 43 97 43 z m 103 869 b 101 872 99 871 97 871 b 108 872 103 874 107 874 b 103 869 110 871 107 869 z m 58 110 b 60 113 58 114 58 115 b 60 106 61 110 61 107 b 58 110 58 104 57 106 z "},"u":{"ha":1001,"x_min":0,"x_max":0,"o":"m 1101 410 b 1094 414 1099 414 1096 415 b 1078 425 1094 413 1086 418 b 1060 438 1069 432 1061 438 b 1051 425 1058 438 1056 432 b 939 300 1040 404 1013 374 b 750 136 861 222 813 181 b 588 51 689 93 622 58 b 606 60 582 50 589 54 b 732 131 642 75 692 101 b 831 211 769 158 831 207 b 824 208 831 213 828 211 b 556 51 707 113 632 68 b 518 75 524 44 521 46 b 692 425 508 142 563 251 b 800 579 757 513 792 561 b 799 631 811 601 811 619 b 786 638 793 635 788 638 b 763 658 785 636 774 646 b 703 686 736 685 722 692 b 546 551 669 678 599 617 b 499 496 528 528 507 503 l 485 483 l 496 500 b 656 681 539 568 613 651 b 700 696 675 694 679 696 b 715 700 721 696 722 696 b 618 663 693 713 661 701 b 476 486 568 618 533 575 b 297 313 454 451 433 431 b 126 199 226 251 135 190 b 135 231 124 200 131 226 b 139 239 136 232 139 236 b 144 251 139 242 142 249 b 146 256 149 257 149 258 b 149 264 143 254 143 258 b 158 285 153 269 157 279 b 164 293 160 290 163 294 b 182 326 167 290 182 318 b 186 329 182 329 183 331 b 204 353 189 328 204 346 b 208 357 204 356 206 357 b 211 363 210 357 211 360 b 215 368 211 365 213 368 b 219 374 217 368 219 371 b 222 379 219 376 221 379 b 226 382 225 379 226 381 b 232 393 226 385 229 389 b 260 429 236 397 249 413 b 282 460 269 444 281 458 b 283 467 285 461 285 464 b 289 472 282 468 285 471 b 294 476 293 474 296 476 b 299 485 293 478 296 482 b 310 500 303 489 307 494 b 319 513 314 504 318 510 b 363 581 326 519 356 567 b 367 618 369 594 371 608 b 358 618 364 626 358 626 b 338 633 358 615 350 621 b 260 676 313 657 269 681 b 236 667 257 674 246 669 b 201 647 226 663 211 654 b 114 558 182 632 136 585 b 47 457 99 539 58 478 b 36 442 43 449 38 442 b 36 453 31 442 31 443 b 38 460 38 457 39 460 b 32 451 36 460 35 456 b 32 439 29 446 29 443 b 29 435 35 436 35 435 b 24 431 26 436 24 433 b 21 426 25 429 22 426 b 18 424 18 426 17 425 b 26 426 19 424 24 424 b 29 424 31 431 31 429 b 24 418 29 419 25 417 b 17 403 18 419 13 410 b 15 401 18 401 17 400 b -11 264 7 410 -14 303 b 25 175 -8 222 10 179 b 22 182 28 174 28 176 b -4 261 8 196 -3 232 b -3 288 -4 275 -4 288 b 1 267 0 288 1 278 b 29 182 1 240 14 203 b 33 168 38 169 39 167 b 33 165 26 171 28 171 b 43 161 38 163 42 160 b 47 160 46 163 47 163 b 94 144 47 157 82 144 b 115 139 99 144 108 142 b 182 138 139 129 154 129 b 264 179 211 146 231 156 b 368 260 294 200 363 251 b 378 265 371 263 375 265 b 385 271 381 265 383 268 b 392 275 386 274 389 276 b 390 267 394 272 393 271 b 389 257 389 264 388 260 b 388 249 390 253 389 250 b 382 168 383 247 382 219 b 413 58 382 119 392 86 b 513 8 435 29 453 19 b 697 25 588 -6 635 -1 b 882 139 742 43 831 99 b 1090 353 964 203 1054 296 b 1101 410 1103 371 1108 401 z m 143 190 b 128 186 129 185 128 183 b 149 199 128 188 138 193 b 376 375 201 226 256 268 b 422 410 453 443 468 454 b 143 190 314 306 197 213 z m 54 490 b 61 501 56 492 60 497 b 79 528 65 511 72 522 b 89 544 82 531 86 539 b 154 631 99 563 133 610 b 144 628 179 657 172 656 b 99 568 122 606 100 576 b 92 561 97 565 94 563 b 88 553 89 560 88 556 b 83 547 88 550 85 547 b 79 542 82 547 79 544 b 76 536 79 539 78 536 b 72 531 74 536 72 535 b 68 521 72 528 71 524 b 58 506 65 518 61 511 b 51 492 56 499 51 493 b 54 490 50 489 51 489 z m 449 31 b 432 44 447 31 440 38 b 393 115 415 58 396 93 b 401 100 392 124 394 118 b 432 51 410 81 419 65 b 449 31 442 40 450 31 z m 118 214 b 110 204 115 192 107 182 b 121 236 111 215 118 236 b 118 214 122 236 121 226 z m 511 46 b 500 79 506 46 501 60 l 497 99 l 503 81 l 510 54 b 511 46 511 50 511 46 z m 490 476 b 475 458 489 472 482 464 l 463 447 l 471 458 l 486 476 l 494 483 z m 794 625 b 797 617 796 621 797 618 b 794 614 797 615 796 614 b 790 622 792 614 790 617 b 794 625 790 628 792 629 z m 50 471 b 49 474 51 471 50 472 b 51 481 47 474 49 478 b 51 485 53 483 54 485 b 46 472 47 485 43 476 b 50 471 47 471 49 471 z m 843 222 b 844 226 849 228 849 229 b 836 219 842 225 838 222 b 843 222 833 213 836 213 z m 176 650 b 181 654 178 650 179 651 b 179 657 182 656 181 657 b 175 654 176 657 175 656 b 176 650 175 651 175 650 z m 6 325 b 3 329 4 324 3 326 b 6 332 3 335 4 335 b 6 325 7 329 6 326 z m 568 46 b 567 49 564 46 563 47 b 574 47 569 49 572 49 b 568 46 575 47 572 46 z m 393 218 b 393 210 394 217 394 213 b 392 214 393 207 392 210 b 393 218 392 219 392 221 z m 8 340 b 7 344 7 339 7 340 b 8 347 7 349 8 350 b 8 340 10 344 10 340 z "},"v":{"ha":801,"x_min":0,"x_max":0,"o":"m 794 693 b 774 725 790 699 781 713 b 735 761 756 756 744 765 b 735 756 726 757 726 757 b 722 749 742 756 736 753 b 694 736 710 744 697 739 b 706 717 690 731 692 728 b 715 693 719 703 719 703 b 563 511 703 669 622 574 b 539 482 554 501 543 489 b 526 472 533 476 528 471 b 524 472 524 474 524 474 b 485 431 524 469 507 451 l 407 356 b 296 253 374 322 353 304 b 279 235 282 242 275 233 b 290 242 283 236 289 239 b 326 274 292 244 308 258 b 453 390 364 306 372 313 b 510 447 485 421 511 447 b 517 456 508 449 513 453 b 539 476 521 458 531 468 b 622 561 567 508 622 564 b 631 564 622 558 625 561 b 417 338 651 583 475 394 b 81 85 274 197 158 110 b 60 79 69 81 60 78 b 69 97 57 82 65 97 b 135 128 75 97 135 125 b 101 114 135 129 119 122 b 67 101 83 106 68 100 b 176 292 61 107 101 179 b 313 508 282 451 299 479 b 325 565 326 540 331 554 b 317 557 322 574 322 574 b 274 481 310 536 274 474 b 281 496 274 483 276 490 b 304 546 292 513 307 543 b 307 547 303 546 304 547 b 289 604 317 547 307 578 b 268 632 279 618 271 631 b 183 586 256 642 222 624 b 97 482 167 571 119 514 b -22 267 36 396 3 336 b -25 276 -36 231 -37 236 b 32 403 -11 319 10 367 b 50 435 42 419 50 435 b 119 536 50 440 107 524 b 129 553 122 539 126 547 b 135 563 132 558 135 563 b 167 592 135 561 149 574 b 226 636 190 614 207 626 b 243 650 247 647 250 650 b 167 603 226 650 192 629 b 142 576 153 590 142 578 b 132 563 142 575 138 569 b 106 528 118 549 106 532 b 99 518 106 526 103 522 b -4 350 78 500 19 406 l -24 307 b -58 199 -32 293 -53 228 b -62 146 -62 179 -64 161 b -56 142 -58 111 -54 108 b -50 210 -57 169 -53 213 b -47 167 -50 208 -49 189 b 14 44 -44 100 -28 67 b 49 19 25 38 40 28 b 76 3 58 13 69 4 b 128 0 83 0 106 -1 b 313 75 185 1 231 19 b 744 503 456 172 650 365 b 800 611 769 540 792 583 b 794 693 808 640 806 679 z m 165 321 b 221 400 183 349 219 401 b 194 357 222 399 210 379 b 165 321 167 314 147 290 z m 782 601 b 768 571 776 586 769 572 b 778 600 767 571 771 583 b 790 656 788 624 790 638 b 794 671 792 676 792 679 b 782 601 799 656 794 635 z m 57 129 l 50 108 b 43 93 47 100 44 93 b 54 129 39 93 47 119 b 57 129 57 135 58 135 z m 58 139 b 82 183 58 143 81 185 b 72 161 82 183 78 172 b 58 139 60 138 58 135 z m 43 75 b 39 82 42 75 39 78 b 43 90 39 86 42 90 b 47 82 44 90 47 86 b 43 75 47 78 44 75 z m 135 272 b 140 281 136 276 139 281 b 139 272 140 281 140 276 b 133 265 139 268 136 265 b 135 272 132 265 132 268 z m 614 549 b 621 558 619 554 622 558 b 611 549 619 558 615 554 b 604 540 606 544 603 540 b 614 549 606 540 610 544 z m 265 226 b 261 221 261 225 260 222 b 269 225 264 217 269 221 b 265 226 269 226 268 228 z m 210 181 b 206 174 206 178 204 174 b 214 181 206 174 210 178 b 218 189 217 185 219 189 b 210 181 217 189 214 185 z m 649 585 b 640 576 646 581 642 576 b 646 585 640 576 642 581 b 654 592 649 588 653 592 b 649 585 656 592 653 588 z m 244 207 b 246 203 244 204 244 203 b 250 207 247 203 249 204 b 249 211 251 208 250 211 b 244 207 246 211 244 208 z m 94 208 b 96 206 96 210 97 208 b 90 203 93 199 90 197 b 94 208 90 204 92 207 z m 667 606 b 660 599 664 601 660 599 b 665 607 657 599 658 601 b 667 606 671 611 671 611 z m 681 624 b 675 617 678 619 675 617 b 679 625 671 617 674 619 b 681 624 685 629 685 629 z m 692 638 b 685 632 689 635 686 632 b 690 639 682 632 685 635 b 692 638 696 644 696 644 z "},"w":{"ha":1375,"x_min":0,"x_max":0,"o":"m 1490 397 b 1489 414 1489 401 1488 410 b 1474 436 1489 422 1479 438 b 1472 431 1472 435 1472 432 b 1435 417 1475 428 1438 415 b 1451 424 1435 418 1442 421 b 1461 431 1461 428 1465 429 b 1399 408 1457 431 1428 421 l 1325 381 b 1301 372 1314 378 1303 374 b 1293 369 1299 371 1296 369 b 1258 360 1292 369 1275 364 b 1079 329 1200 342 1140 332 b 1019 333 1025 326 1021 326 b 1019 338 1018 338 1018 339 b 1049 365 1022 335 1036 349 b 1060 381 1051 371 1057 378 b 1138 513 1085 408 1131 485 b 1144 575 1147 540 1149 560 b 1138 592 1142 585 1139 592 b 1118 639 1132 592 1128 603 b 1099 688 1113 657 1104 679 l 1083 713 b 1047 735 1079 725 1063 735 b 907 647 1017 733 956 696 b 803 489 856 596 810 525 b 807 492 801 476 801 478 b 814 506 810 500 814 507 b 813 492 815 504 814 499 b 804 446 810 485 807 464 b 813 389 801 411 801 411 l 825 368 l 806 351 b 465 106 701 257 549 146 b 421 85 446 94 425 86 b 418 121 411 81 410 86 b 422 147 421 135 424 146 b 418 144 421 149 419 147 b 407 92 415 135 410 106 b 400 79 406 83 403 79 b 400 114 393 79 393 81 b 476 304 408 156 429 208 l 525 404 b 531 438 531 415 532 424 b 488 518 529 468 501 518 b 472 510 485 518 478 514 b 474 515 463 503 463 503 b 479 533 488 529 489 533 b 443 499 476 533 460 518 b 307 356 428 481 367 415 b 138 178 210 256 164 207 b 250 288 133 172 183 222 b 344 378 315 353 358 393 b 89 118 314 343 110 138 b 50 92 69 103 50 89 b 178 278 50 100 139 231 l 189 294 l 203 313 b 260 394 219 331 261 392 b 261 396 258 397 260 397 b 269 403 264 394 267 399 b 278 413 272 408 276 413 b 281 418 279 413 281 414 b 285 422 281 421 282 422 b 294 436 286 422 290 429 b 306 456 297 444 303 453 b 338 507 315 465 339 504 b 340 513 336 508 338 511 b 363 558 347 514 361 543 b 367 572 364 564 365 571 b 365 581 367 574 367 578 b 360 575 363 585 361 583 b 353 560 358 569 356 563 b 351 546 351 557 350 551 b 349 539 354 539 353 538 b 343 535 344 540 343 539 b 339 531 343 532 342 529 b 336 528 338 532 336 531 b 332 522 336 525 333 522 b 328 517 331 522 328 519 b 325 511 328 514 326 511 b 321 506 322 511 321 508 b 317 500 321 503 319 500 b 321 511 315 500 317 506 b 317 639 357 567 357 586 b 249 665 288 679 274 683 b 201 618 231 650 219 639 b 183 599 194 607 186 599 b 194 614 182 599 188 606 b 190 611 207 628 206 626 b 171 590 179 601 171 592 b 176 593 171 588 174 589 b 182 597 179 597 182 599 b 153 560 182 596 169 579 b -44 217 61 443 -8 324 b -51 203 -50 199 -51 194 l -46 226 b -42 238 -43 233 -42 238 b -24 292 -43 238 -37 257 b 43 426 -10 329 35 419 l 60 454 b 157 592 82 490 126 556 b 254 686 196 638 246 686 b 264 690 258 686 263 688 b 244 693 268 696 254 697 b 119 558 228 683 153 603 b 43 443 90 521 43 449 b 33 426 43 442 39 435 b 22 404 28 419 24 410 b 17 393 22 400 18 394 b 14 390 14 392 13 390 b 10 382 15 390 14 386 b 0 363 6 378 1 369 b -6 350 0 356 -3 350 b -8 344 -7 350 -8 347 b -12 332 -8 342 -10 336 b -28 294 -24 311 -31 294 b -29 292 -26 294 -26 293 b -46 250 -32 290 -39 272 b -62 176 -57 221 -60 203 b -49 72 -64 136 -60 92 b -12 35 -42 58 -19 35 b 8 21 -11 35 -1 28 b 68 6 28 3 44 -1 b 129 36 90 11 122 28 b 135 40 132 40 135 42 b 144 47 135 38 139 42 b 151 53 150 54 153 56 b 157 57 150 50 151 51 b 169 65 163 63 168 67 b 169 67 171 64 171 64 b 182 81 167 71 179 83 b 196 93 183 79 190 85 b 211 106 203 101 210 107 b 226 117 213 106 219 110 b 236 131 232 124 238 131 l 235 131 b 238 138 235 132 236 135 b 246 143 239 142 243 144 b 250 144 250 142 251 142 b 271 172 249 146 258 158 b 301 142 299 201 297 203 b 365 19 306 71 318 46 l 401 -3 b 435 -21 410 -10 425 -17 b 493 -26 449 -26 458 -28 b 536 -21 515 -25 535 -24 b 569 -10 539 -18 567 -8 b 597 3 571 -10 583 -4 b 626 17 611 11 625 17 b 647 29 628 17 638 22 b 668 42 657 36 667 42 b 678 50 669 42 675 46 l 686 56 b 693 58 688 54 690 56 b 703 61 696 61 700 63 b 704 63 706 60 706 61 b 721 76 701 65 717 78 b 722 78 724 75 724 76 b 732 88 721 79 725 83 b 740 97 738 90 742 96 b 742 100 739 100 739 101 b 754 104 743 99 749 100 b 757 110 758 108 760 111 b 754 111 754 108 753 108 b 760 114 756 114 758 114 b 769 118 761 113 767 114 b 772 121 774 121 775 122 b 769 122 768 118 768 119 b 775 125 771 125 774 125 b 794 136 776 124 785 129 b 811 154 814 153 819 157 b 815 158 808 153 810 154 b 828 167 821 163 826 167 b 843 179 829 167 836 172 l 869 203 b 888 222 878 210 886 218 b 892 228 888 226 890 228 b 914 246 893 228 903 236 b 943 263 933 264 943 269 b 938 257 943 260 942 258 b 935 251 935 256 933 253 b 929 246 935 249 933 247 b 922 238 925 244 922 240 b 917 231 922 235 919 232 b 917 229 914 231 914 229 b 943 253 921 229 944 250 b 972 254 942 258 964 258 b 997 249 976 253 988 250 b 1018 244 1007 247 1017 246 b 1071 242 1019 243 1043 242 b 1119 246 1115 240 1119 240 b 1122 246 1121 251 1121 251 b 1131 240 1122 243 1126 240 b 1135 246 1133 242 1136 243 b 1150 246 1133 251 1146 250 b 1156 247 1151 243 1154 243 b 1160 247 1160 251 1160 251 b 1164 247 1160 242 1160 242 b 1167 250 1165 250 1167 251 b 1175 251 1167 249 1171 249 b 1182 251 1179 253 1182 253 b 1186 247 1182 249 1183 247 b 1188 250 1188 247 1189 249 b 1189 256 1186 253 1186 256 b 1194 254 1190 257 1193 257 b 1207 257 1196 253 1200 253 b 1221 258 1219 263 1224 263 b 1228 260 1219 257 1222 257 b 1236 267 1232 261 1236 265 b 1240 267 1236 268 1239 268 b 1250 269 1243 265 1247 267 b 1260 272 1253 271 1257 272 b 1376 314 1265 269 1322 290 b 1490 397 1450 346 1494 379 z m 875 419 b 871 417 872 419 871 418 b 865 406 871 415 868 410 b 860 407 860 399 860 400 b 885 467 860 419 869 443 b 972 558 899 489 965 558 b 975 563 975 558 976 560 b 981 568 974 564 976 567 b 1004 579 986 569 996 575 b 1015 579 1018 589 1025 589 b 1010 568 1013 576 1010 571 b 926 465 1010 558 972 514 b 875 419 900 440 878 419 z m 776 307 b 694 232 750 281 713 247 b 463 78 617 167 514 100 b 411 63 436 67 414 60 b 422 79 408 67 417 79 b 443 86 425 79 435 82 b 463 93 451 90 460 93 b 476 101 464 93 471 97 b 486 106 482 106 486 107 b 492 108 486 104 489 106 b 515 122 496 111 506 118 b 796 329 569 151 710 254 b 776 307 815 347 810 340 z m 1001 339 l 1011 351 b 1047 397 1015 354 1031 375 b 1129 565 1100 467 1124 517 b 1138 579 1133 589 1133 589 b 1081 422 1150 547 1132 500 b 1044 375 1067 404 1051 382 l 1021 347 b 1001 339 1008 331 994 325 z m 1186 329 b 1117 318 1163 324 1132 319 b 1035 317 1068 315 1064 315 b 1049 322 997 319 1008 324 b 1274 357 1111 319 1200 333 b 1308 367 1292 363 1308 367 b 1186 329 1313 364 1228 338 z m 1006 710 b 1064 722 1035 725 1053 728 b 1056 711 1079 714 1076 710 b 1017 707 1043 713 1028 711 b 982 693 1006 703 990 697 b 1006 710 958 682 978 696 z m 494 306 b 500 317 497 308 500 313 b 504 326 500 319 503 325 b 504 333 507 329 507 331 b 500 332 503 335 500 333 b 493 317 500 329 497 322 b 485 299 489 311 485 304 b 482 292 485 294 483 292 b 478 283 479 292 478 288 b 475 278 478 279 478 276 b 467 264 474 279 469 272 b 464 247 464 254 463 247 b 490 300 468 247 493 297 b 494 306 489 301 490 304 z m 1472 356 l 1443 338 b 1424 324 1432 332 1424 325 b 1426 324 1424 319 1425 319 b 1431 325 1426 325 1429 326 b 1435 328 1433 325 1435 325 b 1438 329 1435 331 1436 331 b 1442 331 1440 328 1442 329 b 1450 336 1442 333 1446 335 b 1482 363 1458 339 1482 358 b 1472 356 1482 364 1478 361 z m 976 500 l 932 450 b 936 458 903 421 903 421 b 976 500 986 514 993 522 z m 515 344 b 524 365 515 346 519 356 b 529 382 529 375 531 382 b 518 364 528 382 522 375 b 507 346 514 354 508 346 b 504 343 506 346 504 344 b 510 340 504 342 507 340 b 515 344 513 340 515 342 z m 153 574 b 138 556 144 565 138 557 b 167 586 138 551 167 582 b 153 574 167 588 161 582 z m 400 60 b 394 65 397 60 394 63 b 400 71 394 69 397 71 b 406 65 403 71 406 69 b 400 60 406 63 403 60 z m 422 151 b 431 160 424 151 428 156 b 428 167 433 165 433 167 b 425 164 425 167 424 165 b 424 157 426 163 425 160 b 422 151 421 154 421 151 z m 439 182 b 438 188 440 186 440 189 b 432 178 435 186 432 182 b 439 182 431 168 436 171 z m 224 119 b 211 111 213 107 211 106 b 224 122 211 113 217 118 l 235 131 z m 447 213 b 442 200 444 208 442 203 b 449 208 442 193 444 196 b 447 213 453 218 453 219 z m 1346 379 b 1332 374 1343 378 1338 375 b 1328 375 1325 372 1325 372 l 1343 381 b 1346 379 1349 382 1350 382 z m 907 221 b 900 214 903 219 900 215 b 907 217 900 213 903 214 l 914 224 b 907 221 914 225 911 224 z m 1410 321 b 1400 315 1408 321 1403 318 b 1401 314 1393 310 1393 310 b 1410 321 1413 318 1415 321 z m 946 522 b 950 529 949 526 951 529 b 942 522 949 529 946 526 b 938 514 938 518 936 514 z m 1378 306 b 1368 301 1375 306 1371 304 b 1367 299 1365 300 1365 299 b 1376 301 1368 299 1372 300 b 1378 306 1379 304 1379 306 z m 889 211 b 889 207 885 210 885 208 b 894 203 892 204 894 203 l 894 208 b 889 211 894 211 893 213 z m 464 240 b 460 243 464 242 463 243 b 457 240 458 243 457 242 b 460 236 457 238 458 236 b 464 240 463 236 464 238 z m 882 443 b 878 438 879 442 878 439 b 882 436 878 435 879 435 b 885 442 883 438 885 440 b 882 443 885 443 883 444 z m 453 225 b 454 221 453 224 454 221 b 458 225 456 221 457 224 b 457 229 460 228 458 229 b 453 225 454 229 453 228 z m 800 435 l 800 457 b 799 447 799 464 799 458 b 800 435 799 435 799 429 z m 881 607 b 882 606 886 611 886 611 b 875 599 879 601 876 599 b 881 607 872 599 875 601 z m 992 524 l 997 529 b 999 528 1004 535 1004 535 b 992 524 994 522 992 521 z m 807 410 b 804 414 806 408 804 410 b 807 417 806 418 806 419 b 807 410 808 414 808 411 z m 993 321 b 990 322 989 321 988 322 b 997 322 993 324 996 324 b 993 321 999 321 997 321 z "},"x":{"ha":551,"x_min":0,"x_max":0,"o":"m 619 410 l 608 422 b 582 407 600 435 593 431 b 503 301 571 383 550 354 b 218 54 403 185 293 89 b 142 33 190 42 149 31 b 122 92 136 38 125 67 b 136 233 117 124 122 169 b 163 306 150 296 151 300 b 172 314 167 308 172 313 b 192 325 174 315 182 321 b 275 375 200 329 238 353 l 401 451 b 563 560 486 501 539 538 b 583 592 581 576 583 581 b 579 607 583 600 582 606 b 574 624 578 607 575 615 b 535 671 568 658 556 674 b 310 558 513 668 358 590 b 292 547 301 553 293 547 b 213 499 290 547 242 518 l 203 492 l 204 525 b 179 626 207 571 199 603 b 161 640 171 635 164 642 b 157 643 160 640 158 640 b 147 647 157 644 151 647 b 108 667 142 649 125 657 b 54 674 74 686 61 688 b 54 657 51 667 51 663 b 54 561 61 647 60 593 b -1 361 46 524 1 364 l -42 329 b -92 286 -62 313 -85 293 b -114 268 -99 279 -108 271 b -121 254 -124 261 -128 254 b -97 275 -119 254 -108 264 b -43 321 -85 286 -61 307 b -6 353 -26 336 -10 350 b 0 354 -3 356 0 357 b -35 322 0 353 -15 338 l -94 272 b -126 250 -121 250 -131 243 b -161 225 -119 260 -131 253 b -193 190 -179 208 -193 193 b -181 200 -193 189 -187 193 b -182 194 -169 210 -169 208 b -201 179 -192 186 -200 179 b -281 88 -207 183 -283 96 b -282 85 -279 85 -279 83 b -292 65 -286 88 -293 72 b -293 63 -290 63 -290 61 b -294 57 -296 64 -296 63 b -296 51 -293 51 -293 49 b -300 49 -299 53 -300 51 b -303 31 -300 46 -301 38 b -289 0 -304 18 -303 15 b -267 -11 -271 -17 -267 -19 b -193 67 -267 -7 -224 40 b -64 171 -156 100 -68 171 b -64 163 -62 171 -62 167 b -62 156 -65 158 -64 156 b -58 163 -60 156 -58 158 b -50 181 -58 174 -57 175 b -37 178 -43 186 -35 183 b -36 168 -39 175 -39 171 b -32 169 -33 161 -33 163 b -24 164 -32 183 -25 179 b 1 75 -15 113 -11 100 b 53 17 17 44 36 22 b 60 8 58 14 61 10 b 63 7 58 6 60 6 b 71 7 64 8 68 8 b 115 -1 78 3 82 1 b 158 -10 132 -4 151 -7 b 449 140 224 -29 336 29 b 563 274 506 196 567 267 b 567 276 561 275 563 276 b 572 281 569 276 572 278 b 583 297 572 286 574 289 b 588 304 588 303 590 306 b 588 308 583 301 583 303 b 594 315 589 313 593 315 b 597 318 596 314 596 315 b 607 344 597 328 600 335 b 617 372 614 356 617 361 b 621 379 617 376 619 379 b 622 385 622 379 624 382 b 624 390 621 388 621 390 b 619 410 628 390 625 403 z m 183 596 b 186 554 186 588 188 568 l 186 528 l 183 557 b 163 622 181 585 171 617 b 158 629 160 624 158 626 b 183 596 158 638 179 610 z m 124 31 b 103 76 119 31 103 68 b 113 63 103 81 107 74 b 124 36 118 50 122 38 b 124 31 125 33 125 31 z m -51 174 b -54 164 -53 171 -54 167 b -47 164 -54 160 -53 160 b -44 174 -42 167 -42 169 b -51 174 -47 176 -49 176 z m -125 113 b -132 106 -129 113 -132 108 b -131 101 -132 101 -131 100 b -125 108 -129 101 -128 106 b -125 113 -119 114 -119 115 z m 568 588 b 575 596 574 599 575 601 b 569 586 575 594 574 590 b 568 588 564 579 564 579 z m -186 63 b -190 57 -189 61 -190 58 b -185 58 -190 51 -187 53 b -186 63 -183 63 -185 64 z m -71 163 b -75 160 -72 163 -74 161 b -74 156 -76 157 -75 156 b -69 160 -71 156 -69 157 b -71 163 -69 161 -69 163 z m 549 569 b 550 568 554 575 556 575 l 544 563 b 549 569 540 563 543 565 z m -229 143 b -237 139 -235 138 -237 136 b -231 144 -237 139 -235 142 b -229 143 -225 150 -225 150 z m 13 35 b 11 33 7 40 7 39 b 18 28 14 31 17 28 b 13 35 21 28 18 31 z m 101 90 b 100 97 101 88 100 90 b 101 103 100 104 101 107 b 101 90 103 100 103 94 z m -156 93 l -158 90 b -157 86 -160 88 -160 86 b -153 90 -156 86 -153 88 b -156 93 -153 92 -154 93 z m -33 143 l -33 154 b -36 150 -35 158 -35 156 b -33 143 -36 144 -35 142 z m -139 235 b -146 231 -143 229 -146 228 l -140 236 b -139 235 -133 242 -133 242 z m -36 132 b -33 128 -36 128 -35 126 b -33 135 -33 128 -32 132 b -36 132 -35 138 -36 136 z "},"y":{"ha":917,"x_min":0,"x_max":0,"o":"m 1039 372 b 1036 378 1036 374 1036 378 b 1031 379 1038 379 1035 379 l 985 379 b 967 382 953 379 951 379 b 956 383 982 385 979 385 b 724 313 925 381 726 311 b 738 347 724 314 729 329 b 807 635 792 460 822 592 b 799 644 804 644 801 647 b 799 626 796 642 794 636 b 706 328 810 582 767 444 b 707 343 683 286 685 297 b 792 639 765 468 800 586 b 775 682 789 650 783 669 b 743 719 756 721 754 722 b 735 725 733 718 732 718 b 740 732 736 729 739 732 b 742 736 743 732 743 733 b 725 724 739 743 732 739 b 715 710 722 715 717 710 b 701 689 713 708 708 700 b 600 568 693 674 654 625 b 557 522 593 561 575 540 b 228 194 407 360 296 250 b 57 90 164 144 85 94 b 50 135 44 89 42 104 b 190 383 61 186 88 233 b 317 622 288 526 314 575 b 294 678 321 654 314 669 b 243 717 279 686 258 701 b 210 728 232 726 219 732 b 196 700 207 726 201 714 b 133 588 186 676 154 617 b 24 408 115 563 46 447 b -53 185 -21 331 -47 251 b -36 97 -56 146 -51 122 b -35 90 -26 83 -26 82 b -62 168 -50 106 -62 139 b -18 349 -64 213 -40 300 b -12 363 -12 356 -11 363 b -46 288 -17 363 -37 314 b -50 272 -47 283 -50 276 b -65 139 -64 225 -71 167 b -26 78 -60 113 -43 89 b 29 56 -18 72 7 63 b 96 47 71 43 72 43 b 532 399 182 65 328 183 b 547 410 550 417 554 419 b 531 383 543 403 535 392 l 397 182 b 338 144 390 174 378 164 b 107 8 247 97 119 22 b 103 6 104 3 101 3 b 100 6 106 10 106 10 l 82 -10 b 65 -19 78 -14 71 -18 b 61 -26 61 -21 60 -24 b 57 -29 63 -28 60 -29 b 49 -36 54 -29 51 -32 b 44 -40 47 -39 46 -40 b 33 -47 43 -39 39 -42 b 18 -56 28 -53 21 -57 b 3 -61 15 -54 8 -57 b 8 -62 -11 -69 -7 -71 b 6 -65 17 -56 17 -57 b -12 -74 0 -69 -8 -74 b -21 -82 -17 -75 -21 -78 b -36 -99 -21 -86 -28 -93 b -62 -119 -44 -104 -56 -114 b -82 -128 -71 -126 -76 -129 b -93 -131 -87 -126 -92 -128 b -112 -149 -94 -133 -104 -142 b -128 -164 -124 -156 -129 -162 b -97 -140 -126 -165 -122 -161 b -82 -131 -89 -135 -82 -131 b -104 -153 -81 -132 -90 -142 b -210 -250 -140 -182 -176 -215 b -242 -279 -225 -267 -240 -281 b -243 -282 -244 -279 -244 -281 b -258 -308 -242 -285 -249 -296 b -300 -400 -286 -347 -297 -371 b -306 -425 -301 -418 -304 -426 b -303 -431 -308 -424 -307 -426 b -278 -447 -299 -435 -287 -443 b -257 -458 -267 -451 -258 -456 b -214 -478 -254 -464 -229 -475 b -104 -472 -193 -482 -135 -479 b 164 -349 -35 -457 85 -401 b 625 143 331 -236 492 -64 b 664 200 643 174 661 199 b 869 282 668 204 856 279 b 881 288 875 283 881 286 b 885 289 882 289 883 290 b 889 292 888 288 889 289 b 893 293 889 293 890 294 b 904 296 894 292 899 293 b 907 297 907 299 908 300 b 918 300 904 294 911 296 b 935 307 925 304 933 307 b 946 311 938 306 942 308 b 960 317 949 314 954 315 b 976 321 964 317 972 318 b 1028 325 988 326 1028 331 b 1029 324 1026 324 1028 324 b 1039 372 1036 328 1042 367 z m 226 -85 b 6 -303 147 -178 78 -246 b -185 -415 -58 -354 -133 -397 b -229 -424 -199 -419 -219 -424 l -246 -425 l -242 -412 b -126 -265 -233 -379 -186 -318 b 271 10 -32 -181 122 -74 l 311 32 b 324 38 318 36 324 39 b 226 -85 324 33 271 -33 z m 454 225 b 418 186 439 200 432 192 b 404 181 411 182 404 179 b 425 208 404 181 414 193 l 489 304 l 567 424 b 618 492 590 461 615 494 b 454 225 619 489 515 317 z m 300 658 b 303 636 303 654 304 644 b 299 613 303 628 300 617 b 297 625 296 606 296 610 b 297 656 297 636 297 651 b 300 658 294 664 294 664 z m -25 -83 b -31 -86 -25 -82 -28 -82 b -39 -92 -33 -89 -37 -92 b -60 -107 -40 -92 -50 -99 l -78 -124 l -62 -112 b -36 -94 -53 -106 -42 -97 b -25 -83 -29 -90 -25 -86 z m 32 107 b 31 119 31 101 31 106 b 33 131 32 132 33 138 b 32 107 33 125 32 114 z m -136 -172 b -132 -171 -135 -172 -133 -172 b -136 -169 -132 -171 -133 -169 b -151 -182 -139 -169 -146 -175 l -162 -193 l -150 -182 b -136 -172 -144 -176 -137 -172 z m 938 374 b 933 376 932 374 929 375 b 944 376 936 376 942 378 b 938 374 947 375 944 375 z m -14 -76 b -14 -79 -12 -76 -11 -78 b -18 -83 -15 -82 -17 -83 b -19 -81 -18 -83 -19 -82 b -14 -76 -18 -78 -17 -76 z "},"z":{"ha":760,"x_min":0,"x_max":0,"o":"m 757 689 b 696 699 743 696 735 697 b 619 697 671 699 636 699 b 496 675 582 693 506 679 b 549 681 489 672 493 672 b 700 689 611 690 649 693 b 763 668 749 686 765 681 b 749 671 761 663 760 663 b 692 682 739 678 728 679 b 467 661 633 686 569 681 b 190 619 335 635 233 619 b 153 624 165 619 153 621 b 176 628 154 625 164 628 b 169 629 196 628 194 628 b 136 626 149 631 140 631 b 125 621 132 624 128 621 b 119 619 122 621 121 621 b 132 581 119 617 126 592 b 135 567 135 575 135 569 b 208 529 129 553 175 531 l 231 529 b 286 529 235 528 265 528 b 310 529 296 529 307 531 b 453 551 317 529 451 549 b 624 574 460 554 622 575 b 604 563 624 572 615 568 b 544 529 593 557 567 542 l 408 457 l 258 374 b 68 240 203 340 69 247 b 69 239 65 238 67 238 b 50 214 72 239 64 229 b -18 121 14 178 -7 146 b -24 83 -26 101 -29 97 b -18 28 -21 64 -15 33 b 6 -6 -19 22 -6 1 b 32 -15 10 -8 21 -14 b 232 -11 76 -25 135 -24 b 443 40 350 4 426 24 b 444 47 446 46 447 47 b 443 50 442 47 443 49 b 460 93 449 57 463 92 b 460 99 458 94 458 97 b 371 101 465 104 419 104 l 268 92 b 69 86 203 88 86 83 b 96 111 57 88 57 88 b 292 221 146 143 181 163 b 614 410 457 308 554 364 b 733 535 688 465 724 503 b 749 586 738 546 743 568 b 769 671 760 614 765 633 b 757 689 771 678 767 682 z m 713 518 b 646 450 704 501 683 482 b 289 239 585 401 492 347 b 96 129 203 194 139 156 l 56 101 b 39 93 46 94 39 92 b 149 165 40 97 97 135 b 292 244 168 176 232 213 b 601 426 465 336 519 368 b 703 510 650 461 679 485 b 713 518 715 525 718 526 z m 99 79 b 208 82 128 79 176 81 b 268 83 240 83 268 85 b 263 81 268 82 267 81 b 200 76 260 81 231 79 b 49 75 124 71 53 69 b 46 79 46 78 44 79 z m 256 361 b 514 500 292 385 517 506 b 422 450 514 500 474 476 l 282 375 b 256 361 257 360 244 354 z m 26 199 b 60 229 39 211 54 225 b 63 236 64 235 65 238 b 14 190 57 233 38 214 b 26 199 -7 168 3 175 z m 279 638 b 297 640 282 638 292 639 b 301 643 308 642 308 642 b 281 640 296 643 286 642 b 279 638 274 639 272 638 z m -28 122 b -32 115 -28 122 -29 119 b -32 108 -32 111 -33 108 b -26 115 -29 108 -26 111 b -28 122 -26 119 -26 122 z m 339 646 b 347 649 343 646 347 647 b 340 650 347 650 346 651 b 332 647 336 650 332 649 b 339 646 332 647 335 646 z m 376 651 b 383 654 379 651 382 653 b 376 657 382 657 379 657 l 371 653 b 376 651 371 653 374 651 z m 217 338 b 226 344 221 342 225 344 b 219 338 228 344 225 342 b 210 331 215 333 211 331 z m 392 97 b 404 96 394 97 401 97 b 397 94 407 96 404 94 b 392 97 390 94 388 96 z m 528 510 b 528 508 536 514 536 514 b 519 501 525 504 519 501 b 528 510 517 501 519 504 z m 429 99 b 440 99 432 100 438 100 b 433 97 442 97 439 97 b 429 99 426 97 425 99 z m 319 643 b 325 644 325 643 328 644 b 315 646 322 646 318 646 b 319 643 313 644 315 643 z m 364 94 b 371 93 367 96 369 94 b 365 92 371 92 369 92 b 364 94 361 92 360 93 z m 333 92 b 342 92 336 93 340 93 b 336 90 343 90 340 89 b 333 92 331 90 329 90 z m 356 649 b 361 650 360 649 363 650 b 356 651 361 651 358 653 b 356 649 351 650 351 649 z m 211 629 b 215 631 215 629 218 631 b 207 632 214 632 210 632 b 211 629 204 631 206 629 z m 279 86 b 289 86 281 88 286 88 b 282 85 292 85 289 85 b 279 86 276 85 275 86 z m 261 635 b 267 636 267 635 268 635 b 257 636 264 638 260 638 b 261 635 254 636 256 635 z m 306 89 b 313 89 308 90 311 90 b 307 88 314 88 313 86 b 306 89 303 88 303 88 z m 239 632 b 246 633 243 632 244 632 b 239 633 244 635 242 635 b 239 632 235 633 235 632 z "},"A":{"ha":1672,"x_min":0,"x_max":0,"o":"m 1543 732 b 1808 1161 1790 1096 1807 1124 b 1801 1178 1810 1171 1807 1175 b 1788 1213 1794 1181 1792 1188 b 1765 1276 1783 1250 1775 1271 b 1760 1290 1761 1279 1758 1283 b 1729 1297 1761 1303 1750 1306 b 1608 1225 1706 1289 1682 1275 b 1363 1042 1540 1181 1364 1049 b 1353 1033 1361 1039 1357 1036 b 1233 936 1346 1031 1235 940 b 1282 972 1233 935 1256 951 b 1331 1014 1313 994 1332 1011 b 1332 1015 1331 1017 1331 1017 b 1406 1068 1335 1014 1367 1038 b 1551 1181 1486 1132 1549 1181 b 1561 1186 1553 1181 1557 1183 l 1639 1240 b 1731 1292 1679 1265 1717 1286 b 1750 1290 1747 1297 1747 1297 b 1732 1275 1753 1283 1751 1282 b 1650 1232 1714 1271 1678 1251 b 1408 1054 1550 1161 1465 1100 l 1349 1006 b 789 526 1269 942 860 590 b 717 506 776 515 775 515 b 656 496 683 500 656 496 b 654 511 656 497 654 503 b 501 579 649 557 590 583 b 124 446 374 574 236 525 b 60 369 72 410 49 382 b 63 361 63 367 63 364 b 67 342 61 358 64 350 b 72 307 69 332 71 317 b 89 269 72 283 75 279 b 132 265 100 264 104 263 b 174 271 150 267 168 268 b 169 274 182 274 182 274 b 197 282 160 275 167 276 b 285 301 221 288 260 294 l 374 321 b 418 335 406 328 418 332 b 422 336 419 339 421 339 b 444 336 424 332 426 332 b 465 343 456 338 465 342 b 469 344 465 344 468 344 b 485 344 471 343 478 343 b 493 350 497 346 497 347 b 497 350 489 351 489 351 b 518 354 503 350 511 351 b 525 354 525 357 528 357 b 529 357 522 353 525 353 b 540 358 540 364 546 364 b 543 360 538 356 539 356 b 560 364 551 364 561 367 b 547 351 560 363 554 357 b 540 342 538 344 536 342 b 554 350 544 342 550 346 l 563 357 l 557 349 b 451 239 540 321 499 278 b 69 -26 286 101 153 10 b 19 -53 46 -36 26 -47 b 6 -61 14 -58 7 -62 b 0 -62 4 -61 3 -61 b 7 -67 -1 -65 1 -67 b 19 -72 14 -67 18 -69 b 35 -85 19 -76 28 -82 b 75 -112 51 -92 65 -103 b 86 -122 78 -117 83 -121 b 169 -114 97 -125 139 -121 b 376 -17 221 -101 306 -62 b 886 388 496 60 601 143 b 936 428 911 410 935 428 b 947 429 939 428 943 429 b 978 432 951 429 965 431 l 1017 436 b 1135 442 1040 439 1100 442 b 1174 438 1178 442 1181 442 b 1169 431 1171 436 1169 433 b 1153 392 1169 428 1163 410 b 1111 285 1144 372 1126 325 b 1081 174 1090 224 1086 204 b 1136 -49 1064 69 1083 -6 b 1164 -75 1144 -56 1157 -68 b 1314 -108 1193 -114 1261 -129 b 1333 -103 1324 -104 1332 -103 b 1336 -101 1333 -104 1335 -103 b 1340 -97 1336 -99 1339 -97 b 1363 -86 1342 -97 1353 -93 b 1386 -76 1374 -81 1385 -76 b 1390 -74 1389 -76 1390 -75 b 1406 -67 1389 -71 1401 -65 b 1408 -62 1407 -67 1408 -65 b 1418 -54 1408 -60 1413 -57 b 1447 -33 1424 -51 1438 -42 b 1471 -15 1458 -24 1468 -15 b 1481 -10 1472 -15 1478 -12 b 1481 -7 1486 -4 1486 -4 b 1485 -3 1478 -8 1479 -7 b 1492 7 1492 1 1494 4 b 1496 11 1490 10 1492 11 b 1503 14 1499 10 1503 13 b 1511 25 1503 17 1507 21 b 1535 61 1519 33 1519 33 b 1544 96 1542 76 1544 85 b 1517 182 1546 118 1525 182 b 1506 163 1508 182 1501 169 b 1494 107 1515 144 1511 126 b 1488 93 1490 101 1488 96 b 1426 39 1489 89 1456 61 b 1233 -37 1354 -11 1289 -36 b 1189 -29 1208 -37 1201 -36 b 1174 0 1176 -22 1175 -18 b 1319 376 1168 74 1218 201 b 1353 424 1342 415 1349 424 b 1360 421 1357 424 1360 422 b 1372 419 1361 419 1365 419 b 1382 417 1378 421 1382 419 b 1390 415 1381 415 1383 414 b 1394 414 1399 417 1399 417 b 1400 413 1389 411 1390 410 b 1408 411 1408 414 1411 414 b 1415 408 1406 408 1407 407 b 1421 407 1422 411 1424 410 b 1425 406 1418 404 1419 403 b 1432 403 1429 407 1432 406 b 1438 401 1431 401 1433 400 b 1442 399 1442 403 1443 401 b 1446 397 1439 397 1442 396 b 1453 397 1451 399 1454 399 b 1467 386 1451 397 1457 392 b 1488 369 1475 381 1485 374 b 1492 325 1496 361 1497 342 b 1488 307 1489 318 1488 310 b 1497 311 1489 300 1494 303 l 1510 329 b 1532 439 1531 354 1542 411 b 1438 507 1522 465 1490 488 b 1408 522 1418 514 1407 519 b 1543 732 1411 531 1483 644 z m 1361 743 b 1246 564 1336 706 1261 590 l 1233 543 l 1149 543 b 1067 547 1082 543 1064 544 b 1440 878 1078 558 1429 869 b 1454 890 1447 882 1453 888 b 1457 894 1454 892 1456 894 b 1471 906 1458 894 1465 899 b 1489 924 1476 913 1485 921 b 1482 910 1496 929 1496 926 z m 1382 524 b 1389 540 1379 522 1382 529 b 1554 792 1417 588 1492 699 l 1669 958 b 1779 1131 1738 1058 1767 1103 b 1789 1135 1794 1163 1801 1165 b 1700 992 1779 1110 1760 1079 l 1631 890 b 1554 781 1618 871 1583 821 l 1444 615 b 1382 524 1413 565 1385 524 z m 1303 385 b 1217 214 1274 333 1240 267 b 1160 25 1190 158 1163 63 b 1154 7 1160 -3 1157 -8 b 1201 199 1147 42 1168 125 b 1321 426 1232 269 1311 419 b 1303 385 1329 432 1324 421 z m 635 528 b 510 560 613 551 576 560 b 286 521 450 560 340 542 b 292 526 261 513 265 515 b 590 564 389 565 526 582 b 644 524 615 556 639 539 b 635 528 646 517 644 518 z m 1411 507 b 1531 431 1461 499 1525 458 b 1532 421 1532 425 1532 421 b 1522 436 1531 421 1528 428 b 1468 482 1515 449 1490 471 b 1429 497 1464 485 1446 492 b 1411 507 1413 504 1404 508 z m 364 306 l 396 313 b 467 329 439 322 464 328 b 440 326 471 333 463 332 b 408 321 429 325 415 321 l 386 315 b 365 311 372 311 372 311 b 358 308 363 311 360 310 b 364 306 358 306 361 306 z m 229 279 b 286 290 236 281 268 288 b 301 294 293 290 300 293 b 274 293 307 299 304 299 b 236 286 260 290 243 286 b 224 281 231 285 225 282 b 229 279 224 278 226 278 z m 86 406 l 69 383 b 64 379 67 379 64 376 b 86 411 63 383 72 397 b 86 406 100 425 101 421 z m 317 296 b 354 307 343 301 356 306 b 308 297 353 310 308 300 b 317 296 307 296 311 296 z m 215 278 b 207 279 219 281 217 281 b 186 274 197 278 189 275 b 215 278 182 269 201 274 z m 1419 419 b 1408 418 1432 414 1425 413 b 1404 422 1403 419 1400 422 b 1419 419 1407 424 1414 422 z m 1442 60 b 1465 76 1442 60 1453 67 b 1486 93 1478 86 1486 93 b 1463 76 1485 93 1474 86 b 1442 60 1450 67 1440 60 z m 1363 428 b 1351 432 1356 429 1351 431 b 1367 431 1353 435 1360 435 b 1363 428 1372 428 1371 428 z m 557 336 b 554 338 544 321 543 322 b 565 347 560 343 564 349 z m 499 335 b 497 339 500 338 500 339 b 489 335 494 339 490 338 b 490 332 486 333 488 332 b 499 335 493 332 497 333 z m 532 342 b 529 346 533 344 532 346 b 524 342 526 346 524 344 b 525 339 522 340 524 339 b 532 342 526 339 529 340 z m 1069 531 b 1063 532 1061 531 1058 531 b 1078 532 1067 533 1074 533 b 1069 531 1082 531 1078 531 z m 1158 435 b 1157 438 1160 436 1158 438 b 1151 435 1154 438 1153 436 b 1154 431 1151 432 1153 431 b 1158 435 1156 431 1158 432 z m 481 332 b 478 335 482 333 482 335 b 472 332 475 335 472 333 b 474 329 471 331 472 329 b 481 332 476 329 479 331 z m 143 271 b 138 274 136 271 133 272 l 149 274 b 143 271 153 272 150 271 z m 582 367 b 576 361 581 365 579 363 b 574 363 575 360 574 360 b 579 368 574 364 576 367 b 582 367 581 369 582 368 z m 1532 76 b 1536 82 1535 83 1536 86 b 1532 71 1536 79 1535 74 b 1532 76 1531 67 1531 69 z m 1388 425 b 1383 426 1382 425 1381 425 b 1392 426 1386 428 1390 428 b 1388 425 1394 425 1392 425 z m 283 407 b 282 410 279 407 278 408 b 288 408 285 410 288 410 b 283 407 289 408 286 407 z m 1435 411 b 1433 413 1432 411 1431 411 b 1440 413 1436 414 1439 414 b 1435 411 1442 411 1439 411 z "}}}
